<?xml version="1.0" standalone="no"?>
<!DOCTYPE svg PUBLIC "-//W3C//DTD SVG 1.1//EN" "http://www.w3.org/Graphics/SVG/1.1/DTD/svg11.dtd" >
<svg xmlns="http://www.w3.org/2000/svg">
<metadata></metadata>
<defs>
<font id="a_gentle_touchmedium" horiz-adv-x="1153" >
<font-face units-per-em="2048" ascent="1638" descent="-410" />
<missing-glyph horiz-adv-x="614" />
<glyph horiz-adv-x="2048" />
<glyph horiz-adv-x="2048" />
<glyph unicode="&#xd;" horiz-adv-x="681" />
<glyph unicode=" "  horiz-adv-x="614" />
<glyph unicode="&#x09;" horiz-adv-x="614" />
<glyph unicode="&#xa0;" horiz-adv-x="614" />
<glyph unicode="!" horiz-adv-x="204" d="M98 166q-6 209 6 608q14 436 9 602q0 14 10 25.5t25.5 11.5t26.5 -10.5t11 -26.5q6 -168 -8 -604q-12 -397 -6 -602q0 -16 -10 -27.5t-25.5 -11.5t-27 10.5t-11.5 24.5zM104 47q0 14 11.5 25.5t26 11.5t25.5 -11.5t11 -25.5t-11 -25.5t-25.5 -11.5t-26 11.5t-11.5 25.5z " />
<glyph unicode="&#x22;" horiz-adv-x="321" d="M45 1100q14 104 6 289q0 16 10.5 27t25.5 11t26.5 -10t11.5 -24q8 -190 -6 -301q-2 -16 -14.5 -25.5t-28 -7.5t-24.5 14t-7 27zM225 1100l2 145q2 84 -2 141q-2 14 8.5 25.5t25.5 13.5t26.5 -8t13.5 -26q4 -59 2 -148q0 -16 -1 -45t-1 -53v-45q0 -14 -11.5 -25.5 t-25.5 -11.5t-25.5 11t-11.5 26z" />
<glyph unicode="#" horiz-adv-x="808" d="M31 912.5q0 15.5 10 26.5t25 11l141 4q6 219 2 381q0 14 10 25.5t25.5 11.5t27 -10t11.5 -27q4 -160 -2 -381q57 0 317 -6q6 223 2 385q0 14 10.5 25.5t25.5 11.5t26.5 -10.5t11.5 -26.5q4 -160 -2 -387h116q14 0 25.5 -11t11.5 -25.5t-11 -26t-26 -11.5h-118 q0 -41 -4 -143l-7 -219q76 -2 138 -2q14 0 25.5 -11.5t11.5 -25.5t-11.5 -25.5t-25.5 -11.5q-61 0 -140 2q-2 -172 2 -309q0 -16 -10 -27.5t-25.5 -11.5t-26.5 10.5t-11 24.5q-4 139 -2 313q-238 6 -318 6q-2 -174 2 -313q0 -16 -10 -27.5t-25.5 -11.5t-26.5 10.5t-11 24.5 q-4 141 -2 317l-115 -4q-16 0 -27.5 10.5t-11.5 25.5t10 26.5t25 11.5q57 2 121 4q2 78 6 217t4 148q-72 -2 -135 -4q-16 0 -27.5 10t-11.5 25.5zM268 516q78 0 318 -6q2 80 6 221q4 104 4 143q-256 6 -317 7q0 -45 -5 -150z" />
<glyph unicode="$" horiz-adv-x="720" d="M41 340q-2 14 6 27.5t22.5 16.5t28 -5t17.5 -23q14 -74 75.5 -123t139.5 -59t138 21.5t81 101.5q27 90 -27 172q-49 80 -170 182q-154 131 -184 166q-94 100 -82 193q8 53 32.5 89t67.5 72q137 115 285 93q152 -23 231 -183q6 -14 2 -28.5t-18 -20.5t-28.5 -1.5 t-20.5 18.5q-63 125 -176 143q-115 16 -225 -78q-37 -31 -54.5 -55.5t-21.5 -57.5q-8 -59 61 -135q29 -33 178 -159q33 -27 56 -48l51 -53q31 -29 50 -55.5t37.5 -60t27 -66.5t9.5 -71t-12 -77q-29 -100 -113.5 -144t-185.5 -30q-98 12 -177 76t-101 162zM360 1409 q-4 14 3.5 27.5t21.5 17.5t27.5 -3t17.5 -21l8 -31q4 -10 6 -17l2 -18q0 -20 3 -29q2 -16 -8.5 -27.5t-26 -13.5t-26.5 8.5t-13 24.5q0 10 -2 31q-2 8 -2 10t-2 10zM391 41q-2 14 7.5 26.5t24.5 14.5t27.5 -7.5t14.5 -25.5q6 -45 14 -84q4 -14 -3 -27.5t-22.5 -16.5t-28.5 4 t-15 24q-12 43 -19 92z" />
<glyph unicode="%" horiz-adv-x="935" d="M75 150.5q-3 15.5 5 27.5q137 213 405 600l377 545q8 12 23.5 15t28 -5t15.5 -23.5t-5 -27.5l-375 -545l-408 -600q-8 -12 -23.5 -15t-27.5 5t-15 23.5zM438 1274q0 14 11.5 25.5t25.5 11.5t25.5 -11.5t11.5 -25.5t-11.5 -25.5t-25.5 -11.5t-25.5 11.5t-11.5 25.5z M621 213q0 14 11 25.5t25.5 11.5t25.5 -11.5t11 -25.5t-11 -25.5t-25.5 -11.5t-25.5 11.5t-11 25.5z" />
<glyph unicode="&#x26;" horiz-adv-x="849" d="M72 401q33 223 243 387q-4 0 -10 -2q-129 -10 -178 56q-53 74 6 190q47 96 148 176q104 84 202 97q125 14 183 -97q6 -12 2 -26.5t-17.5 -21.5t-28 -3t-22.5 19q-35 63 -108 55q-76 -10 -166 -80q-86 -70 -127 -152q-39 -76 -11 -112q23 -35 111 -27q68 6 145 33 q10 4 31 8l27 8q4 2 22 9l12.5 5t4.5 1l12 2q18 -2 29 -19q12 -23 -2 -41l-11 -8l-4 -2q0 -2 -2 -2q-174 -88 -284.5 -197.5t-133.5 -267.5q-14 -90 27 -123q51 -39 131 -28q78 12 170 67q74 45 129 101q55 57 78 110q-88 -6 -156 -4q-14 0 -24.5 11.5t-10.5 26.5t11.5 25.5 t27.5 10.5q68 -2 164 4q18 2 77.5 6t92.5 6q14 0 26.5 -10t12.5 -24.5t-10 -27t-25 -12.5q-35 -2 -106 -8q-20 -72 -90 -147.5t-158 -130.5q-66 -39 -130.5 -60.5t-135 -17.5t-119.5 45q-74 59 -55 192z" />
<glyph unicode="'" horiz-adv-x="141" d="M53 1235q18 115 4 213q-2 16 7.5 28.5t24.5 14.5t27.5 -7.5t14.5 -23.5q16 -111 -4 -237q-2 -14 -14.5 -23.5t-27.5 -7.5t-24.5 14.5t-7.5 28.5z" />
<glyph unicode="(" horiz-adv-x="409" d="M64 691.5q4 205.5 46 403t117 390.5q6 14 20.5 19t29 0t19.5 -19.5t1 -28.5q-102 -252 -141 -505t4 -520t182 -476q8 -12 5 -27.5t-15.5 -23.5t-27.5 -5t-23 15q-113 168 -166 369q-55 203 -51 408.5z" />
<glyph unicode=")" horiz-adv-x="321" d="M50 1489.5q3 15.5 15.5 24t28 5.5t23.5 -16q113 -168 164 -370q53 -203 47 -409t-49 -402.5t-119 -389.5q-6 -14 -20.5 -19t-29 0t-19.5 19.5t-1 28.5q76 186 117 376.5t47 387.5t-44 388.5t-155 348.5q-8 12 -5 27.5z" />
<glyph unicode="*" horiz-adv-x="485" d="M48 945.5q3 15.5 15 23.5l158 108q-66 45 -123 76q-14 8 -18 22.5t3 28t21.5 17.5t26.5 -2q61 -33 129 -78q4 98 4 180q0 14 11.5 25.5t25.5 11.5t25.5 -11.5t11.5 -25.5q0 -78 -4 -170q72 45 123 68q12 6 26.5 0.5t20.5 -18.5t1 -27.5t-20 -20.5q-51 -25 -135 -78 q76 -57 154 -127q10 -8 11 -23.5t-8 -26.5t-24.5 -12t-27.5 9q-66 57 -131 106l-13 -178q-2 -16 -13 -25.5t-26.5 -8t-24.5 12.5t-9 25q2 35 7 95.5t5 85.5l-146 -101q-12 -8 -27.5 -5t-23.5 15.5t-5 28z" />
<glyph unicode="+" horiz-adv-x="614" d="M82 571.5q0 14.5 11 25.5t26 11q84 0 194 4q-6 94 -6 183q0 14 11.5 25t25.5 11t25.5 -11t11.5 -25q0 -86 6 -179q20 2 82.5 5.5t97.5 5.5q16 0 27.5 -10.5t11.5 -26t-10 -26.5t-25 -11q-33 -2 -95 -5t-83 -5q10 -90 27 -199q2 -16 -7.5 -28.5t-24.5 -14.5t-27.5 7 t-14.5 24q-17 115 -27 209q-115 -6 -200 -6q-14 0 -25.5 11t-11.5 25.5z" />
<glyph unicode="," horiz-adv-x="266" d="M38 -180.5q3 14.5 15 22.5q84 51 111 105q27 51 20 147q0 14 9.5 25.5t24.5 12.5t26.5 -8.5t13.5 -25.5q8 -115 -29 -186q-37 -70 -135 -131q-14 -8 -28.5 -5t-22.5 16t-5 27.5z" />
<glyph unicode="-" horiz-adv-x="573" d="M51 648.5q2 15.5 13.5 25.5t25.5 8q43 -4 86 -5t96 1l82 2q29 2 98.5 6t88.5 4q14 0 26.5 -10t12.5 -24.5t-10.5 -27t-24.5 -12.5q-16 0 -86 -4t-101 -6l-84 -2q-55 -2 -100 -1t-88 5q-16 2 -26.5 13.5t-8.5 27z" />
<glyph unicode="." horiz-adv-x="239" d="M111 37q0 14 11 25.5t25.5 11.5t25.5 -11.5t11 -25.5t-11 -25.5t-25.5 -11.5t-25.5 11.5t-11 25.5z" />
<glyph unicode="/" horiz-adv-x="819" d="M39 49q29 66 98 197q86 162 101 190q287 573 583 963q8 12 23.5 14t28 -7t14.5 -24.5t-8 -27.5q-293 -385 -576 -951q-10 -20 -102 -192q-61 -115 -92 -191q-6 -14 -20.5 -19t-29 0t-19.5 19.5t-1 28.5z" />
<glyph unicode="0" horiz-adv-x="944" d="M86 723q8 285 107 491q115 236 296 252q9 0 17 -2q8 0 14 -2q205 -59 322 -319q102 -229 98 -518q-4 -291 -115 -478q-131 -219 -350 -190q-203 27 -307 268q-90 209 -82 498zM160 721q-8 -270 76 -465q88 -205 247 -225q174 -23 279 153q100 170 103 442.5t-91 487.5 q-102 227 -274 279h-2q-143 -12 -238 -211q-92 -193 -100 -461z" />
<glyph unicode="1" horiz-adv-x="139" d="M51 1409q0 14 11.5 25.5t25.5 11.5t25.5 -11.5t11.5 -25.5q0 -231 7 -696t7 -697q0 -14 -11 -25t-25.5 -11t-25.5 11t-11 25q0 231 -7.5 696.5t-7.5 696.5z" />
<glyph unicode="2" d="M74 248q-12 147 61 250q88 127 236 82q82 -25 174 -144q20 -25 76 -102l4 -4q106 131 149 235q45 104 68.5 215t20.5 228.5t-40 216.5q-63 176 -219 149q-68 -12 -136.5 -63t-113.5 -123q-8 -14 -22.5 -17.5t-27.5 5t-16 23t5 26.5q51 86 132 146.5t167 74.5 q98 18 178 -31t123 -166q39 -109 43 -238.5t-21.5 -245.5t-70.5 -228q-51 -119 -174 -269l28 -37q92 -111 176 -143q106 -43 238 21q14 6 28.5 1.5t20.5 -18.5t2 -28.5t-18 -20.5q-160 -78 -297 -25q-102 41 -207 166l-20 27l-43 -49q-14 -14 -37 -35q-23 -20 -64 -47 q-174 -121 -293 -51q-98 61 -110 219zM147 252q8 -119 76 -160q78 -45 213 49q12 8 23 15l16 16q10 6 16.5 10t14.5 13l10 10q4 4 13.5 15t12.5 14.5l15 17.5t18 20l-14 19l-74 100q-80 100 -137 119q-96 29 -154.5 -53t-48.5 -205z" />
<glyph unicode="3" horiz-adv-x="1024" d="M84 131.5q0 15.5 11 26t26.5 10.5t25.5 -12q78 -82 271 -93q213 -12 360 101q145 111 144 313q-2 113 -38 195t-96 125q-121 84 -296 -2l-19 -11q-8 -4 -14 -8h-2q-4 -2 -7.5 -3t-7.5 -1q-14 -2 -26 10q-20 20 -6 45q2 4 6 9l8 6h2v2q16 8 31 14q8 6 12 8q41 31 119 109 q92 88 133 166q59 106 12 168q-90 119 -270 32q-80 -37 -143.5 -101t-83.5 -124q-4 -14 -18.5 -20t-29 -2t-20.5 18.5t-2 28.5q27 76 100.5 150.5t165.5 115.5q63 31 124.5 40t126.5 -13.5t108 -79.5q76 -100 -5 -248q-47 -88 -145 -184l-14 -13q115 8 202 -53 q80 -53 122 -152.5t44 -226.5q2 -162 -83 -277.5t-215 -166.5t-283 -43q-223 12 -320 116q-10 10 -10 25.5z" />
<glyph unicode="4" horiz-adv-x="1024" d="M41 485q-2 10 2 19q0 4 2 8t4 10q6 8 14 25l41 65l29 43q16 25 25.5 40.5t11.5 15.5l86 141l98 164l86 133q59 90 109 158l100 135q10 14 29 14q12 0 22 -8q15 -11 15 -29q0 -201 10 -882q162 4 283 -2q14 0 24 -12.5t10 -27t-12 -24.5t-26 -10q-121 6 -279 2 q4 -270 4 -465q0 -14 -11 -25.5t-25.5 -11.5t-26 11.5t-11.5 25.5q0 195 -4 463q-35 -2 -143.5 -7t-167.5 -8q-2 0 -52 -4t-85 -4q-57 -2 -90 2q-23 2 -37 9q-29 12 -35 36zM129 512q27 -2 70 0q37 0 86 4l51 4q59 2 167.5 7t147.5 8q-10 623 -10 776l-84 -119l-88 -135 l-76 -121l-84 -137l-78 -125q0 -2 -10 -19l-26 -37l-27 -45z" />
<glyph unicode="5" horiz-adv-x="858" d="M68 242q-2 14 6 26.5t23.5 15.5t27.5 -5.5t16 -24.5q25 -141 119 -182q88 -39 205 12q121 53 213 182q90 127 98 287q10 182 -43 334q-66 184 -203 221q-117 29 -231 -80q-12 -10 -39 -39q-23 -23 -35 -33q-27 -20 -49 -18q-35 2 -49 41q-2 6 -2 20q-2 8 0 19q0 14 2 49 q2 49 2 51v31q-2 37 -2 119v67q2 16 2 25q0 6 1 10t3 8q4 10 12 19l19 6q4 0 8 2h18q20 2 60 2q63 2 176 2h295q14 0 25.5 -11.5t11.5 -25.5t-11.5 -25.5t-25.5 -11.5h-293q-113 0 -176 -2q-31 0 -51 -2v-63q0 -80 2 -115v-37q0 -4 -4 -53v-31l8 8l41 43q143 135 299 95 q178 -43 256 -267q57 -166 47 -362q-10 -182 -112.5 -326.5t-243.5 -206.5q-145 -63 -263 -12q-131 57 -163 238zM199 1001v3v-3z" />
<glyph unicode="6" horiz-adv-x="808" d="M35 578.5q-2 162.5 42 326.5t134 303q92 141 180 201q143 96 271 -6q12 -8 14 -23.5t-7.5 -28t-25 -14t-27.5 8.5q-86 68 -184 2q-76 -51 -160 -181q-125 -190 -153 -434q-31 -242 31 -461q14 -53 24 -79q10 98 39 176q45 123 86 182q111 160 262 180q72 10 123 -21.5 t78 -93.5q45 -109 6 -266q-18 -74 -52 -140.5t-84 -122.5t-120 -87t-147 -25q-115 10 -185 74q-29 25 -51.5 66t-30.5 66.5t-18 70.5q-43 164 -45 326.5zM240 94q53 -39 129 -45q117 -10 205 84t122 234q33 135 -4 221q-33 82 -123 69q-119 -16 -209 -147q-37 -49 -77 -166 q-33 -90 -43 -250z" />
<glyph unicode="7" horiz-adv-x="833" d="M57 1106q2 14 4 139v86v17v12v8v2v2v2v2l5 10q6 14 24 23q6 2 19 4q16 4 43 6q43 4 118 4q51 2 85 1t71 -1h41q6 0 68.5 2t105.5 2q66 2 102 -2q25 -4 39 -8q12 -4 21 -10q16 -12 18 -31q2 -14 -8 -41q-6 -18 -18 -47q-20 -47 -60 -125l-43 -86l-41 -78q-14 -31 -20 -41 q-106 -236 -170 -499.5t-23 -450.5q2 -16 -6 -28.5t-23.5 -15.5t-27.5 5t-16 23q-43 205 23.5 480.5t176.5 514.5q4 12 21 45l41 78q25 49 41 86q39 76 59 121l14 35h-6q-33 4 -94 2q-41 0 -104.5 -2t-69.5 -2h-41q-37 0 -70.5 1t-83.5 -1q-74 0 -114 -4q-12 0 -23 -3v-12 v-86q-2 -129 -4 -147q-2 -16 -14.5 -25.5t-27.5 -7.5t-24.5 14.5t-7.5 26.5z" />
<glyph unicode="8" horiz-adv-x="606" d="M66 272q12 152 120 387q33 74 70 142l-35 28q-53 45 -80 74q-88 98 -73 217q10 86 75.5 174t147.5 138q98 57 178 34q94 -26 133 -153q12 -16 2 -37q-14 -33 -149 -266l-107 -191v-2q209 -197 252 -385q16 -80 -6.5 -174t-75.5 -166q-37 -51 -85 -81.5t-110.5 -39 t-129.5 26.5q-145 70 -127 274zM139 266q-14 -154 86 -203q133 -63 234 72q45 61 63.5 140t3.5 141q-35 160 -215 334q-33 -61 -57 -121q-102 -223 -115 -363zM141 1112q-10 -86 56 -160q23 -25 71 -65l23 -19l100 179q127 219 139 245q-27 88 -81 103q-49 16 -119 -27 q-70 -41 -125 -115.5t-64 -140.5z" />
<glyph unicode="9" horiz-adv-x="833" d="M51 281q-4 14 3 27.5t21.5 17.5t28 -3.5t17.5 -21.5q27 -90 74 -158q49 -66 104 -92q125 -61 250 88q111 129 164 309.5t47 360.5t-60 348q-18 57 -26 78q-6 -98 -31 -178q-39 -123 -78 -185q-102 -168 -252 -194q-72 -12 -125 17.5t-79 88.5q-51 106 -21 267 q14 72 45 140.5t78 126.5t115.5 92t148.5 32q113 -4 187 -64q25 -18 42 -40.5t31 -59.5l19 -45q4 -10 16 -51q57 -178 63.5 -369.5t-50 -386.5t-177.5 -336q-82 -94 -171 -120.5t-169 14.5q-74 37 -129 115.5t-86 181.5zM160 1036q-25 -135 14 -221q39 -80 127 -63 q117 20 203 157q35 57 69 168q29 92 29 254q-53 35 -131 37q-115 4 -199 -94q-84 -96 -112 -238z" />
<glyph unicode=":" horiz-adv-x="174" d="M37 153.5q0 14.5 11 25.5t25.5 11t26 -11t11.5 -25.5t-11.5 -25.5t-26 -11t-25.5 11t-11 25.5zM68 903.5q0 14.5 11 25.5t25.5 11t25.5 -11t11 -25.5t-11 -26t-25.5 -11.5t-25.5 11.5t-11 26z" />
<glyph unicode=";" horiz-adv-x="147" d="M-114 -190.5q5 14.5 20 20.5q59 25 91 93.5t26 148.5q0 14 9 25.5t24.5 12.5t26.5 -8.5t13 -25.5q6 -96 -33.5 -187.5t-128.5 -128.5q-14 -4 -28.5 1.5t-19.5 19.5t0 28.5zM53 856q0 14 11.5 25.5t25.5 11.5t25.5 -11.5t11.5 -25.5t-11.5 -25.5t-25.5 -11.5t-25.5 11.5 t-11.5 25.5z" />
<glyph unicode="&#x3c;" horiz-adv-x="555" d="M27 494q-10 33 22 57q8 6 12 8q2 0 2 2q258 256 431 483q8 12 23 14.5t27.5 -7t14.5 -25t-8 -27.5q-174 -229 -434 -491q-4 -2 -11 -8l7 -8q14 -20 43 -52q51 -55 133 -135l96 -92l98 -94q39 -39 56 -58q10 -10 10 -25.5t-11.5 -25.5t-26.5 -10t-26 12l-55 56l-96 92 l-96 92q-88 86 -138 139l-47 55q-23 29 -26 48z" />
<glyph unicode="=" horiz-adv-x="614" d="M63 862.5q0 14.5 11.5 25.5t25.5 11q86 0 256 3t256 3q14 0 25.5 -11t11.5 -25.5t-11 -26t-26 -11.5q-86 0 -256 -3t-256 -3q-14 0 -25.5 11.5t-11.5 26zM72 682q0 14 11.5 25.5t25.5 11.5q86 0 256 3t256 3q14 0 25 -11.5t11 -25.5t-11 -25.5t-25 -11.5q-86 0 -256 -3 t-256 -3q-14 0 -25.5 11.5t-11.5 25.5z" />
<glyph unicode="&#x3e;" horiz-adv-x="614" d="M41 33.5q-2 15.5 8 27.5q66 78 299 306l148 141l39 41l-43 47l-142 145q-231 238 -248 256q-8 12 -7 27.5t12.5 25t27 8.5t25.5 -11q18 -23 243 -254l142 -146l47 -51q8 -12 14 -18q8 -12 12 -23q2 -12 -2 -23q-2 -4 -4 -7t-6 -7q-4 -6 -14 -16l-45 -47l-148 -142 q-229 -225 -293 -301q-10 -10 -25 -12t-26.5 8t-13.5 25.5z" />
<glyph unicode="?" horiz-adv-x="684" d="M38 1051.5q-3 15.5 3 27.5q43 70 140.5 155t193.5 128q123 55 198 18q92 -47 86 -211q-2 -55 -15 -109t-47 -122t-50 -94l-62 -109q-78 -131 -116.5 -227t-38.5 -201q0 -14 -11.5 -25.5t-25.5 -11.5t-25.5 11.5t-11.5 25.5q0 82 27.5 172t56.5 148q25 47 82 145t80.5 142 t52.5 120t31 140q4 117 -45 141q-43 20 -135 -21q-86 -39 -175.5 -115.5t-124.5 -136.5q-8 -14 -23 -17t-28.5 4t-16.5 22.5zM285 65.5q0 14.5 11 25.5t25.5 11t25.5 -11t11 -25.5t-11 -25.5t-25.5 -11t-25.5 11t-11 25.5z" />
<glyph unicode="@" horiz-adv-x="1372" d="M61 475q-31 172 20.5 347t168.5 313q119 139 281.5 206.5t340.5 34.5q96 -18 184.5 -72.5t141.5 -132.5q49 -72 60.5 -164t-7.5 -171q-20 -82 -61 -150q-68 -113 -156 -139q-109 -31 -188 76q-12 16 -19 30l-8 -10q-66 -94 -133 -137q-49 -33 -96 -33q-59 -2 -107 43 q-72 70 -47 201q18 113 96 209q84 104 183 116q119 16 200 -110q8 -12 5.5 -27.5t-15 -24t-28 -5t-23.5 15.5q-57 88 -131 80q-68 -10 -133.5 -92t-81.5 -174.5t29 -135.5q25 -25 51 -22q27 0 59 20q55 37 111 117q35 49 43 111q0 2 2 32q0 14 2 21.5t4 13.5q16 25 43 17 q16 -4 22 -19l5 -8q10 -33 8 -113q-2 -45 16 -71q51 -66 111 -50q61 18 112 105q55 92 61.5 201.5t-50.5 205.5q-43 66 -119 112t-158 61q-158 31 -302 -30t-253 -188q-104 -123 -151.5 -282.5t-18.5 -315.5q31 -166 191 -278q158 -113 370 -139q215 -27 379 47 q168 74 217 235q4 14 17.5 21.5t28 3.5t21.5 -17.5t3 -27.5q-39 -133 -148.5 -217t-243.5 -111t-281.5 -8.5t-277.5 77t-227.5 164t-122.5 238.5z" />
<glyph unicode="A" d="M54 878q-3 7 -2 14q0 6 3 14q6 14 20.5 19t26.5 -1q61 -27 127 -33l17 43q74 172 194 326q80 100 154 147q66 44 128 43q27 0 54 -8q74 -25 94 -90q7 -23 7 -49q0 -33 -11 -72q-31 -104 -114 -195q-96 -102 -220 -164q-123 -59 -253 -59q-103 -279 -103 -474q0 -27 2 -52 q10 -117 62 -181q38 -47 94 -47q27 0 59 11q66 23 131 123q59 90 117 239q63 166 141 475l33 129l23 84q4 18 8 29q2 6 2 10q2 2 4 6q0 2 2 6q4 2 6 7q10 8 25 8q23 0 33 -19l4 -12v-10v-15q-2 -16 -7 -45l-22 -149q-35 -252 -45 -391q-3 -51 -3 -96q0 -140 32 -230 q45 -125 139 -151q21 -7 42 -7q70 0 134 76q10 10 25.5 12.5t26.5 -7.5q12 -10 14 -26v-6q0 -12 -9 -22q-86 -102 -189 -102q-32 0 -65 10q-61 18 -111 70.5t-77 128.5q-36 102 -36 257q0 46 3 97q2 31 6 67q-33 -111 -71 -210q-61 -158 -123 -254q-80 -123 -168 -152 q-45 -15 -85 -15q-88 0 -151 74q-66 82 -78 224q-2 26 -2 54q0 199 101 482q-68 10 -129 39q-14 6 -20 20zM307 887q106 8 208.5 60t182.5 138q72 78 99 168q8 27 8 49q0 15 -4 28q-10 30 -49 42q-14 4 -29 4q-40 0 -88 -30q-63 -41 -135 -134q-115 -147 -185 -307z" />
<glyph unicode="B" horiz-adv-x="1017" d="M102 1296q-2 6 -2 12q0 8 4 17q6 15 19 21l41 18l43 16q10 4 33.5 12.5t45 14.5t48.5 12q52 11 102 12q95 0 182 -42q74 -35 111 -99q26 -46 25 -103q0 -25 -4 -52q-33 -166 -248 -314q100 0 180 -37q145 -66 203 -235q29 -86 29 -162q0 -81 -33 -149q-51 -109 -172 -172 q51 -10 100 -11h7q159 0 243 86q12 10 26.5 10.5t25.5 -11t11 -26t-10 -26.5q-108 -106 -295 -106h-10q-104 2 -217 36q-93 -25 -188 -25q-16 0 -33 1q-78 4 -148 47q0 -14 -11 -24.5t-25.5 -10.5t-26 11.5t-11.5 25.5q1 76 3 298q2 159 1 261v72q-1 112 -9.5 287.5 t-24.5 318.5q-8 6 -15 16zM190 1294q25 -223 31 -508h2q10 4 51 13q35 10 56 10h10l47 29q106 61 189 141t100 168q4 22 4 41q0 89 -94 133q-69 35 -149 35q-42 0 -87 -10q-74 -14 -160 -52zM221 246q27 10 62 4q41 -8 96 -39q31 -16 86 -53q47 -31 57 -37q33 -15 68 -27 q166 53 225 176q24 52 24.5 115.5t-24.5 138.5q-47 141 -164 195q-66 28 -147 28q-54 0 -115 -12l-41 -8q-31 -6 -47 -10q-55 -12 -78 -12q1 -44 0 -109q1 -131 -2 -350zM228 138q4 -14 26 -32q55 -37 119 -38q15 -1 30 -1q30 0 62 3l-39 26q-55 35 -84 51q-45 25 -74 29 q-7 1 -12 1q-10 0 -14 -5q-15 -17 -15 -30q0 -2 1 -4z" />
<glyph unicode="C" horiz-adv-x="765" d="M2 618q-1 33 -1 65q0 147 29 293q36 178 124 316q72 117 153 138q18 5 36 5q58 0 110 -51q53 -51 86.5 -140t35.5 -175q0 -16 -10 -27.5t-25.5 -11.5t-26.5 10.5t-11 24.5q-2 76 -31 151.5t-70 114.5q-31 29 -61 29q-8 0 -16 -2q-51 -12 -109 -103q-79 -131 -113 -297 q-27 -134 -27 -270q0 -33 1 -65q14 -291 112 -449q78 -125 181 -125h6q102 4 180 133q88 150 88 393q0 14 11.5 25.5t25.5 11.5t25.5 -11t11.5 -26q0 -264 -99 -430q-98 -164 -241 -170h-10q-140 0 -242 160q-106 172 -123 483z" />
<glyph unicode="D" horiz-adv-x="1177" d="M100 1378.5q0 14.5 11.5 25.5t25.5 11q180 0 392 -147.5t366 -360.5q162 -227 188 -434q5 -37 5 -72q0 -192 -144 -313q-27 -20 -53 -39q63 -14 117 -16h5q133 0 197 102q8 12 22.5 15.5t28 -5t16.5 -22.5q1 -4 1 -8q0 -10 -6 -21q-86 -135 -256 -135h-10q-90 2 -218 43 q-100 -35 -210 -35q-103 0 -213 31q-78 20 -117 39q-10 4 -19 10q0 -12 -2 -24q-2 -16 -14 -25.5t-27.5 -7.5t-24.5 14t-7 27q12 95 13 197v27q0 95 -6 223q-7 148 -7 202q-6 397 -19 661q-14 0 -24.5 11.5t-10.5 26zM209 1333q12 -262 18 -653q-1 -41 7 -207q6 -131 6 -215 v-41q30 14 73 14q46 0 105 -16q39 -10 86 -27l117 -45q72 -27 92 -37l73 -26q61 25 109 65q119 99 119 259q0 30 -4 61q-23 186 -174 399q-129 178 -302.5 309.5t-324.5 159.5zM244 127q8 -10 37 -23q33 -16 104 -36q99 -26 195 -26q41 0 82 5q-213 84 -263 96 q-49 13 -84 13q-51 0 -71 -27v-2z" />
<glyph unicode="E" horiz-adv-x="833" d="M84 434q8 116 60.5 221t138.5 181q20 18 43 34q-18 6 -37 17q-84 43 -125 117q-33 58 -33 129q0 17 2 36q12 121 96 191q82 72 189 76h7q87 0 157 -45l14 12q12 10 27.5 8t24.5 -14.5t7 -27.5t-14 -23l-4 -5q53 -63 63 -157v-4q2 -19 3 -36q0 -88 -62 -116q-22 -8 -42 -8 q-15 0 -29 4q-34 10 -60 37q-50 48 -50 118q0 16 3 33q10 63 63 127q-44 23 -97 23h-9q-80 -2 -141 -55q-63 -53 -72 -146q-1 -14 -1 -27q0 -122 116 -182q63 -33 129 -41h10l10 2h12q18 2 31 -4q16 -6 24.5 -20.5t2.5 -30.5q-4 -18 -19 -24l-10 -5h-8q-4 -2 -14.5 -2 t-34.5 2h-37q-12 0 -12 2q-27 -8 -74 -49q-117 -106 -158 -254q-16 -58 -16 -115q0 -88 39 -173q61 -122 185 -176q86 -38 177 -37q41 -1 84 7q137 24 238 118q10 10 25.5 10t25.5 -11.5t10 -26.5t-12 -26q-114 -106 -272 -135q-49 -9 -98 -9q-106 0 -208 44 q-148 64 -221 209q-48 97 -48 198q0 14 1 29zM537 1200q-2 -10 -2 -20q0 -40 28 -68q20 -20 37 -20q5 0 10 2q20 9 20 53q0 8 -1 16q-2 2 -2 6q-6 74 -43 123q-41 -47 -47 -92z" />
<glyph unicode="F" horiz-adv-x="1093" d="M136 1314q5 14 19.5 19.5t28.5 1.5q83 -30 177 -29h35q114 6 216 46q10 4 84 45q33 18 49 24q10 6 19 11q6 2 10 2q6 2 12 2t11 -2q27 -6 30 -37v-27q-2 -18 -10 -51q-4 -23 -12 -51l-4 -13q-2 -6 -2 -8v-4q-33 -156 -35 -334q0 -43 6 -121q84 14 207 58q14 4 27.5 -2 t18.5 -20.5t-1 -28t-21 -19.5q-133 -47 -223 -61q16 -158 19 -232q2 -41 2 -77q0 -245 -92 -332l-2 -4q43 -14 83 -21q31 -5 62 -5q146 0 289 106q12 10 27.5 8t24.5 -14q7 -10 7 -23v-5q-2 -16 -14 -24q-164 -122 -335 -122q-35 0 -71 5q-76 10 -147 45q-88 -43 -183 -43 q-56 0 -114 15q-98 27 -144 86q-29 40 -29 84q0 39 23 82q31 56 92 56q26 0 58 -11q59 -18 115 -66q94 -76 178 -121q16 12 30 25q68 66 68 276q0 37 -2 78q-2 70 -18 224q-19 -1 -38 -1q-121 0 -245 44q-14 6 -20.5 19t-1 27.5t18.5 20.5t27 2q109 -40 214 -40q18 0 36 1 q-6 84 -6 131q2 186 35 351l8 26q8 29 12 49v4l-12 -8q-78 -41 -96 -49q-113 -43 -238 -50q-18 -1 -36 -1q-106 0 -207 35q-14 6 -20 20q-3 7 -2 15q0 6 2 13zM250 123q29 -41 102 -60q46 -11 91 -11q51 0 100 14q-68 41 -140 100q-47 37 -92 53q-16 5 -29 5q-23 0 -32 -17 q-14 -24 -14 -45t14 -39z" />
<glyph unicode="G" horiz-adv-x="1040" d="M31 647q2 180 49 357.5t141 308.5q80 111 162 125q14 2 27 2q64 0 116 -56q51 -55 79 -146q26 -85 26 -166v-11q0 -14 -11.5 -24.5t-26.5 -10.5t-25.5 11.5t-10.5 27.5v12q0 68 -21 139q-24 76 -63 117q-32 34 -67 34q-6 0 -11 -1q-53 -10 -112 -94q-88 -125 -133 -289 q-43 -166 -46 -336v-15q0 -192 48 -345q66 -213 198 -230q10 -1 20 -1q39 0 69 18q38 24 85 82q131 156 146 411q0 6 2 13q-113 0 -133 2q-16 2 -25.5 14t-7.5 27.5t14.5 24.5t26.5 7q18 -2 145 -2q41 0 88 2h17h12h6h2h2h2h2h2q10 -2 19 -8q10 -10 14 -26q4 -8 6 -23 q2 -18 2 -51q0 -27 -4 -144q-1 -50 -1 -88.5t1 -66.5q4 -74 17 -103q35 -84 93 -86h3q56 0 98 78q8 14 22.5 18.5t28 -3t17.5 -21.5q2 -6 2 -11q0 -8 -4 -16q-61 -118 -165 -118h-5q-49 2 -91 36.5t-69 94.5q-16 41 -21 129q-1 28 -1 68t1 92q4 115 5 139q0 23 -2 37h-11 q-20 0 -41 -2q4 -8 4 -17q-14 -281 -161 -457q-55 -63 -109 -98q-42 -27 -96 -27q-17 0 -35 3q-180 23 -260 280q-51 166 -51 368v15z" />
<glyph unicode="H" horiz-adv-x="948" d="M-33 641v8q0 69 35 125q53 88 158 131q-6 268 -23 490q-2 14 8.5 25.5t25.5 13.5h5q12 0 22 -8q12 -10 13 -27q16 -211 22 -471q42 8 84 9q153 0 308 -112q90 -66 151 -145q-4 145 -10 270q-2 53 -4 221q0 135 -8 215q-2 14 8 26.5t24.5 15t26.5 -8t14 -24.5 q8 -84 9 -224q2 -166 4 -217q10 -268 12 -481q78 37 137 88q12 10 27.5 8t25.5 -13q9 -9 9 -22q0 -18 -13 -30q-80 -68 -186 -113v-174v-176q0 -14 -11.5 -25.5t-25.5 -11.5t-25.5 11.5t-11.5 25.5v154v170q-59 -18 -119 -29q-98 -15 -176 -15q-53 0 -98 7q-82 12 -149 34 q-2 -236 -3 -321q0 -14 -11 -25.5t-25.5 -11.5t-25.5 11.5t-11 25.5q0 76 2 350q-96 45 -148 115q-45 61 -47 135zM66 735q-27 -45 -27 -88q0 -50 35 -98q31 -43 88 -74q0 63 -1 182t-1 168q-61 -35 -94 -90zM233 852q2 -162 3 -412q70 -27 161 -39q37 -5 82 -5q74 0 168 14 q66 10 131 32v78q-41 133 -194 244q-137 98 -268 98q-42 0 -83 -10z" />
<glyph unicode="I" horiz-adv-x="768" d="M111 266q-2 11 -2 20q0 22 12 38q4 6 22 20l35 27l98 69h3q-23 102 -31 219q-4 48 -4 102q0 148 28 345q12 88 56 192q27 66 53 103q38 48 81 48q7 0 15 -1q100 -20 137 -180q10 -41 25 -201q4 -43 4 -94q0 -169 -41 -430q-29 -170 -65 -295q-23 -76 -50 -127 q47 -51 101 -62q14 -3 29 -3q87 0 200 91q12 10 26.5 8.5t24.5 -13.5q8 -10 9 -22q-1 -4 -1 -6q-2 -14 -14 -24q-134 -108 -247 -108q-20 0 -40 4q-70 14 -126 69q-4 -6 -11 -12q-27 -30 -64 -30q-26 0 -57 14q-53 23 -108 79q-49 53 -78 107q-16 29 -20 53zM182 281 q2 -12 13 -33q25 -45 67 -90q45 -47 84 -64q16 -7 26 -6q8 0 13 4q6 8 14 21q-8 12 -16 26q-51 90 -88 223l-74 -51l-33 -24zM322 664q6 -92 22 -179l105 70q12 6 27.5 2t22.5 -16.5t3 -27.5t-17 -24q-27 -14 -125 -81q31 -132 78 -218q14 37 29 80q35 119 61 283 q41 255 41 417q0 49 -4 89q-14 158 -22 192q-27 113 -78 123h-2q-8 0 -23 -18q-23 -29 -45 -84q-39 -98 -49 -178q-27 -189 -28 -334q1 -51 4 -96z" />
<glyph unicode="J" horiz-adv-x="919" d="M109 618q23 104 161 259l109 114q66 68 92 101q104 129 139 186q2 4 29 80q10 31 20 45q15 18 37 18h4q23 -4 35 -26q6 -8 8 -21v-16q0 -16 -2 -43q-2 -43 -8 -123l-10 -125q-6 -61 -6 -74q-2 -117 -2 -211q0 -141 4 -229q0 -27 5 -97.5t7 -109.5q6 -133 6 -235l4 -2 q41 -12 72 -17q8 -1 17 -1q26 0 58 9q44 13 89 47q12 10 27.5 8.5t24.5 -13.5q7 -11 7 -23v-5q-2 -16 -14 -24q-92 -70 -194 -70q-46 0 -95 15q-8 -141 -37 -238q-41 -139 -129 -182q-30 -15 -57 -15q-49 0 -90 48q-49 57 -64 158q-4 33 -4 65q0 66 20 130q29 95 113 132 q41 19 89 19q42 0 90 -15q0 84 -7 193q-70 -59 -133 -74q-33 -7 -67 -7q-45 0 -91 13q-79 21 -143 70q-66 53 -99 128q-21 49 -21 102q0 27 6 56zM182 602q-5 -24 -5 -46q0 -94 91 -165q51 -41 116 -59q35 -9 68 -9q29 0 56 7q25 4 51.5 20.5t42.5 30.5l49 41l2 2 q-8 102 -8 125q-4 91 -4 233q0 94 2 211q0 16 6 80l10 125l3 23q-35 -51 -134 -174q-23 -29 -96 -107l-108 -115q-125 -137 -142 -223zM428 -182q12 -82 47 -121q18 -22 38 -22q11 0 22 6q59 31 92 137q29 91 35 241q-53 19 -94 19q-30 0 -54 -10q-51 -25 -74 -96 q-16 -46 -16 -99q0 -27 4 -55z" />
<glyph unicode="K" horiz-adv-x="1044" d="M135 14q0 66 4 137.5t12.5 165t10.5 136.5q21 320 21 642q0 156 -5 312q0 16 10.5 27.5t25.5 11.5t26.5 -10.5t11.5 -24.5q5 -159 5 -319q0 -120 -3 -240q74 61 127 137q135 182 244 416q6 12 20 17t27.5 -1t18.5 -20.5t-1 -28.5q-109 -238 -248 -428q-41 -53 -84 -96h5 q97 0 167 -80q55 -61 95 -205q12 -45 32.5 -135t28.5 -121q35 -145 76 -215q51 -82 123 -86h12q46 0 84 27q41 31 98 100q10 12 25.5 14.5t27.5 -7.5q11 -10 13 -26v-6q0 -12 -8 -20q-29 -37 -48.5 -57.5t-53.5 -48.5q-35 -28 -73 -40q-33 -11 -69 -10h-12q-113 8 -181 123 q-47 78 -86 236q-8 31 -28 119q-18 86 -31 133q-35 129 -78 176q-49 55 -116 55q-13 0 -27 -2q-23 -4 -60 -16q-16 -6 -24 -8q-4 -152 -14 -299q-2 -43 -10.5 -135.5t-12.5 -163t-4 -136.5q0 -14 -11.5 -25.5t-25.5 -11.5t-25.5 11.5t-11.5 25.5z" />
<glyph unicode="L" horiz-adv-x="1112" d="M61 172q18 90 97 127q37 19 80 19q58 0 127 -35q10 -6 22 -13q59 158 96 432q6 53 17 129l12 119q-113 -37 -358 -37q-14 0 -25.5 11.5t-11.5 26t11 25.5t26 11q135 0 216 8.5t152 36.5q16 111 35 195q25 102 74 174q35 51 78 72q24 11 49 11q31 0 63 -18q67 -35 67 -108 q0 -38 -18 -86q-35 -86 -98 -152q-86 -92 -182 -139l-2 -25q-6 -41 -16.5 -129t-14.5 -133q-39 -293 -108 -467q20 -14 47 -39q84 -74 112 -94q151 -104 288 -104h13q156 2 256 143q10 14 24.5 16.5t28.5 -7.5q13 -10 15 -24v-5q0 -11 -6 -21q-123 -172 -316 -176h-11 q-161 0 -333 117q-33 23 -121 100l-28 25q-57 -106 -158 -152q-43 -18 -79 -18q-52 0 -89 39q-37 40 -37 97q0 23 6 48zM133 156q-4 -16 -4 -30q-1 -30 17 -49q13 -14 35 -14q21 0 50 13q80 35 125 127q-12 8 -24 14q-53 26 -94 26q-26 0 -48 -10q-45 -23 -57 -77zM604 1073 q57 37 115 96q53 57 82 129q13 33 13 56q0 33 -26 47q-16 8 -30 8q-10 0 -19 -4q-25 -10 -49 -45q-41 -61 -59 -150q-15 -63 -27 -137z" />
<glyph unicode="M" horiz-adv-x="1554" d="M119 41v8v4v19q0 29 2 49q0 16 4 47q0 41 -2 166q0 156 8 246q0 61 -2 94l-2 10v2v10q-2 23 -2 154q0 55 -3 183t-3 185.5t4 184.5q0 14 12 24.5t26.5 10.5t25 -12.5t10.5 -26.5q-3 -42 -3 -137q0 -127 5 -347q20 78 45 146q53 143 116 227q82 106 181 113h8 q92 0 153 -86q49 -68 74 -191q10 -59 19 -129q25 72 55 133q57 123 125 191q77 74 160 74q12 0 24 -2q127 -18 189 -179q47 -121 55 -325q2 -46 2 -100q0 -108 -8 -250q-2 -51 -6 -95q-4 -55 -7.5 -92t-3.5 -59v-25q0 -79 11 -129q10 -53 30 -69q16 -12 49 2q49 18 123 88 q10 10 25.5 10t26 -11.5t10.5 -26.5t-13 -26q-82 -80 -145 -104q-31 -12 -57 -12q-36 0 -64 22q-43 33 -59 113q-10 57 -10 140v28q0 25 3 61.5t7 92t6 96.5q8 134 8 241q0 54 -2 101q-8 195 -49 303q-47 119 -133 131q-7 1 -14 1q-52 0 -107 -52q-57 -57 -111 -168 q-84 -178 -112 -357q0 -35 -4 -102.5t-4 -95.5q-2 -45 -2 -86q-2 -23 -2 -33v-4q0 -2 -1.5 -5t-1.5 -5q-2 -12 -16 -19q-20 -12 -39 0q-8 6 -12 15q-2 4 -4 10v8v6q0 225 10 305q2 6 2 13v6q0 229 -27 356q-20 106 -59 162q-40 55 -94 55h-4q-63 -4 -125 -84 q-57 -74 -107 -207q-74 -203 -104 -428l-4 -33q2 -81 2 -152q0 -107 -4 -192q0 -20 -4 -67q-2 -61 -6 -113v-4q0 -4 -5 -10q-2 -6 -6 -10q-14 -16 -37 -13q-14 4 -22 21q-2 2 -4 6z" />
<glyph unicode="N" d="M180 25q2 45 8 188l7 201q2 57 5 182t3 201v182q0 106 -4 200.5t-11 186.5q0 14 9.5 25.5t25 12.5t26.5 -8.5t13 -25.5q6 -94 10 -194q80 131 195 198q80 45 154 45q27 0 53 -6q113 -25 188 -153q90 -158 90 -435q0 -68 -10 -225.5t-12 -208.5q0 -14 -3 -69.5t-3 -80 t4 -63.5t14 -67q20 -59 53 -80q25 -18 58 -11q35 6 70.5 36t62.5 73q8 14 22.5 17.5t27.5 -4.5q13 -10 16 -24q1 -4 1 -7q0 -10 -6 -19q-33 -53 -80 -93t-98 -52q-16 -3 -32 -3q-45 0 -83 26q-52 34 -82 116q-12 33 -17 80t-5 75.5t3 86t3 67.5q2 51 12 211q10 137 11 219 q0 258 -82 398q-57 102 -140 118q-19 4 -38 4q-55 0 -115 -34q-80 -47 -143.5 -135.5t-81.5 -178.5q-3 -2 -3 -4q0 -309 -22 -973q0 -14 -11.5 -24t-26.5 -10t-25.5 11t-10.5 28z" />
<glyph unicode="O" horiz-adv-x="1019" d="M55 666q6 250 78 462q78 231 199 299q14 6 24.5 12.5t18.5 9.5t16 7t13.5 6t15.5 4t14 3t17.5 4.5t19.5 5.5h14q10 1 20 1q91 0 169 -98q70 -90 110 -229q55 -188 58 -369v-17q0 -99 -21 -220q-20 -133 -63 -250q-49 -129 -121 -205q45 -27 90 -43q64 -23 120 -23 q124 0 214 109q10 10 25.5 12.5t26.5 -7.5t13 -26v-6q0 -12 -8 -22q-59 -68 -131 -102q-70 -33 -137 -32h-4q-70 1 -144 28q-61 23 -124 63q-74 -50 -162 -50q-12 0 -25 1q-180 14 -268 227q-68 165 -68 405v40zM129 664v-41q0 -224 61 -373q72 -172 205 -182q12 -1 24 -1 q50 0 93 23q-92 72 -162 166q-94 129 -130 307q-24 121 -24 237q0 55 5 109q16 168 71 324q12 35 29 67q-55 -72 -98 -196q-68 -201 -74 -440zM274 903q-5 -49 -5 -98q0 -111 24 -223q33 -162 119 -281q71 -98 161 -166q68 63 115 189q41 109 60.5 235.5t19.5 224.5 q-2 170 -53 349q-37 125 -101 202q-54 70 -111 70q-23 0 -48 -12q-29 -14 -64 -78q-29 -47 -49 -107q-52 -145 -68 -305z" />
<glyph unicode="P" horiz-adv-x="901" d="M-18 1268q4 14 16 22q6 2 41 22.5t45 26.5l41 21q31 16 47 22.5t43 17.5t51 17l51 13q90 17 167 17q177 0 280 -89q68 -57 92 -144q13 -47 12 -97q0 -41 -8 -83q-35 -193 -209 -349.5t-426 -182.5q4 -172 11 -479q0 -14 -10.5 -25.5t-26 -11.5t-26.5 10t-11 27 q-11 500 -11 857q0 238 5 412q-20 -10 -121 -67q-14 -6 -28.5 -2t-22.5 17q-5 8 -4 17q0 6 2 11zM225 575q225 25 379 166q154 139 184 308q7 38 7 72q0 113 -78 182q-83 70 -229 70q-72 0 -158 -17q-51 -8 -103 -31q2 -6 2 -14q-5 -213 -6 -469q1 -128 2 -267z" />
<glyph unicode="Q" horiz-adv-x="1122" d="M211 326q-36 140 -36 284q0 286 140 586l4 8q12 29 27 56l8 14q4 6 8 10q100 154 238 154h10q86 -4 158 -71t113 -183q51 -141 75 -312q15 -101 15 -206q0 -75 -7 -153q-18 -187 -90 -312q-23 -37 -47 -68q55 -59 123 -84q44 -21 93 -21q31 0 65 8q86 23 156 107 q10 12 25.5 14.5t26.5 -7.5q13 -13 13 -31q0 -12 -8 -21q-84 -102 -193 -132q-45 -12 -87 -12q-61 0 -117 26q-82 32 -150 100q-96 -81 -206 -81q-33 0 -68 7q-102 25 -180 109t-109 211zM281 342q29 -106 92 -176t143 -88q26 -6 52 -6q85 0 159 65q-53 74 -78 164 q-4 14 3 27.5t21.5 17.5t28 -3t17.5 -21q20 -70 59 -129q16 20 31 45q66 113 82 284q6 70 6 139q0 101 -13 199q-24 164 -73 299q-35 100 -90 150.5t-115 54.5h-6q-107 0 -188 -139q-163 -319 -163 -619q0 -134 32 -264z" />
<glyph unicode="R" horiz-adv-x="1236" d="M-15 1298q5 14 17 21l129 61q43 18 119 41t145 29q47 4 90 4q207 0 312 -100q78 -76 79 -181q0 -52 -20 -112q-31 -102 -114 -195.5t-199 -154.5q141 -16 235 -107q57 -59 80 -184q6 -37 12 -105q8 -76 13 -102q16 -109 53 -156q41 -52 126 -51h19q63 4 101 31 q37 29 96 100q10 12 25.5 14.5t26.5 -7.5q12 -10 14 -26v-6q0 -12 -9 -20q-33 -41 -50 -60.5t-49 -46t-69 -39t-82 -14.5h-18q-126 0 -188 80q-51 61 -70 191q-4 29 -10 104l-13 101q-18 102 -61 143q-92 91 -249 91q-107 0 -243 -42q2 -207 11 -575q0 -14 -10.5 -25.5 t-25.5 -11.5t-26.5 10t-11.5 27q-11 505 -11 868q0 242 5 420q-43 -18 -129 -60q-14 -6 -29 -1q-14 4 -20 18q-3 7 -3 16q0 5 2 12zM231 698q209 16 361 129q152 115 194 254q15 46 15 86q0 78 -56 133q-80 80 -257 80q-40 0 -85 -4q-82 -8 -165 -35q-7 -236 -8 -516 q1 -63 1 -127z" />
<glyph unicode="S" horiz-adv-x="1003" d="M6 174q-2 10 -2 21q0 23 8 45q12 34 43 59q36 25 86 25q68 0 162 -45q53 -25 139 -76l140 -84l8 8q39 41 50 79q7 25 7 56q0 17 -2 37q-18 166 -129 315q-27 39 -117 140q-88 98 -125 153q-77 115 -77 226q0 85 45 167q55 98 186 132q45 12 86 12q79 0 141 -45 q89 -65 135 -187q34 -89 34 -171q0 -30 -5 -58q-2 -14 -14 -23.5t-27.5 -7.5t-25 14.5t-7.5 28.5q4 23 4 47q-1 66 -29 142q-38 104 -110 153q-43 32 -101 32q-31 0 -65 -9q-98 -25 -137 -96q-35 -64 -35 -130q0 -90 64 -186q37 -53 119 -145q98 -111 123 -144 q121 -166 141 -352q2 -19 2 -37q0 -109 -72 -188q123 -63 205 -70h11q113 0 175 119q6 14 21.5 18.5t29 -2t17.5 -21.5q2 -6 2 -12q0 -9 -4 -16q-83 -160 -236 -160q-10 0 -20 1q-104 8 -260 92q-96 -72 -215 -86q-25 -3 -50 -3q-90 0 -173 40q-35 16 -70 52t-55 77 q-15 33 -21 63zM92 145q16 -31 43 -58.5t49 -39.5q65 -31 137 -31q15 0 30 2q89 8 167 54l-115 67q-84 49 -131 74q-79 37 -127 37q-28 0 -45 -12q-23 -16 -22 -43q-1 -21 14 -50z" />
<glyph unicode="T" horiz-adv-x="1093" d="M136 1314q5 14 19.5 19.5t28.5 1.5q83 -30 177 -29h35q114 6 216 46q10 4 84 45q33 18 49 24q10 6 19 11q6 2 10 2q6 2 12 2t11 -2q31 -8 32 -45q0 -14 -4 -35q-2 -12 -8 -34t-8 -32q-37 -158 -45 -389v-16q0 -59 12 -172q20 -168 25 -230q2 -42 3 -80q0 -236 -97 -327 l-2 -4q43 -14 83 -21q31 -5 62 -5q146 0 289 106q12 10 27.5 8t24.5 -14q7 -10 7 -23v-5q-2 -16 -14 -24q-164 -122 -335 -122q-35 0 -71 5q-76 10 -147 45q-88 -43 -183 -43q-56 0 -114 15q-98 27 -144 86q-29 40 -29 84q0 39 23 82q31 56 92 56q26 0 58 -11 q59 -18 115 -66q94 -76 178 -121q16 12 30 25q73 69 73 270q0 37 -3 80q-4 57 -22 225q-15 136 -15 191v6q8 242 45 406q4 10 10 34l-12 -8q-78 -41 -96 -49q-113 -43 -238 -50q-18 -1 -36 -1q-106 0 -207 35q-14 6 -20 20q-3 7 -2 15q0 6 2 13zM250 123q29 -41 102 -60 q46 -11 91 -11q51 0 100 14q-68 41 -140 100q-47 37 -92 53q-16 5 -29 5q-23 0 -32 -17q-14 -24 -14 -45t14 -39z" />
<glyph unicode="U" horiz-adv-x="1056" d="M68 588q-5 83 -5 169q0 137 12 279q19 232 46 363q5 15 17 23q9 6 18 6q4 0 9 -2q15 -4 23.5 -16t6.5 -28q-27 -125 -47 -353q-12 -141 -12 -275q0 -82 5 -162q16 -262 80 -406q71 -155 196 -155h5q68 2 133 108q57 94 109 275q61 221 102 540q6 39 10 90q4 70 12 140 q6 78 9 94q2 18 8 57q4 14 4 23l2 2v6q2 2 4 6q2 2 4 6q10 8 23 11q18 4 32 -13q4 -6 7 -12q2 -4 2 -8v-8v-7q-12 -80 -21 -165q-2 -10 -2 -21l-10 -115q-16 -204 -16 -429q0 -135 6 -277q8 -193 69 -252q22 -21 51 -21q8 0 17 2q55 12 131 80q10 10 25.5 10.5t25.5 -11 t10 -27t-12 -25.5q-90 -82 -166 -98q-18 -4 -35 -4q-56 0 -98 41q-84 80 -92 301q-4 84 -4 166q-12 -53 -27 -101q-51 -186 -117 -295q-86 -141 -196 -143h-3q-173 0 -263 199q-72 160 -88 432z" />
<glyph unicode="V" horiz-adv-x="819" d="M-53 859q0 15 10.5 26.5t24.5 11.5h20h6q4 0 8 -2q12 0 17 2q16 4 35 25q4 121 14 190q2 4 8 64q6 53 12 88q12 55 29 90q25 49 66 63q25 8 50 -4t36 -37q10 -25 9 -62q0 -33 -7 -75q-12 -76 -47 -166q-35 -92 -78 -153q-10 -14 -19 -25q-1 -36 -1 -72q0 -206 30 -381 q37 -213 109 -323q63 -96 151 -97q19 0 39 5q84 16 149 184q57 154 91 412q27 213 29 451q0 36 1 69q0 182 -12 250q-2 14 7 27q8 12 24 14h6q12 0 22 -8q12 -10 15 -25q12 -69 12 -246q0 -38 -1 -81q-3 -243 -30 -462q-33 -262 -96 -428q-78 -205 -201 -231q-28 -6 -55 -6 q-127 0 -213 131q-80 121 -119 352q-31 182 -32 401l-9 -4q-18 -6 -43 -6q-2 0 -16 2h-12q-16 0 -27.5 10.5t-11.5 25.5zM150 1055q10 20 18 45q33 80 45 151q6 39 6 66q0 16 -2 29q-10 -6 -20 -25q-12 -27 -21 -72q-8 -33 -12 -82q-8 -61 -8 -67q-4 -18 -6 -45zM215 1348h2 l-2 2v-2z" />
<glyph unicode="W" horiz-adv-x="1339" d="M-10 858q0 14 11 25.5t26 11.5q23 0 47 12q2 115 10 187q18 160 27 192q39 154 137 162h9q44 0 71 -35q23 -29 26 -80q1 -11 1 -22q0 -79 -38 -183q-43 -123 -112 -204q-27 -35 -58 -58q0 -176 17 -331q20 -180 61 -295q45 -127 107 -156q22 -9 43 -10q81 0 160 135 q70 121 110 283q-4 41 -6 79q-3 56 -3 97q0 20 1 37q0 43 6 67q2 16 8 29q8 20 29 28q16 6 32.5 0t24.5 -20t11 -37q0 -8 -3 -57q-6 -143 -24 -226l-2 -2q14 -135 49 -233q64 -180 180 -180h8q115 4 181 157q61 143 77 387q5 83 5 168q0 126 -11 258q-18 220 -45 334 q-4 14 3.5 27.5t22.5 16.5t28.5 -4t15.5 -23q31 -119 49 -345q11 -135 11 -265q0 -87 -5 -171q-18 -258 -84 -411q-84 -197 -243 -203h-12q-169 0 -251 229q-16 47 -28 99q-33 -88 -72 -156q-99 -173 -216 -173q-38 0 -79 19q-92 41 -147 197q-43 121 -64 311 q-16 147 -18 301q-23 -6 -47 -6q-14 0 -25.5 11.5t-11.5 25.5zM150 971q61 72 100 182q32 89 32 155q0 11 -1 21q-2 29 -11 41q-4 4 -10 4h-4q-49 -4 -74 -106q-8 -29 -24 -183q-6 -44 -8 -114z" />
<glyph unicode="X" horiz-adv-x="1171" d="M122 -24q-1 4 -1 9q0 11 6 19q47 82 113 232q88 203 106 241l60 127q-127 354 -189 801q-2 14 7 27q8 12 24 14h6q12 0 22 -7q12 -9 15 -26q51 -379 160 -713q190 403 309 715q6 12 20.5 18.5t27.5 1.5t19.5 -19.5t1.5 -29.5q-129 -332 -344 -786q33 -86 66 -160 q129 -274 280 -358q64 -35 132 -35q118 0 251 103q12 10 28 8q14 -2 24 -14q8 -10 8 -23v-5q-2 -16 -14 -24q-153 -120 -294 -120q-88 0 -171 46q-172 96 -310 392q-23 47 -43 98l-30 -64l-105 -237q-63 -150 -119 -240q-6 -14 -21 -17q-4 -1 -9 -1q-10 0 -20 5 q-14 6 -16 22z" />
<glyph unicode="Y" horiz-adv-x="929" d="M43 684q-10 78 -10 192q0 196 30 498q2 14 13.5 24.5t27 8.5t25.5 -13.5t8 -27.5q-30 -295 -30 -487q0 -111 10 -187q20 -160 82 -270q39 -66 84 -90q27 -15 58 -15q25 0 53 9q61 22 110 151q45 119 71 314q16 121 27 262q6 152 6 282v8v35q0 16 10.5 27.5t25.5 11.5 t26.5 -10t11.5 -25q1 -36 1 -76q0 -118 -9 -264q-6 -125 -19 -307q-33 -473 -37 -585h3q109 0 401 -21q16 -2 26 -13q8 -11 8 -24q0 -17 -12 -28q-12 -9 -26 -9q-291 20 -397 21h-3v-51q0 -86 -4 -144q-16 -190 -104 -264q-34 -28 -74 -28q-37 0 -78 24q-68 37 -122 121 q-55 86 -68 172q-3 20 -3 38q0 79 48 132q41 45 166 63q70 8 166 11q4 117 14 268q-57 -133 -141 -162q-40 -14 -78 -14q-49 0 -94 24q-63 37 -111 121q-70 121 -92 297zM242 -84q8 -70 55 -141q45 -70 96 -99q22 -13 40 -13q16 0 28 11q66 53 80 213q4 55 4 138v51 q-90 -2 -156 -10q-98 -12 -123 -39q-27 -30 -27 -78q0 -16 3 -33z" />
<glyph unicode="Z" horiz-adv-x="1097" d="M135 51q2 6 6 12q2 4 13 19q29 35 51 72q70 109 155 272q281 535 396 713q61 94 170 241v2h-72q-70 -2 -225 -4q-282 -6 -371 -6h-33q-14 0 -24.5 12.5t-10.5 26.5t12.5 24.5t26.5 10.5h32q88 0 368 6q156 2 225 4h78q16 -2 26 -2q14 -2 23 -4q16 -8 27 -20q12 -16 8 -41 q-4 -16 -33 -54q-106 -143 -166 -237q-27 -41 -53 -88l-49 -82q-23 -35 -53 -92l-48 -82l-51 -95l-43 -86l-49 -94l-45 -86q-88 -168 -160 -280q37 8 78 8q21 0 43 -2q43 -4 109 -29q66 -27 92 -31q89 -19 175 -19q203 0 390 105q14 6 28.5 2t21.5 -17q4 -8 4 -17 q0 -5 -1 -11q-4 -14 -16 -22q-205 -114 -428 -114q-94 0 -191 20q-31 8 -102 34q-55 23 -90 25q-18 2 -36 2q-61 0 -112 -22q-2 0 -2 -2q-6 -4 -14 -11q-20 -15 -38 -15q-14 0 -27 9q-18 11 -18 29q0 8 3 16z" />
<glyph unicode="[" horiz-adv-x="555" d="M27 1329q2 45 4 72q2 16 4 24q6 20 18 31l17 8h6q4 2 12 2q14 2 41 4q37 4 125 13q217 20 219 20q16 2 28.5 -7t14.5 -24.5t-7.5 -27.5t-23.5 -14q-31 -4 -225 -21q-88 -8 -123 -12q-20 0 -33 -2v-2q-2 -23 -4 -66q0 -74 2 -201q6 -166 15 -329q2 -18 6 -467 q2 -195 4 -289q0 -61 2 -94v-19q2 -2 6 -2q14 -6 41 -10q47 -8 133 -10q72 -2 97 -2q37 0 86 1t57 1q14 0 25.5 -11.5t11.5 -25.5t-11.5 -25.5t-25.5 -11.5h-244q-86 2 -139 12q-35 4 -55 13q-33 10 -45 28l-9 17v6q0 2 -2 8v29q-2 33 -2 94q-2 94 -4 289q-4 449 -6 465 q-8 164 -14 331q-2 129 -2 205z" />
<glyph unicode="\" horiz-adv-x="888" d="M53 1372q-4 14 1 28.5t19.5 19.5t29 0t20.5 -19q305 -733 741 -1352q8 -12 5 -26.5t-15 -23.5t-26.5 -6t-24.5 15q-440 625 -750 1364z" />
<glyph unicode="]" horiz-adv-x="669" d="M47 1457.5q0 15.5 10.5 26.5t24.5 11q242 8 244 8q88 0 141 -6q35 -4 55 -10q33 -10 47 -29l9 -14v-6q0 -4 2 -8q0 -10 2 -29l6 -94q4 -86 14 -289q23 -440 25 -463q14 -143 26 -332q8 -127 11 -205q0 -45 -2 -71q0 -16 -3 -27q-4 -20 -16 -31q-6 -4 -12 -6q-2 0 -4 -1 t-6 -1q-4 -2 -13 -2l-41 -6l-125 -16q-190 -25 -219 -31q-14 -2 -26.5 6t-15.5 23.5t5.5 28t24.5 16.5q14 2 223 30l123 17q18 2 31 4v2q2 23 2 65q-2 74 -10 201q-12 186 -27 328q-2 20 -25 467q-10 205 -14 289l-6 92q-2 12 -2 20h-4q-16 6 -43 8q-51 6 -133 7l-240 -9 q-16 0 -27.5 10.5t-11.5 26z" />
<glyph unicode="^" horiz-adv-x="536" d="M40 1225.5q-1 15.5 7 27.5l111 127q41 47 67 74q18 16 31 25q8 6 16 8q14 6 29 4l14 -8l4 -4h3l2 -4l8 -9l22 -30l68 -90l121 -160q10 -12 8 -26.5t-14.5 -25t-26.5 -8.5t-25 15q-14 16 -120 159l-70 91l-10 16l-9 -8q-25 -23 -65 -68l-107 -127q-10 -10 -25.5 -11 t-26.5 8t-12 24.5z" />
<glyph unicode="_" horiz-adv-x="757" d="M65.5 -214q2.5 15 15 24.5t28.5 7.5q193 -29 647 41q16 2 28.5 -7.5t14.5 -24.5t-7.5 -27.5t-23.5 -14.5q-471 -70 -672 -41q-14 2 -23.5 14.5t-7 27.5z" />
<glyph unicode="`" horiz-adv-x="278" d="M45 1508.5q0 15.5 11.5 25.5t27 10t25.5 -12q27 -27 67 -82q43 -55 64 -78q10 -12 10 -26.5t-12.5 -24.5t-26.5 -10t-25 12q-16 18 -67 82l-64 78q-10 10 -10 25.5z" />
<glyph unicode="a" horiz-adv-x="753" d="M16 238q-14 74 -14 155q0 105 23 221q39 209 127 320q51 63 112 82q21 5 41 6q49 0 98 -31q103 -62 123 -246q14 -4 21 -18l4 -10q2 -4 2 -8v-27q0 -43 -2 -68q-6 -90 -10 -129l-4 -32q0 -66 4 -119q23 -225 135 -266q11 -4 23 -4q24 0 51 16q41 23 67 61q8 12 23.5 15.5 t28 -5t15.5 -23.5q1 -4 1 -8q0 -11 -6 -20q-37 -53 -93 -84q-46 -27 -87 -27q-24 0 -48 9q-127 47 -170 235q-12 -39 -26 -73q-47 -100 -107 -148q-50 -38 -105 -38q-33 0 -69 14q-121 49 -158 250zM90 252q29 -162 113 -195q21 -9 40 -9q31 0 60 22q45 37 84 120 q51 113 76 269q0 90 12 231q-18 9 -20 29q-14 166 -88 211q-30 18 -59 18q-12 0 -23 -4q-39 -10 -76 -55q-76 -99 -113 -289q-20 -104 -21 -197q1 -79 15 -151z" />
<glyph unicode="b" horiz-adv-x="876" d="M-10 1016q2 176 6 205q10 76 33 116q14 29 39 43q18 10 38 10q12 0 25 -4q23 -6 35 -30q8 -14 14 -39q10 -33 19 -94q12 -88 14 -154q2 -38 2 -79q0 -61 -4 -128q114 119 226 119q33 0 65 -10q76 -25 131 -100.5t84 -180.5q29 -104 29 -203q0 -112 -37 -217 q-43 -121 -127 -194q47 -18 114 -25q15 -1 30 -1q51 0 89 16q49 22 100 73q10 12 25.5 12.5t27 -10t11.5 -26t-10 -25.5q-61 -66 -126 -92q-53 -22 -120 -22q-15 0 -31 1q-110 9 -180 52q-49 -25 -109 -37q-43 -9 -82 -9q-103 0 -180 60v-14q0 -14 -11 -25.5t-25.5 -11.5 t-25.5 11t-11 26v26q-2 29 -20.5 182.5t-25 209t-16.5 174t-14 210.5q-3 56 -3 120q0 31 1 65zM63 1016v-26q0 -228 33 -546l13 107q32 273 32 442q0 39 -2 72q-2 66 -14 147q-6 53 -14 84q-4 10 -7 17q4 0 7 4q-2 -4 -7 -2v2q-2 2 -2 4l-2 -2q0 -2 2 -4q-4 -4 -10 -12 q-14 -29 -22 -93q-4 -33 -7 -194zM102 1315q0 -2 2 -2v2v2zM143 145q6 -10 15 -20q68 -66 165 -67q32 0 68 8q31 6 60 16q-10 10 -21 24q-10 10 -33.5 43t-35 46.5t-37 34t-54.5 34.5q-27 11 -50 11q-10 0 -20 -2q-30 -7 -48 -31q-4 -51 -9 -97zM160 338q30 13 61 13 q40 0 82 -21q35 -16 66.5 -43t46 -43.5t41 -51t30.5 -40.5q15 -19 29 -33q82 61 123 176q32 94 32 193q0 90 -26 184q-25 90 -70 151q-43 59 -96 78q-20 6 -42 6q-110 0 -234 -170q-6 -68 -21 -194q-18 -158 -22 -205z" />
<glyph unicode="c" horiz-adv-x="729" d="M22 272q-23 79 -22 170q0 122 41 265q23 74 71 152.5t107 123.5q54 41 106 41q23 0 46 -8q78 -27 127 -152q4 -12 -2.5 -26.5t-19.5 -19.5t-27.5 1.5t-22.5 20.5q-35 92 -80 106q-9 3 -18 3q-27 1 -63 -25q-48 -34 -91 -104t-63 -134q-38 -126 -38 -232q0 -24 2 -48 q11 -124 59 -207.5t120 -124.5q52 -29 110 -30h5q55 0 115 26q62 28 125 99t114 177q6 14 20.5 19.5t27.5 -1t19 -20.5q2 -6 2 -12q0 -8 -4 -15q-51 -117 -121.5 -197.5t-146.5 -115.5q-74 -34 -150 -34h-4q-78 1 -149 40q-141 78 -195 262z" />
<glyph unicode="d" horiz-adv-x="888" d="M39 215q-19 85 -19 177q0 135 41 286q31 117 78 194q57 92 125 111q18 5 35 5q62 0 119 -64q28 -31 55 -78q2 111 14 215q0 6 2.5 26.5t4.5 34.5q6 55 16 97q12 61 33 98q29 55 73 69q15 5 29 5q21 0 39 -11q25 -14 39 -49q20 -43 22 -129q1 -21 1 -44v-24q-1 -38 -4 -65 t-5 -51.5t-2 -26.5q-20 -311 -92 -569q-16 -57 -33 -109q37 -111 88 -180q53 -72 115 -80q6 -1 13 0q67 0 149 76q10 10 25.5 10t25.5 -11t10 -26.5t-12 -25.5q-102 -95 -197 -95q-11 0 -22 1q-92 10 -166 108q-39 49 -70 123q-23 -47 -47 -86q-90 -139 -209 -152 q-13 -1 -26 -1q-94 0 -158 65q-63 61 -90 176zM111 231q23 -94 69 -141q42 -42 104 -42q10 0 21 1q84 8 156 117q39 61 71 149q-29 90 -40 181q-10 76 -15 149q-2 2 -2 4q-53 160 -113 225q-34 39 -66 39q-8 0 -14 -2q-38 -10 -79 -77q-43 -68 -72 -175q-37 -141 -37 -266 q0 -85 17 -162zM561 1053q-17 -129 -17 -258q0 -145 21 -291l8 -55q68 248 89 546q0 4 3 30t5 50.5t3 58.5v23q0 22 -1 43q-2 70 -17 103q-4 12 -10 14q0 1 -2 1t-6 -1q-14 -6 -29 -33q-16 -31 -26 -80q-8 -39 -15 -90q-2 -14 -4 -35.5t-2 -25.5z" />
<glyph unicode="e" horiz-adv-x="591" d="M10 527q14 173 78 309q37 76 86 122q53 49 105 50q63 0 94 -68q20 -46 19 -120q0 -21 -1 -44q-18 -278 -215 -645q66 -66 172 -80q23 -3 46 -3l114 18q80 24 137 77q10 10 25.5 10.5t26 -11t10.5 -27t-13 -25.5q-68 -66 -164 -94q-66 -20 -132 -20l-60 4q-100 12 -180 69 q-80 59 -115 160q-37 113 -37 242q1 37 4 76zM82 521q-3 -36 -3 -70q0 -118 34 -218q6 -18 14 -34q174 328 190 581q1 22 1 41q0 57 -13 88q-12 25 -26 25q-23 0 -56 -29q-39 -37 -69 -102q-60 -123 -72 -282z" />
<glyph unicode="f" horiz-adv-x="555" d="M10 -82q0 14 1 30.5t1 26.5v17q0 242 45 547q29 197 70 313q25 72 53 113q39 51 88 57q7 1 14 1q51 0 85 -40q27 -33 34 -90q6 -35 6 -76t-6 -88q-18 -141 -67 -299q-31 -96 -66 -162q-43 -80 -90 -110q-4 -4 -10 -6l16 -9q27 -16 43 -32q53 -25 92 -37q23 -6 49 -6 q97 0 234 84q12 8 26.5 5t22.5 -17q6 -9 6 -20q0 -4 -1 -8q-3 -14 -17 -22q-153 -95 -270 -95q-37 0 -70 9l-6 2q15 -64 15 -131q0 -52 -9 -106q-16 -94 -59 -140q-38 -41 -89 -41q-29 0 -61 13q-43 18 -63 86q-12 45 -17 116q-1 25 -1 53.5t1 61.5zM84 -84q-1 -32 -1 -59.5 t1 -51.5q4 -61 14 -98q10 -33 21 -37q18 -7 32 -7q21 0 35 15q29 31 41 103q6 46 6 90q0 27 -2 53q-6 68 -20 96q-9 15 -25 29l-59 35l-37 22q-4 -74 -4 -114v-17q0 -12 -1 -29.5t-1 -29.5zM96 201q25 8 41 18q33 20 66 84q31 57 59 150q49 154 66 284q6 48 6 87q0 31 -4 57 q-6 39 -21 57q-10 10 -27 10h-6q-16 -2 -36 -28q-23 -31 -43 -93q-39 -109 -68 -301q-21 -147 -33 -325z" />
<glyph unicode="g" horiz-adv-x="737" d="M-2 344q2 195 92 387q94 203 215 248q31 12 62 12q42 0 82 -24q66 -41 116 -148q12 -27 -8 -45q12 -4 21 -14q2 -4 4 -10q2 -2 2 -5v-10q0 -18 2 -142t3 -217v-28q0 -87 -5 -219q0 -31 -2 -59q63 29 209 77q14 4 28.5 -2t18.5 -20q2 -5 2 -11q0 -9 -4 -18q-7 -14 -21 -18 q-168 -57 -240 -90q-10 -121 -28 -203q-18 -76 -43 -121q-33 -59 -82 -72q-18 -4 -35 -4q-38 0 -68 19q-37 25 -51 76q-8 30 -8 60q0 55 27 107q51 100 219 185l4 96q4 70 4 148q-33 -84 -74 -146q-61 -94 -133 -127q-35 -16 -71 -16q-55 0 -111 39q-127 87 -127 308v7z M72 344v-8q0 -181 94 -246q37 -25 71 -25q22 0 42 9q51 23 100 98q43 68 74.5 154t42.5 147q6 27 8 60.5t2 77.5t2 69q0 8 2 41v18v2v2q0 2 2 5q0 4 2 6q2 8 8 14q-16 4 -22 18q-41 88 -90 117q-21 13 -44 13q-17 0 -34 -7q-94 -35 -176 -209q-82 -178 -84 -356zM340 -299 q6 -23 20 -33q9 -6 22 -6q11 0 24 4q16 2 32 33q20 37 35 102q15 62 25 148q-111 -63 -146 -131q-18 -36 -18 -73q0 -22 6 -44z" />
<glyph unicode="h" horiz-adv-x="989" d="M-3 810q-3 67 -3 121q0 77 6 128q8 145 25 223q16 86 45 125q23 33 53 39q8 2 15 2q26 0 52 -21q35 -25 52 -90q12 -47 16 -116q4 -38 4 -103q0 -43 -2 -98q-2 -100 -16 -209q43 70 98 113t137 53q12 1 22 2q104 0 158 -121q37 -90 48 -266q4 -59 6 -170t2 -123 q4 -150 22 -193q37 -75 112 -75q11 0 23 2q45 6 86 32.5t70 67.5q8 14 22.5 17.5t28 -5t16.5 -22.5q1 -4 1 -8q0 -10 -6 -19q-33 -55 -89.5 -92t-117.5 -45q-14 -2 -29 -2q-50 1 -94 23q-58 28 -88 98q-27 55 -31 219q0 12 -2 121.5t-6 169.5q-8 164 -43 241q-32 75 -91 75 q-6 0 -12 -1q-63 -6 -104 -41t-84 -100l-33 -66q-16 -33 -37 -82l-28 -69l-6 -23q-57 -319 -66 -450v-2q0 -6 -2 -11v-22q0 -14 -11.5 -24.5t-26.5 -10.5t-26.5 11.5t-11.5 26.5t2 32q-6 82 -21.5 243.5t-21.5 246.5t-13 248zM72 1055q-4 -66 -5 -145q0 -207 31 -500l27 125 q70 332 74 485q1 43 1 79q0 72 -3 115q-6 63 -17.5 104.5t-25.5 51.5l-11 4q-4 -4 -6 -8q-23 -27 -39 -98q-16 -70 -26 -213z" />
<glyph unicode="i" horiz-adv-x="352" d="M25 472q4 120 9 199t14 173t11 117q0 16 13.5 25t29 9t24.5 -12.5t9 -26.5q-2 -27 -11 -121t-14.5 -169.5t-9.5 -192.5q-1 -33 -1 -63q0 -74 7 -125q16 -186 82 -232q19 -13 45 -13q72 0 191 103q14 10 29.5 8.5t25.5 -13.5q8 -10 8 -21v-5q-2 -16 -12 -26 q-142 -118 -243 -118q-48 0 -87 26q-94 63 -114 285q-7 53 -7 129q0 30 1 64zM70 1233q0 14 11 25.5t25.5 11.5t25.5 -11.5t11 -25.5t-11 -25.5t-25.5 -11.5t-25.5 11.5t-11 25.5z" />
<glyph unicode="j" horiz-adv-x="227" d="M-186 -322q-17 34 -17 68q0 47 31 94q25 37 92 86q51 39 127 84q5 205 5 407q0 270 -9 533q0 16 10 27.5t25.5 11.5t27 -10.5t11.5 -24.5q8 -258 8 -521q0 -189 -4 -380q115 66 194 101q12 6 26.5 1t20.5 -19q4 -7 4 -14t-2 -14q-6 -14 -20 -20q-94 -43 -225 -121v-22 q-4 -131 -17 -183q-33 -129 -137 -151q-17 -3 -33 -3q-32 0 -58 12q-40 20 -60 58zM-121 -289q15 -29 49 -29q10 0 21 3q61 12 82 94q12 47 14 143q-45 -29 -80 -53q-59 -43 -76 -70q-18 -27 -18 -53q0 -18 8 -35zM49 1233q0 14 11.5 25.5t25.5 11.5t25.5 -11.5t11.5 -25.5 t-11.5 -25.5t-25.5 -11.5t-25.5 11.5t-11.5 25.5z" />
<glyph unicode="k" horiz-adv-x="739" d="M6 981q4 145 12 225q6 86 17 137q6 33 14 52q12 33 33 43q17 9 32 9q17 0 33 -11q20 -14 33 -47q18 -41 25 -121q4 -51 4 -207q0 -213 -8 -363q51 117 110 187q78 90 172 90q59 0 94 -34t48 -85q9 -36 10 -71q0 -53 -21 -107q-49 -129 -159 -236q-113 -109 -232 -118 q-12 0 -30 2q16 -23 40 -54q74 -88 105 -108q139 -102 229 -113q11 -1 21 -1q98 0 196 100q12 10 26.5 10t26 -11.5t11.5 -25.5t-10 -27q-122 -120 -252 -120q-14 0 -27 1q-111 12 -266 125q-35 27 -115 123l-24 29l-15 -111q-10 -78 -14 -96v-6q-2 -2 -2 -6v-6 q0 -16 -10.5 -27.5t-25.5 -11.5t-26.5 10t-11.5 25q-2 31 -35 469q-11 149 -11 316q0 83 3 171zM80 977q-3 -87 -3 -169q0 -164 11 -308q2 -39 8 -115q39 262 39 676q0 156 -4 201q-6 65 -16 96q-4 -12 -9 -29q-8 -47 -14 -129q-8 -76 -12 -223zM180 403h4q33 -6 35 -6 q90 6 187 99q98 94 139 206q17 43 17 84q0 26 -7 52q-16 63 -72 63q-59 0 -116 -65q-53 -61 -101 -174q-45 -103 -86 -259z" />
<glyph unicode="l" horiz-adv-x="409" d="M-37 782q6 305 88 539q16 47 31 68q23 31 53 34h7q33 0 63 -32q23 -29 33 -95q6 -53 6 -135q0 -143 -23 -362q-20 -186 -49 -364.5t-49 -239.5q0 -5 -2 -7q51 -113 125 -151q28 -15 55 -15q19 0 37 7q57 20 113 100q8 12 23 15t28 -5q12 -7 15 -23q1 -4 1 -9 q0 -11 -6 -19q-68 -100 -147 -129q-32 -12 -64 -12q-45 0 -90 24q-63 33 -112.5 107t-73.5 162q-63 212 -63 480q0 31 1 62zM38 820q-2 -48 -2 -95q0 -217 42 -399q41 213 69 481q23 215 23 354q0 78 -6 125q-6 45 -17 55q-2 5 -4 7q0 -2 -2 -2q-8 -12 -20 -50 q-72 -203 -83 -476z" />
<glyph unicode="m" horiz-adv-x="1288" d="M-10 954q0 16 10 27.5t25.5 11.5t26.5 -10.5t11 -24.5q2 -43 11.5 -151.5t11.5 -167.5v-18q49 162 115 253q79 111 173 111q19 0 38 -4q68 -16 114 -104q33 -66 56 -172q12 -51 20 -115q31 154 82 246q66 123 162 133q10 1 19 1q107 0 157 -128q37 -94 45 -281 q2 -43 4 -303q2 -152 16 -188q12 -34 41 -44q11 -4 24 -4q20 0 44 9q41 12 76 40.5t45 57.5q6 14 20.5 19.5t28.5 0t20 -19.5q3 -7 2 -15q0 -7 -2 -14q-18 -45 -65 -84t-102 -55q-34 -11 -65 -11q-25 0 -48 7q-61 18 -88 84q-18 51 -21 217q-4 289 -4 299q-6 174 -39 258 q-32 81 -89 81q-5 0 -11 -1q-59 -6 -106 -94q-43 -82 -74 -228q-39 -193 -43 -419v-29v-12v-11q0 -4 -2 -6q-6 -16 -21 -22q-18 -6 -37 6q-6 4 -10 12q-2 4 -2 8l-2 6v5v12v31q0 29 -2 67q-8 154 -8 164q-12 190 -37 305q-20 96 -49 152q-31 57 -66 65q-10 2 -21 2 q-59 0 -114 -78q-63 -88 -110 -260q-35 -127 -54 -266q4 -106 4 -170v-98q0 -8 -2 -14.5t-8 -12.5q-16 -20 -41 -12q-12 6 -18 16q-2 2 -2 6l-4 13q-12 46 -12 123q0 50 5 114q2 18 5 39q-2 72 -3 86l-2 58v4q-2 2 -2 4v2v4q0 23 -4 172q-2 57 -11 164.5t-11 150.5z" />
<glyph unicode="n" horiz-adv-x="876" d="M31 294q0 71 6 120q0 76 -2 262t-2 289q0 14 11 25t25.5 11t25.5 -11t11 -25q0 -102 3 -293q18 49 38 90q53 111 117 166q63 56 129 56q21 0 41 -5q123 -29 158 -203q18 -84 19 -284q0 -20 -1 -41v-58q0 -179 11 -243q18 -113 73 -117q13 -1 25 -2q115 0 199 100 q10 12 25 14t27 -8q11 -9 13 -25v-6q0 -12 -8 -20q-105 -129 -255 -129q-17 0 -34 2q-113 10 -139 178q-10 69 -10 252v64q1 34 1 66q0 164 -18 241q-27 129 -102 149q-10 2 -20 2q-41 0 -85 -39q-51 -45 -100 -143q-39 -80 -66.5 -172t-35.5 -149v-66q0 -23 1 -88.5 t1 -101.5q0 -14 -2 -80v-31v-4v-4v-4q-2 -2 -2 -4q-4 -12 -19 -21q-16 -8 -33 0q-8 4 -14 12q-2 6 -4 10.5t-2 6.5v12q0 10 -3 94t-3 155z" />
<glyph unicode="o" horiz-adv-x="784" d="M-12 558q26 184 106 308q94 143 228 144q6 0 12 -2q6 0 12 -2q14 4 27 -2q195 -90 254 -351q98 27 170 74q12 8 27.5 5t23.5 -15q6 -9 6 -19q0 -4 -1 -8q-3 -16 -15 -24q-84 -55 -199 -86q7 -51 7 -101q0 -57 -9 -112q-27 -199 -135 -306q-81 -80 -183 -80q-55 0 -116 23 q-137 53 -193 223q-32 95 -32 207q1 59 10 124zM59 549q-8 -58 -8 -111q0 -102 29 -188q45 -137 147 -176q46 -17 88 -17q76 0 136 58q90 88 114 262q7 51 7 103q0 43 -5 85q-47 -7 -89 -7q-111 0 -189 48q-63 36 -96 94q-31 54 -31 112v7q2 10 2 19l-8 -13 q-74 -111 -97 -276zM236 815v-6q0 -36 22 -73q24 -40 68 -68q62 -37 153 -37q36 0 76 6q-51 221 -209 299q-106 -31 -110 -121z" />
<glyph unicode="p" horiz-adv-x="751" d="M0 -131q-3 57 -3 133q0 101 5 236q0 49 4 106q2 37 5 112.5t5 114.5t4.5 100.5t2.5 98.5v82q0 43 -1.5 73.5t-5.5 53.5q-2 14 7.5 26.5t24.5 14.5h5q12 0 23 -8q12 -9 14 -25q6 -45 6 -134q0 -53 -2 -122q41 98 94 160q83 96 188 96h9q90 -2 158 -96q45 -61 73 -150 q22 -76 22 -156q0 -69 -16 -141q-36 -157 -126 -270q-66 -86 -146 -119q56 -11 114 -11q60 0 122 12q121 24 215 85q12 8 27.5 5t23.5 -15q6 -9 6 -19q0 -4 -1 -8q-3 -16 -15 -24q-143 -96 -332 -109q-19 -1 -38 -1q-168 0 -310 81q47 -154 49 -274v-14q0 -68 -18 -130 q-6 -25 -17 -41q-14 -25 -37 -32q-10 -3 -19 -3q-19 0 -36 13q-20 12 -41 43q-20 33 -33 102q-8 59 -10 154zM72 86q-1 -51 -1 -95q0 -67 2 -120q3 -88 11 -143.5t20 -73.5q7 -10 13 -16q4 6 6 16q14 49 14 108v15q-2 129 -65 309zM78 276l24 -61q79 -102 165 -102h7 q84 6 163 106t112 241q16 69 16 132q0 66 -18 125q-27 80 -64 131q-45 63 -98 65h-4q-76 0 -137 -71q-59 -70 -103 -197q-47 -141 -61 -305z" />
<glyph unicode="q" horiz-adv-x="897" d="M-8 397q-1 28 -1 55q0 132 25 228q27 100 78 182q74 113 162 127q19 3 37 3q100 0 170 -95q36 -53 63 -133q16 158 25 215q4 14 17 23q9 8 19 8q4 0 7 -1q14 -3 23.5 -15.5t7.5 -26.5q-20 -123 -52 -500q3 -45 3 -89q0 -58 -5 -112q31 -90 50 -149q66 -63 135 -82 q25 -7 47 -7q83 0 131 97q6 14 20.5 18t28.5 -2t19 -21q1 -5 1 -11q0 -8 -4 -17q-45 -90 -115 -120q-41 -17 -86 -17q-31 0 -63 8q-41 12 -84 37q24 -107 24 -195q0 -13 -1 -26q-4 -84 -23 -141q-8 -25 -18 -41q-14 -25 -39 -31q-8 -2 -17 -2q-19 0 -38 12q-18 14 -39 45 q-16 27 -23 96q-6 59 -6 152q0 84 4 192q-59 -55 -137 -69q-24 -5 -48 -5q-54 0 -107 23q-77 33 -128 109q-57 86 -63 278zM66 399q6 -172 51 -239q66 -98 169 -98h12q112 6 171 110q6 8 12 12q2 35 6 103l13 180q-4 92 -19 170q-27 143 -78 217q-47 63 -112 63 q-11 0 -23 -2q-57 -8 -110 -94q-47 -72 -72 -162q-21 -81 -21 -197q0 -30 1 -63zM545 -131q0 -90 4 -145q6 -51 12 -62q8 -12 14 -18q2 6 7 16q16 49 18 123v19q0 117 -45 274l-4 6q-6 -123 -6 -213z" />
<glyph unicode="r" horiz-adv-x="673" d="M8 977q-2 7 -2 13q0 16 14 26q4 6 13 10q8 4 17 4q6 0 12 -2q14 -4 20 -18q70 -139 199 -201q35 -16 79 -23h2q2 0 6.5 1t6.5 1q16 4 26 0q27 -6 35 -32q2 -9 2 -18q0 -22 -10 -50q-12 -39 -12 -43q-27 -160 -27 -268q0 -26 2 -49q12 -180 111 -265q29 -25 61 -25 q20 0 41 9q33 14 117 90q12 8 27.5 7t24.5 -12q8 -10 8 -23q0 -17 -11 -29q-94 -80 -135 -100q-38 -17 -74 -17q-57 0 -108 43q-121 104 -136 316q-2 25 -2 53q0 115 27 282q2 10 16 54v2h-8q-57 8 -102 30q-82 39 -142 103q15 -178 15 -363q-1 -35 -1 -71q-4 -222 -22 -387 q-2 -14 -14 -24.5t-26.5 -8.5t-24.5 14t-8 27q24 165 24 457v24q-2 317 -41 463z" />
<glyph unicode="s" horiz-adv-x="839" d="M-20 98.5q0 14.5 10 26.5q20 25 51 102q27 70 59 179l35 122q18 66 34.5 130.5t23.5 84.5q10 41 36 119q14 43 25 72q6 16 10 24q2 8 5 12.5t7 6.5q8 10 21 12q5 1 9 1q29 0 50 -34q12 -16 27 -53q8 -16 23.5 -60t25.5 -65q6 -18 74 -157q59 -117 86 -199 q43 -119 43 -210q0 -99 -51 -165q48 -13 92 -13q117 0 201 93q8 10 23 11q14 1 26 -8q13 -10 13 -27q0 -14 -9 -25q-104 -118 -250 -118q-74 0 -158 30q-46 -31 -104 -37q-19 -2 -38 -2q-37 0 -70 8q-50 12 -97 39q-82 47 -125 115q-4 8 -8 18q-18 -37 -37 -55 q-10 -12 -24.5 -12.5t-26.5 10t-12 25zM139 211q-3 -7 -3 -15q0 -19 16 -44q31 -51 98 -89q69 -40 133 -40q24 0 47 6q-47 25 -98 57q-6 4 -49 37t-72 51q-41 27 -66 35q-4 2 -6 2zM139 285q14 0 31 -6q33 -10 82 -43q31 -20 76 -54q41 -33 45 -35q74 -47 137 -73l6 6 q45 49 45 134q0 77 -37 183q-29 78 -84 193l-78 160q-8 20 -24 65l-23 62l-2 6l-14 -43q-25 -76 -37 -117q-4 -20 -20 -84l-37 -131l-35 -125z" />
<glyph unicode="t" horiz-adv-x="399" d="M-162 982q0 15 11.5 25.5t27.5 10.5q26 -1 59 -1t74 1v377q0 14 11.5 25.5t25.5 11.5t25.5 -11.5t11.5 -25.5v-375q44 1 80 1t65 -1q14 0 24.5 -11.5t10.5 -26.5t-11 -25.5t-28 -10.5q-28 1 -63 1t-78 -1v-278q0 -41 -3 -136.5t-3 -151.5t10 -131t33 -130q18 -49 55 -64 q18 -7 41 -7q19 0 41 5q80 18 182 94q12 8 28 7q14 -2 24 -14q8 -10 8 -23v-5q-2 -16 -15 -26q-115 -82 -211 -104q-30 -7 -57 -7q-37 0 -67 13q-66 25 -99 102q-25 61 -36 145t-11 143.5t3 157t3 132.5v276q-42 -1 -76 -1t-61 1q-14 0 -24.5 11.5t-10.5 26.5z" />
<glyph unicode="u" horiz-adv-x="821" d="M29 420q-4 78 -4 157q0 202 26 406q2 16 14.5 25.5t28 7.5t24.5 -14.5t7 -26.5q-27 -193 -27 -396q0 -77 4 -155q8 -195 48 -289q18 -51 45 -69q23 -16 53 -9q41 12 80 80q37 66 65 172q47 174 58 340q4 70 6 113q0 51 2 123.5t2 89.5v2v2v4v4q2 4 4 10q9 21 31 21h4 q12 0 19 -6t9 -11l2 -4l5 -12v-2v-2v-2v-4v-6v-8v-9v-69q0 -55 -5 -123v-34q0 -243 27 -398q33 -190 102 -246q25 -20 58 -19q65 0 160 76q10 10 25.5 8t25.5 -13q8 -9 8 -21v-5q-2 -16 -14 -26q-114 -94 -205 -94q-57 0 -105 37q-90 72 -129 290q-2 14 -4 31 q-6 -29 -14 -55q-33 -117 -74 -189q-53 -96 -123 -114q-23 -7 -44 -7q-40 0 -74 25q-41 31 -70 100q-41 109 -51 314z" />
<glyph unicode="v" horiz-adv-x="747" d="M8 504q-2 48 -2 102q0 82 4 180q0 31 2 75t3 70.5t1 45.5q0 14 12.5 25.5t27 11.5t26.5 -11.5t12 -25.5l-8 -193q-4 -106 -4 -185q0 -53 2 -93q8 -162 31 -266q29 -119 78 -156q30 -21 60 -21l34 7q68 25 108 127q37 92 49 241q2 23 2 45q-25 23 -47 49q-75 90 -109 198 q-17 54 -17 105q0 50 16 95q23 66 59 88q20 12 40 12l50 -18q31 -25 49 -76q8 -6 11 -16l2 -15q4 -16 6 -33v-6q19 -141 19 -288q0 -32 -1 -64q93 -76 183 -76q29 0 57 8q14 4 28.5 -3t18.5 -21q1 -5 1 -10q0 -10 -4 -18q-7 -14 -22 -17q-40 -12 -81 -12q-92 0 -185 61 q-12 -156 -55 -256q-51 -133 -150 -170q-27 -9 -56 -9q-17 0 -34 3q-45 8 -80 33q-72 51 -104 196q-27 111 -33 281zM354 903q-14 -34 -14 -74q0 -41 15 -86q30 -90 106 -170q0 174 -29 314q-14 49 -43 65q0 2 -4 2q-14 -10 -31 -51z" />
<glyph unicode="w" horiz-adv-x="1024" d="M3 554q1 73 10.5 220.5t11.5 186.5q0 14 11 24t26.5 10t24.5 -11.5t9 -27.5q-2 -45 -10 -189t-10 -214v-24q0 -65 8 -155q10 -108 39 -190q14 -45 33 -73q23 -37 43 -43q13 -3 24 -4q29 0 49 22q33 33 54 111q18 72 32 256q0 27 -1 63.5t-1 42.5q0 14 10.5 25.5t25 11.5 t25.5 -10.5t11 -26.5q0 -8 1 -33.5t1 -40.5q2 -8 2 -18q0 -6 -2 -16q6 -133 25 -222q20 -96 57 -139q28 -32 68 -32q13 0 28 3q51 14 84 115q29 90 41 254l4 59q-20 18 -37 41q-70 82 -102 188q-21 67 -21 129q0 37 7 73q12 59 45 86q22 18 47 18q16 0 33 -8q51 -20 73 -88 q6 -6 9 -17q21 -117 21 -295q0 -46 -1 -96q84 -70 170 -71q31 0 63 10q14 4 28 -3q14 -8 18 -22q2 -5 1 -10q-1 -10 -5 -18q-8 -14 -21 -17q-42 -13 -84 -13q-88 0 -174 56v-6q-10 -168 -47 -274q-47 -137 -135 -160q-26 -7 -50 -7q-68 0 -118 56q-41 47 -64 131 q-23 -92 -67 -137q-42 -45 -99 -45q-23 0 -49 8q-47 12 -86 74q-18 37 -37 88q-31 90 -42 206q-10 106 -10 176v12zM666 903q-5 -27 -5 -56q0 -45 13 -95q22 -82 76 -154q-2 152 -17 266q-4 7 -4 13q-2 27 -14.5 46t-24.5 25q-2 1 -3.5 1t-2.5 -1q-12 -10 -18 -45z" />
<glyph unicode="x" horiz-adv-x="675" d="M-60 20q-1 4 -1 8q0 11 6 19q90 135 207 348q-45 96 -109 279l-102 291q-3 8 -3 15q0 6 2 12q5 14 19 20q7 3 14 3q7 -1 13 -3q14 -6 20 -19q10 -18 107 -297q45 -129 84 -219l18 33q172 317 272 469q8 12 23.5 15t28 -5t15.5 -23.5t-5 -27.5q-98 -147 -270 -463l-46 -84 l31 -61q98 -184 203 -236q37 -17 75 -17q85 0 179 83q12 8 27.5 7t24.5 -13q8 -10 8 -23q0 -17 -11 -29q-116 -100 -225 -100q-57 0 -111 27q-125 61 -235 266l-9 18q-102 -184 -184 -307q-8 -12 -24 -15q-4 -1 -8 -1q-11 0 -19 6q-12 8 -15 24z" />
<glyph unicode="y" horiz-adv-x="753" d="M39 424q2 123 29 340q18 169 18 210v7q0 14 9 25.5t25 12.5h2q14 0 24 -9q12 -9 14 -25v-7q0 -44 -21 -222q-25 -213 -26 -334q-1 -30 -1 -58q0 -150 27 -227q16 -49 44 -67q20 -13 46 -13q12 0 25 2q53 10 98 80q43 66 76 180q12 47 24.5 106.5t19.5 99.5t15.5 96.5 t10.5 72.5q8 49 22 183q4 51 8 69q2 16 4 25q4 12 15 20q16 10 35 6q12 -4 20 -16l6 -16v-7v-10v-30q0 -31 -2 -95q-6 -145 -6 -166q0 -12 7 -203.5t9 -320.5q0 -33 -2 -63l66 16q23 4 58.5 18.5t64.5 36.5q12 10 27.5 8t24.5 -14q7 -10 7 -22v-5q-2 -16 -14 -24l-29 -18 q-12 -10 -28 -17l-25 -12q-12 -6 -28.5 -12.5t-24.5 -8.5t-27.5 -6t-24 -5t-25 -5t-22.5 -4q-4 -96 -11 -167t-19 -118q-16 -55 -41 -82q-47 -50 -98 -50q-8 0 -17 1q-53 10 -86 68q-28 53 -28 120q0 62 30 121q72 127 197 164q2 39 2 80q-2 131 -8 322q-16 -88 -37 -156 q-35 -125 -82 -199q-63 -96 -150 -114q-19 -4 -37 -4q-49 0 -88 28q-47 31 -71 103q-32 88 -32 244q0 32 1 67zM408 -315q14 -29 32 -31h5q19 0 44 24q12 14 23 54q10 41 18 104q7 61 9 139q-78 -31 -129 -122q-22 -39 -22 -85q0 -49 20 -83z" />
<glyph unicode="z" horiz-adv-x="876" d="M38 106q-1 5 -1 9q0 10 4 18q41 70 47 82q10 27 33 113q0 4 33 182q27 141 57 229q45 129 111 191q62 60 141 60q30 0 61 -9q94 -23 111 -113q4 -20 4 -43q0 -53 -23 -120q-45 -139 -131 -254q20 2 39 2h9q145 0 196 -131q21 -55 21 -126q0 -34 -5 -71q91 8 201 8h45 q16 0 26.5 -11t10.5 -26.5t-11 -26t-26 -10.5h-41q-122 0 -219 -10q-23 -72 -75 -158t-117 -155q-39 -41 -80 -72q-41 -32 -88 -52q-40 -18 -83 -17q-6 1 -14 1q-50 4 -96 31q-53 35 -59 94v7q0 44 24 94q45 84 121 141q162 117 406 154q6 39 6 74q0 59 -17 104 q-32 84 -123 84h-8q-29 0 -55 -6q-31 -4 -43 -11l-18 -14q-14 -18 -25 -33q-10 -12 -37 -30q-10 -6 -14 -11q-4 0 -8 -2q-6 -2 -15 -2q-14 0 -24 11q-12 12 -10 30l8 19q0 2 2 4l4 4q8 6 28.5 26.5t34.5 32.5l17 25q31 45 47 63q29 35 66.5 104.5t60.5 137.5q18 59 18 100 q0 15 -2 27q-8 45 -55 57q-21 5 -39 5q-55 0 -96 -39q-53 -49 -92 -162q-29 -84 -54 -219q-35 -180 -37 -185q-20 -92 -34 -125q-8 -18 -50 -90q-8 -14 -23 -17t-28.5 4t-16.5 23zM219 -311q32 -22 68 -22q86 0 198 118q111 117 164 252q-205 -35 -340 -135 q-63 -45 -100 -113q-16 -33 -16 -56q0 -27 26 -44z" />
<glyph unicode="{" horiz-adv-x="696" d="M35 676q0 31 26 49q14 8 37 14q45 10 47 11q57 37 93 149q14 49 14 137q2 119 6 154q8 68 43 137.5t84 120.5q37 39 78 59q41 23 93 28t103 -22q12 -6 17.5 -20t-0.5 -27.5t-20.5 -18.5t-28.5 1q-94 45 -189 -51q-41 -43 -69 -103q-31 -59 -37 -112q-4 -35 -6 -146 q0 -98 -19 -157q-41 -141 -125 -191q-10 -6 -26 -12q18 -10 30 -19q14 -12 43 -53q61 -86 74 -207q2 -27 6 -92t9.5 -115.5t17.5 -93.5q39 -152 162 -164q68 -6 110 21q14 8 28.5 5t23 -16.5t5.5 -27.5t-16 -23q-66 -41 -160 -32q-174 16 -225 219q-12 49 -18 102 q-6 55 -10.5 123t-6.5 86q-10 102 -61 174q-23 31 -31 37q-6 6 -41 25h-2q-2 0 -14 2q-14 4 -25 10q-20 14 -20 39z" />
<glyph unicode="|" horiz-adv-x="1118" d="M-111 985v33h5v12h4v10h4v9h4v4h4v4h4v4h6v4h4v4h8v4h5v4h8v4h8v4h12v5h15v4h63v-4h16v-5h13v-4h8v-4h12v-4h10v-4h9v-4h8v-4h4v-4h8v-4h4v-4h8v-5h9v-4h6v-4h4v-6h8v-4h4v-4h4v-4h8v-4h4v-4h5v-4h8v-5h4v-4h4v-4h6v-4h4v-4h8v-4h4v-4h5v-4h4v-4h4v-4h8v-4h4v-5h4v-4h4 v-4h10v-4h5v-4h4v-4h4v-4h4v-4h8v-4h4v-4h4v-5h4v-4h4v-4h9v-4h4v-4h6v-4h4v-4h4v-4h8v-4h4v-4h4v-5h5v-4h4v-4h8v-4h4v-4h4v-4h4v-4h6v-4h4v-4h9v-4h4v-4h4v-5h4v-4h4v-4h4v-4h4v-4h4v-4h8v-4h5v-4h6v-4h4v-4h4v-5h4v-4h4v-4h4v-4h4v-4h4v-4h4v-4h5v-4h4v-4h4v-6h4v-5h10 v-4h4v-4h4v-4h4v-4h4v-4h5v-4h4v-4h4v-4h8v37h-4v14h-4v8h-4v12h-4v13h-5v8h-4v12h-4v12h-4v9h-4v12h-6v8h-4v8h-4v13h-4v8h-4v12h-5v8h-4v8h-4v13h-4v8h-4v8h-4v8h-4v9h-4v8h-4v8h-6v8h-5v8h-4v4h-4v9h-4v8h-4v4h-4v8h-4v4h-4v10h-4v4h-4v5h-5v8h-4v4h-4v4h-6v8h-4v4h-4v4 h-4v9h-4v4h-4v4h-4v8h-5v4h-4v4h-4v4h-4v4h-4v4h-4v4h-4v5h-6v4h-8v4h-9v4h-8v-4h-4v-4h-4v-4h-4v-9h-4v-12h-4v-16h-4v-13h-15v5h-4v12h-4v16h-4v33h4v4h4v4h8v4h15v4h12v4h43v-4h12v-4h8v-4h9v-4h4v-4h8v-4h4v-4h4v-4h6v-4h4v-5h4v-4h5v-4h4v-4h4v-4h4v-4h4v-4h4v-8h4v-4 h4v-9h4v-4h4v-8h5v-8h6v-4h4v-8h4v-9h4v-8h4v-10h4v-8h4v-8h4v-9h4v-12h5v-8h4v-8h4v-12h4v-13h4v-8h6v-12h4v-13h4v-12h4v-12h4v-17h5v-12h4v-12h4v-16h4v-17h4v-12h4v20h4v37h4v21h6v12h9v-4h4v-17h4v-28h4v-29h4v12h4v17h4v16h4v17h4v16h4v16h4v13h5v16h6v12h4v13h4v8h4 v12h4v12h4v9h4v12h4v8h5v10h4v8h4v9h4v8h4v8h4v8h6v8h4v5h4v8h4v4h5v8h4v4h4v4h4v4h4v4h4v9h4v4h8v4h4v4h7v4h4v4h8v4h4v4h8v4h12v4h56v-4h12v-4h4v-4h4v-4h6v-4h4v-45h-4v-12h-6v-4h-4v-5h-4v5h-4v8h-4v12h-4v12h-4v13h-5v4h-4v4h-4v4h-16v-4h-10v-4h-4v-4h-5v-5h-4v-4h-4 v-8h-4v-4h-4v-4h-4v-4h-4v-8h-4v-4h-4v-4h-4v-9h-4v-4h-7v-8h-4v-4h-4v-4h-4v-8h-4v-4h-4v-9h-4v-10h-4v-4h-4v-8h-4v-8h-5v-4h-4v-9h-4v-8h-4v-8h-6v-8h-4v-8h-4v-9h-4v-8h-4v-8h-4v-12h-5v-8h-4v-13h-4v-8h-4v-12h-4v-13h-4v-12h-4v-12h-4v-12h-6v-13h-5v-12h-4v-12h-4 v-13h-4v-12h-4v-12h-4v-64h4v5h4v4h4v4h4v4h4v4h5v4h6v4h4v8h4v4h4v4h4v5h4v6h4v4h4v4h5v4h4v8h4v4h4v4h4v4h4v5h6v4h4v4h4v4h4v4h5v4h4v4h4v4h4v4h4v4h4v5h4v4h4v4h4v4h4v4h7v4h8v4h4v4h4v4h4v4h4v4h4v5h4v4h4v4h4v4h5v4h4v4h4v4h10v4h4v4h4v4h4v5h4v4h4v4h5v4h4v4h4v4h4v4 h8v4h4v4h6v4h4v5h4v4h5v4h4v4h4v4h4v4h4v4h8v4h4v4h4v4h4v4h5v5h6v4h4v4h4v4h4v4h8v4h4v4h4v6h4v4h5v4h8v5h4v4h4v4h10v4h4v4h4v4h9v4h8v4h4v4h8v4h8v5h10v4h13v4h8v4h12v4h21v4h43v-4h16v-4h14v-4h13v-4h8v-4h4v-5h8v-4h4v-4h4v-4h5v-4h6v-4h4v-8h4v-8h4v-23h4v-16h-4v-29 h-4v-12h-4v-13h-4v-12h-6v-8h-5v-8h-4v-13h-4v-8h-4v-8h-4v-8h-4v-8h-4v-9h-4v-12h-4v-8h-4v-8h-5v-8h-4v-9h-4v-12h-6v-33h6v-8h4v-8h4v-4h5v-4h4v-10h4v-5h4v-4h4v-8h4v-4h4v-8h4v-4h4v-4h4v-8h5v-9h6v-4h4v-8h4v-4h4v-8h4v-13h4v-12h4v-29h-4v-16h-4v-8h-4v-8h-4v-4h-4 v-4h-4v-5h-6v-4h-5v-4h-4v-4h-4v-4h-4v-4h-8v-4h-8v-4h-4v-4h-9v-4h-8v-5h-10v-4h-12v-4h-8v-4h-13v-4h-12v-4h-14v-4h-17v-4h-12v-4h-21v-4h-10v-4h10v-5h25v-4h16v-4h13v-4h10v-6h8v-4h8v-4h4v-4h9v-4h4v-4h4v-5h4v-4h4v-4h4v-4h6v-4h4v-4h4v-8h5v-4h4v-9h4v-16h4v-8h-4 v-12h-4v-9h-4v-4h-5v-4h-4v-8h-4v-4h-6v-4h-4v-4h-4v-4h-4v-4h-4v-5h-4v-4h-4v-8h-5v-4h-4v-4h-4v-8h-4v-4h-4v-9h-4v-12h-4v-12h-6v-45h-4v-35h-4v-12h-5v-13h-4v-12h-4v-8h-4v-4h-4v-8h-4v-4h-4v-5h-4v-8h-4v-4h-4v-4h-5v-4h-10v-4h-4v-4h-8v-4h-8v-4h-8v-4h-21v-5h-22v5 h-25v4h-12v4h-11v4h-12v4h-4v4h-8v4h-8v4h-4v4h-9v4h-4v4h-6v5h-4v4h-4v4h-4v4h-4v4h-4v4h-4v4h-5v4h-4v4h-4v4h-4v5h-4v4h-4v4h-4v4h-6v4h-4v4h-4v4h-5v4h-4v8h-4v7h-4v4h-4v4h-4v4h-4v4h-4v4h-4v4h-4v4h-4v8h-7v5h-4v4h-4v4h-4v4h-4v4h-4v4h-4v8h-4v4h-4v4h-4v4h-5v5h-4v8 h-4v4h-4v4h-6v4h-4v8h-4v4h-4v4h-4v9h-4v4h-5v4h-4v8h-4v4h-4v8h-4v4h-4v9h-4v4h-4v8h-6v8h-5v4h-4v8h-4v9h-4v8h-4v-29h-4v-102h-4v-58h-4v-43h-4v-28h-4v-17h-4v-4h-5v4h-4v8h-6v21h-4v39h-4v53h-4v86h-4v62h-4v-9h-4v-8h-4v-8h-5v-8h-4v-8h-4v-5h-4v-8h-4v-4h-6v-8h-4v-4 h-4v-8h-4v-4h-4v-9h-5v-4h-4v-4h-4v-8h-4v-4h-4v-4h-4v-8h-4v-4h-4v-5h-4v-4h-6v-8h-5v-4h-4v-4h-4v-8h-4v-4h-4v-4h-4v-4h-4v-9h-4v-4h-4v-4h-4v-4h-5v-4h-4v-8h-4v-4h-6v-4h-4v-7h-4v-8h-4v-4h-4v-4h-4v-4h-4v-4h-5v-8h-4v-4h-4v-5h-4v-4h-4v-4h-4v-8h-4v-4h-6v-4h-4v-4 h-4v-4h-5v-4h-4v-5h-4v-4h-8v-4h-4v-4h-4v-4h-4v-4h-8v-4h-5v-4h-10v-4h-8v-4h-8v-4h-8v-5h-13v-4h-22v-4h-21v4h-20v4h-14v5h-9v4h-8v4h-4v4h-4v4h-8v4h-4v4h-4v8h-5v4h-4v4h-4v9h-6v4h-4v8h-4v8h-4v12h-4v13h-4v20h-4v47h-5v17h-4v8h-4v8h-4v8h-4v4h-4v9h-4v4h-6v4h-4v4 h-4v4h-5v4h-4v4h-4v4h-4v4h-4v4h-4v5h-4v4h-4v4h-4v4h-4v4h-4v8h-7v12h-4v17h4v12h7v8h4v8h4v5h4v4h4v8h4v4h4v4h4v4h4v4h8v4h5v4h4v5h10v4h8v4h8v4h8v4h13v4h16v6h19v4h8v4h-13v4h-22v5h-21v4h-16v4h-18v4h-13v4h-12v4h-8v4h-12v4h-11v4h-8v4h-8v4h-4v5h-8v4h-4v4h-9v4h-4 v4h-4v4h-4v4h-6v8h-4v4h-4v9h-4v16h-4v29h4v16h4v8h4v8h4v9h6v8h4v8h4v4h4v8h5v9h4v4h4v8h4v4h4v8h4v4h4v4h4v8h4v5h4v10h7v16h4v8h-4v17h-7v8h-4v8h-4v8h-4v9h-4v8h-4v8h-4v8h-4v8h-4v8h-4v9h-5v8h-4v4h-4v8h-4v8h-6v9h-4v12h-4v8h-4v12h-4v13h-4v20h-5z" />
<glyph unicode="}" horiz-adv-x="684" d="M43 -53.5q-4 14.5 3 28t21.5 17.5t28.5 -2q90 -49 185 43q45 41 74.5 98t37.5 111q4 29 8 141q2 94 23 154q47 141 129 184q8 4 22 10q-16 8 -24 17q-12 10 -43 53t-47.5 96t-21.5 90t-7 100q-8 174 -33 248q-41 117 -147 129q-72 8 -109 -18q-12 -10 -27.5 -8t-24.5 14 t-7 27.5t14 23.5q61 47 162 35q152 -18 209 -180q29 -82 37 -266q4 -90 14 -146q12 -53 49 -104q25 -35 29 -39q2 -2 41 -23h2q6 -2 16 -4q43 -12 43 -49q0 -16 -12 -27q-2 -4 -6 -6q-2 0 -5 -2t-9 -4l-27 -10q-39 -14 -55 -23q-53 -29 -92 -143q-16 -47 -19 -133 q-4 -117 -8 -150q-10 -63 -46 -131.5t-89 -117.5q-37 -37 -79 -57.5t-93 -23.5t-101 25q-12 8 -16 22.5z" />
<glyph unicode="~" horiz-adv-x="819" d="M35 965q37 94 123 155q115 80 207 4q29 -23 53 -77q23 -51 33 -64q49 -59 149 -14q76 35 166 118q10 10 25.5 10.5t25.5 -11t10 -27t-12 -25.5q-98 -94 -184 -133q-152 -70 -238 37q-16 18 -43 78q-16 39 -31 51q-51 41 -118 -8q-70 -47 -97 -119q-6 -14 -20 -20.5 t-27.5 -1t-19.5 20t-2 26.5z" />
<glyph unicode="&#xa1;" horiz-adv-x="143" d="M33 0q-6 209 6 608q14 436 8 602q0 14 10.5 25.5t25.5 11.5t26.5 -10.5t11.5 -26.5q6 -168 -8 -604q-12 -397 -7 -602q0 -16 -10 -27.5t-25.5 -11.5t-26.5 10.5t-11 24.5zM39 1378.5q0 14.5 11 25.5t25.5 11t26 -11t11.5 -25.5t-11.5 -26t-26 -11.5t-25.5 11.5t-11 26z " />
<glyph unicode="&#xa2;" horiz-adv-x="819" d="M52.5 268.5q-52.5 184.5 17.5 433.5q23 74 70.5 153t105.5 124q78 59 149 33q76 -27 125 -152q4 -12 -2 -26.5t-19.5 -19.5t-27.5 1.5t-20 20.5q-35 92 -80 106q-33 12 -80 -22.5t-89 -104.5t-63 -133q-47 -156 -35.5 -281t58.5 -207.5t119 -123.5q51 -29 108 -30 t118.5 26.5t123 98.5t110.5 177q6 14 20.5 19.5t28 -1t18.5 -20.5t-1 -27q-51 -117 -121 -197.5t-144.5 -115.5t-151.5 -34t-146 40q-139 78 -191.5 262.5zM276 1106l9 29l3 21t3 9q0 6 16 49q6 12 20.5 18.5t28 1.5t19.5 -19.5t2 -28.5q-14 -37 -17 -39q0 -2 -1 -8 t-4 -19.5t-5 -29.5q-4 -14 -17.5 -22.5t-27.5 -5.5t-22.5 16.5t-6.5 27.5zM313 -211q8 49 15 92q2 16 14 25.5t27.5 7.5t24.5 -14.5t7 -26.5q-6 -47 -14 -96q-2 -14 -15.5 -23.5t-27.5 -7.5t-23.5 15.5t-7.5 27.5z" />
<glyph unicode="&#xa3;" horiz-adv-x="931" d="M-22.5 663.5q-4.5 14.5 3 28t21.5 17.5q90 25 252 8q47 365 147 553q39 70 99.5 116t124.5 52q74 4 123 -45q53 -51 67 -150q2 -16 -7 -28.5t-24.5 -14.5t-28 7.5t-14.5 23.5q-10 76 -45 108q-27 27 -65 25q-43 -4 -88 -39t-76 -92q-96 -174 -139 -524q162 -16 219 10 q14 6 28.5 1t20.5 -18.5t1 -28t-17 -20.5q-78 -37 -261 -16q-25 -197 -36 -275q-27 -160 -45 -215q41 6 100 -4q25 -4 51.5 -15t54 -26.5t35.5 -17.5q123 -53 223.5 -7t145.5 171q6 14 19.5 20t27.5 1t20.5 -18t2.5 -28q-55 -156 -184.5 -214t-282.5 5l-45 23 q-25 14 -43.5 22.5t-36.5 10.5q-68 12 -97 2q-14 -4 -26 -15q0 -2 -2 -6t-2 -6q-6 -12 -13 -20q-12 -12 -28 -13q-18 0 -31 13q-10 12 -10 30q0 2 2 6q0 4 2 7q0 4 4 10q4 10 12 26l13 27l4 8l2 2q25 59 53 234q12 68 37 270q-147 14 -223 -6q-14 -4 -27.5 3t-18 21.5z" />
<glyph unicode="&#xa4;" horiz-adv-x="1024" d="M4 1158.5q0 15.5 11.5 25.5t26.5 10t26 -12l151 -154q135 139 340 129q8 0 16 -4q8 -2 17 -2q117 -25 194 -94q18 23 41 47l50 53l43 45q10 12 25.5 12t26.5 -10t11 -25.5t-10 -25.5l-43 -47l-49 -53q-23 -25 -41 -47q-2 -2 -2 -5q109 -145 65 -352q-27 -129 -108 -231 q82 -70 157 -142q12 -10 12.5 -25t-10 -26.5t-26 -11.5t-25.5 10q-76 72 -160 142q-131 -121 -307 -115q-131 4 -221 78q-16 -23 -37 -45l-47 -45l-35 -35q-10 -12 -25.5 -12.5t-26.5 10t-11 26t10 25.5q14 16 41 41.5t45 45t33 40.5q-12 14 -23 29q-88 133 -65 317 q18 137 96 248l-156 160q-10 10 -10 25.5zM147 715q-20 -156 54 -266q80 -119 239 -125q147 -6 254 94t136.5 246.5t-34 264.5t-221.5 148q-14 4 -45 2q-45 -4 -61 -4q-4 0 -10 2q-129 -25 -213 -127q-82 -102 -99 -235z" />
<glyph unicode="&#xa5;" horiz-adv-x="1024" d="M74 752.5q4 15.5 16 23.5q106 61 260 68q-35 90 -100.5 274.5t-102.5 276.5q-4 14 1.5 28.5t19.5 19.5t28.5 0t20.5 -20l105 -284q70 -195 108 -293q31 0 84 -2q72 -4 102 -4q41 92 89 184l122 231l99 181q8 14 22.5 18t27.5 -3t17 -21.5t-2 -26.5l-94 -174l-113 -213 q-47 -90 -86 -176q119 6 201 49q12 6 27.5 2t21.5 -17.5t2 -29t-18 -21.5q-106 -55 -268 -57l-9 -16l-49 -113l-33 -70l-4 -6q55 2 97 8q74 10 239 56q14 4 27.5 -3.5t17.5 -21.5t-3 -27.5t-21 -17.5q-172 -47 -248 -59q-47 -6 -113 -9q2 -63 -4 -176q-10 -193 -10 -250 q0 -14 -11.5 -25t-25.5 -11t-25.5 11t-11.5 25q0 59 10 254q6 113 5 172q-59 2 -89 0q-145 -6 -225 -75q-12 -10 -27.5 -8t-25.5 13t-8 26.5t12 25.5q102 86 272 92q31 2 70 2l-2 6l-35 76l-53 123v4q-156 -4 -254 -61q-12 -6 -27.5 -2t-22.5 16t-3 27.5zM461 772l41 -98 l20 -43l19 37l43 98q-16 0 -72 4q-31 0 -51 2z" />
<glyph unicode="&#xa6;" horiz-adv-x="137" d="M51 1350q0 16 10.5 27.5t25.5 11.5t26.5 -10.5t11.5 -24.5q6 -137 6 -543q0 -14 -11 -25.5t-25.5 -11.5t-26 11.5t-11.5 25.5q0 406 -6 539zM68 -217v567q0 14 10 25.5t25.5 11.5t26.5 -10.5t11 -26.5v-567q0 -14 -11 -25.5t-25.5 -11.5t-25.5 11.5t-11 25.5z" />
<glyph unicode="&#xa7;" horiz-adv-x="614" d="M89 217.5q5 13.5 19.5 20t28 1t19.5 -19.5q20 -45 65 -76.5t96 -40.5q113 -16 150 82q27 70 -47 162q-29 33 -86 88l-94 94q-115 123 -115 220q0 117 149 223q-53 49 -81 86q-31 43 -46.5 101.5t-5.5 109.5q18 90 75.5 141t129.5 49q76 -2 133.5 -57t77.5 -152 q2 -16 -6 -28.5t-23.5 -15.5t-28 5.5t-16.5 22.5q-14 76 -53 113.5t-84 37.5q-45 2 -82 -31.5t-49 -97.5q-8 -37 3 -79.5t36 -73.5q31 -43 98 -103q8 -4 15 -12q74 -63 102 -90q147 -143 127 -295q-16 -119 -168 -156q29 -31 49 -55q98 -125 60 -231q-29 -76 -92.5 -109 t-137.5 -20q-70 8 -130 51t-87 108q-6 14 -1 27.5zM199 748q0 -68 94 -168l76 -76q6 6 14 8q66 12 99.5 33.5t39.5 64.5q16 117 -104 234l-86 76q-133 -88 -133 -172z" />
<glyph unicode="&#xa8;" horiz-adv-x="321" d="M55 1317q0 14 11.5 25.5t25.5 11.5t25.5 -11.5t11.5 -25.5t-11.5 -25.5t-25.5 -11.5t-25.5 11.5t-11.5 25.5zM231 1310.5q0 14.5 11.5 26t26 11.5t25.5 -11.5t11 -26t-11 -25.5t-25.5 -11t-26 11t-11.5 25.5z" />
<glyph unicode="&#xa9;" horiz-adv-x="894" d="M31 723q8 285 106 491q115 236 297 252q9 0 17 -2q8 0 14 -2q205 -59 321 -319q102 -229 99 -518q-4 -291 -115 -478q-131 -219 -350 -190q-203 27 -307 268q-90 209 -82 498zM104 721q-8 -270 76 -465q88 -205 248 -225q174 -23 279 153q100 170 103 442.5t-91 487.5 q-102 227 -275 279h-2q-143 -12 -237 -211q-92 -193 -101 -461zM250 614q-4 111 22 222q27 113 82 194q47 68 99.5 78t95.5 -35q29 -31 47 -83t20 -99q0 -16 -10 -27.5t-25.5 -11.5t-26.5 10.5t-11 24.5q-2 37 -15.5 75.5t-33.5 59.5q-14 16 -27 14q-23 -4 -51 -47 q-49 -70 -73 -172t-19 -199q4 -127 53 -208.5t106 -100.5q47 -14 80 27q47 57 47 190q0 14 11.5 25.5t26 11.5t25.5 -11t11 -26q0 -160 -63 -237q-63 -80 -160 -49q-84 27 -146 129q-61 100 -65 245z" />
<glyph unicode="&#xaa;" horiz-adv-x="614" d="M84 903q-6 92 78 184q39 43 114 78l58 27q33 14 53 27q4 0 6 2q-2 90 -16 131q-8 29 -25 39q-16 12 -49 4q-74 -14 -131 -95q-10 -12 -25.5 -14t-28 7.5t-14 25t6.5 27.5q76 102 176 122q63 12 106 -14q37 -25 56 -80q16 -55 20 -217q4 -154 25 -217q27 -88 104 -98 q14 -2 23.5 -14.5t7.5 -28t-14.5 -24.5t-28.5 -7q-94 14 -142 98q-57 -80 -135 -104.5t-139 10.5q-78 41 -86 131zM158 909q4 -49 47 -71q18 -10 42.5 -11.5t53.5 10t58.5 42t52.5 77.5q-12 63 -17 183l-30 -15l-58 -24q-61 -29 -92 -62q-61 -68 -57 -129z" />
<glyph unicode="&#xab;" horiz-adv-x="716" d="M29 526q-8 43 37 111q31 47 92 117l67 73l66 70q27 29 37 45q8 12 23.5 15.5t27.5 -5t15 -24t-5 -27.5q-12 -18 -41 -49l-69 -78l-66 -69q-57 -66 -86 -107q-29 -45 -25 -59q4 -29 39 -72q12 -16 36 -43t28 -31q23 -27 88 -94q57 -61 88 -102q10 -12 8 -27.5t-14.5 -25 t-27.5 -7.5t-23 15q-29 37 -84 96q-68 68 -93 96q-4 6 -28.5 34t-36.5 44q-43 57 -53 104zM336 547q0 6 4 14q0 2 2 4t4 6t8 13l31 41l94 118l156 193q10 12 25.5 14t26.5 -8t13 -25.5t-8 -25.5l-155 -195l-93 -118l-30 -39l-2 -2q2 -2 4 -9q8 -14 24 -39q29 -41 86 -106 q35 -41 95.5 -106.5t72.5 -77.5q10 -12 8 -27.5t-13 -26t-26.5 -8.5t-25.5 13q-12 14 -71.5 78.5t-94.5 105.5q-59 68 -92 112q-18 29 -29 50q-14 29 -14 51z" />
<glyph unicode="&#xac;" horiz-adv-x="686" d="M18 646.5q2 15.5 14.5 24.5t26.5 7q35 -4 127 10q68 12 185 39q23 4 57 12l66 15l45 10l59 12q12 2 23 2q6 0 10 -2q12 -2 20 -8t13 -16q2 -2 2 -7q2 -4 2 -12q4 -12 6 -33q2 -10 10 -94q16 -154 18 -157q2 -16 -7 -28.5t-24.5 -15t-27.5 7t-14 23.5q0 6 -17 162l-12 92 v10q-16 -2 -45 -8q-20 -4 -47 -10l-64 -14q-35 -8 -57 -15q-119 -27 -188 -37q-102 -18 -148 -12q-16 2 -25.5 14.5t-7.5 28z" />
<glyph unicode="&#xad;" horiz-adv-x="573" d="M51 648.5q2 15.5 13.5 25.5t25.5 8q43 -4 86 -5t96 1l82 2q29 2 98.5 6t88.5 4q14 0 26.5 -10t12.5 -24.5t-10.5 -27t-24.5 -12.5q-16 0 -86 -4t-101 -6l-84 -2q-55 -2 -100 -1t-88 5q-16 2 -26.5 13.5t-8.5 27z" />
<glyph unicode="&#xae;" horiz-adv-x="876" d="M31 723q8 285 106 491q115 236 297 252q9 0 17 -2q8 0 14 -2q205 -59 321 -319q102 -229 99 -518q-4 -291 -115 -478q-131 -219 -350 -190q-203 27 -307 268q-90 209 -82 498zM104 721q-8 -270 76 -465q88 -205 248 -225q174 -23 279 153q100 170 103 442.5t-91 487.5 q-102 227 -275 279h-2q-143 -12 -237 -211q-92 -193 -101 -461zM291 971q0 14 9 25.5t26 13.5q20 2 30 -15q53 72 111 82q47 10 82 -17.5t51 -72.5q33 -88 -10 -192q-43 -107 -164 -164l55 -74l58 -80q23 -29 55.5 -66.5t62.5 -68.5q12 -10 12.5 -25.5t-10 -26.5t-26 -11 t-25.5 10q-33 29 -67.5 69.5t-51.5 63.5l-61 82q-43 59 -49 65q2 -102 2 -266q0 -14 -11.5 -25.5t-25.5 -11.5t-25.5 11.5t-11.5 25.5q0 428 -16 668zM371 870q4 -86 6 -180q55 23 93 59.5t52.5 73.5t18.5 75t-11 65q-16 49 -49 43q-53 -10 -110 -134v-2z" />
<glyph unicode="&#xaf;" horiz-adv-x="690" d="M14 1328q0 15 10.5 26.5t24.5 11.5q66 2 184.5 8t216 10.5t183.5 4.5q14 0 25.5 -11.5t11.5 -26t-11.5 -25.5t-25.5 -11q-86 0 -182.5 -4t-215 -10.5t-182.5 -8.5q-16 0 -27.5 10.5t-11.5 25.5z" />
<glyph unicode="&#xb0;" horiz-adv-x="505" d="M59 1159q25 109 93 189q76 90 165 86q27 -2 33 -27q61 -27 96 -86q49 -84 37 -203q-10 -117 -73 -196q-74 -94 -181 -84q-121 12 -163 118q-35 84 -7 203zM131 1141q-25 -94 2 -157.5t105 -72.5q66 -6 114 56q49 63 60 157q8 96 -30 160t-114 66q-31 -14 -61 -52 q-55 -63 -76 -157z" />
<glyph unicode="&#xb1;" horiz-adv-x="696" d="M52 405.5q-3 14.5 5.5 27.5t22.5 18q123 27 246 43q-29 92 -37 237q-98 -8 -176 -20q-16 -2 -28.5 7t-14.5 24.5t7 27.5t23 14q86 12 187 21q-2 127 10 268q2 14 13.5 24.5t26.5 8.5t25.5 -13.5t8.5 -27.5q-12 -133 -11 -254q12 0 90 5t121 9q14 2 25.5 -8t13.5 -25.5 t-8 -26.5t-27 -13q-41 -4 -119.5 -9.5t-93.5 -5.5q8 -150 39 -235q121 12 250 12q14 0 25.5 -11t11.5 -25.5t-11 -26t-26 -11.5q-285 0 -555 -63q-14 -2 -27.5 6t-16.5 22.5z" />
<glyph unicode="&#xb2;" horiz-adv-x="552" d="M45 645l4 12q6 8 14 23q12 18 48 63l141 187q90 125 137 207q53 100 47 141q-6 45 -35 53q-33 8 -90 -16q-53 -23 -106 -62q-53 -41 -78 -69q-10 -10 -25.5 -12.5t-27 8t-13 26t8.5 27.5q31 35 92 80t121 69q80 35 137 21q74 -20 90 -113q10 -66 -57 -188 q-47 -88 -142 -215l-141 -189l-18 -24l104 14q76 10 133 16.5t109 6.5q14 0 25.5 -11.5t11.5 -26t-11.5 -25.5t-25.5 -11q-53 0 -112.5 -6t-133.5 -17.5t-117 -15.5q-2 0 -6 -2q-14 -4 -16 -6q-16 -4 -29 -2q-27 4 -37 28q-6 12 -2 29z" />
<glyph unicode="&#xb3;" horiz-adv-x="614" d="M26 639.5q-3 15.5 5 28t23.5 15.5t27.5 -5q68 -45 172 -10q98 35 186 120q82 84 97 158q6 31 -4.5 51.5t-43.5 30.5q-86 29 -174 -12l-26 -15q-10 -6 -17 -8q-2 0 -2 -2q-4 0 -8 -2h-8q-16 0 -27 12q-16 18 -6 39q2 6 6 11l9 6l4 2q20 14 41 22l8 4l67 50q57 47 93 110 q37 68 2 92q-18 12 -56 4q-39 -8 -92 -36q-92 -53 -151 -119q-10 -12 -25.5 -12t-27 10t-11.5 25.5t10 25.5q66 74 168 133q63 35 113 47q68 14 113 -16q90 -63 20 -191q-27 -47 -72 -94q37 -4 74 -16q59 -20 84 -68q23 -41 12 -98q-18 -94 -117.5 -193.5t-213.5 -140.5 q-139 -47 -238 18q-12 8 -15 23.5z" />
<glyph unicode="&#xb4;" horiz-adv-x="247" d="M49 1137q-33 205 96 364q10 12 24.5 14.5t27 -8t14.5 -25t-8 -26.5q-109 -135 -80 -307q2 -16 -7.5 -28.5t-24.5 -14.5t-27.5 7t-14.5 24z" />
<glyph unicode="&#xb5;" horiz-adv-x="759" d="M10 -88q18 164 39 377h-2q-2 12 4 22l27 324q20 250 33 385q2 14 13 24.5t26.5 8.5t25.5 -13.5t8 -27.5l-34 -385q-20 -250 -27 -332q27 -92 108.5 -136t172 -20.5t137.5 109.5q61 109 84 354q14 156 14 391q0 14 11.5 25.5t25.5 11.5t25.5 -11t11.5 -26q0 -240 -15 -397 q-25 -262 -92 -385q-12 -20 -24 -39q6 -6 84 -106q10 -12 8 -27.5t-14.5 -25t-28 -7.5t-23.5 14q-78 99 -80 101q-94 -76 -217 -62.5t-200 103.5q-12 -139 -27 -258q-2 -14 -14.5 -24.5t-26.5 -8.5t-24.5 14.5t-8.5 26.5z" />
<glyph unicode="&#xb6;" horiz-adv-x="763" d="M63 1094q20 102 103.5 173.5t195.5 102.5q100 31 215 15.5t191 -78.5q10 -10 12 -25.5t-8 -28.5q-12 -14 -31 -12q-6 -98 -9 -207.5t-5 -193.5t-3 -213t-1 -193v-213v-201q0 -14 -11.5 -25t-25.5 -11t-25.5 11t-11.5 25v541q-70 14 -133 35q-2 -109 -1 -306.5t1 -262.5 q0 -14 -11 -25.5t-25.5 -11.5t-26 11t-11.5 26q0 55 -1 295.5t1 298.5q-106 37 -184 86q-240 154 -195 387zM137 1077q-37 -182 162 -307q61 -39 143 -72q2 350 19 617q-41 -4 -80 -17q-96 -25 -162.5 -83t-81.5 -138zM516 672q63 -21 133 -35q4 369 21 645q-59 29 -135 35 q-16 -276 -19 -645z" />
<glyph unicode="&#xb7;" horiz-adv-x="204" d="M86 798.5q0 14.5 11.5 26t25.5 11.5t25.5 -11.5t11.5 -26t-11.5 -25.5t-25.5 -11t-25.5 11t-11.5 25.5z" />
<glyph unicode="&#xb8;" horiz-adv-x="204" d="M-56 -155.5q5 14.5 19 20.5q133 61 127 223q0 16 10.5 27.5t25.5 11.5t26.5 -10.5t11.5 -24.5q4 -98 -39 -176t-133 -117q-12 -6 -26.5 -1t-20.5 18.5t-1 28z" />
<glyph unicode="&#xb9;" horiz-adv-x="204" d="M74 1354q0 14 11 25.5t25.5 11.5t25.5 -11.5t11 -25.5q0 -104 11 -318q12 -256 12 -319q0 -14 -11.5 -25.5t-25.5 -11.5t-25.5 11t-11.5 26q0 106 -10 317q-12 254 -12 320z" />
<glyph unicode="&#xba;" horiz-adv-x="579" d="M41 1012q12 113 64.5 228.5t117.5 176.5q7 6 15 8q117 59 206 -18q76 -63 105 -205q31 -117 6 -260t-102 -211q-74 -63 -181 -55q-137 10 -196 115q-49 86 -35 221zM115 1004q-12 -111 24 -177q41 -70 137 -77q76 -6 127 38q57 49 79 167t-5 231q-25 117 -82 166 q-53 47 -127 6q-53 -53 -98 -154q-45 -98 -55 -200z" />
<glyph unicode="&#xbb;" horiz-adv-x="765" d="M74 942.5q2 15.5 14 25t27.5 7.5t23.5 -14q35 -43 178 -173l93 -81l30 -31q6 -6 11 -12q4 -4 6 -9q6 -12 4 -22q-2 -8 -6 -17q0 -2 -4 -6q-2 -4 -9 -14l-32 -39l-95 -117l-157 -192q-10 -10 -25.5 -12.5t-27 8t-13.5 26t8 27.5l158 190l94 115l27 33l-19 16l-92 82 q-150 133 -186 182q-10 12 -8 27.5zM367 958.5q2 14.5 15 23.5t27.5 7t24.5 -14q8 -14 60 -57l108 -93q70 -59 100 -90q23 -20 35 -35q8 -10 13 -16q10 -16 8 -31q-4 -35 -39 -100q-27 -49 -74 -123l-139 -215q-8 -12 -23.5 -15t-28 5t-15.5 23.5t5 27.5l140 213 q45 70 69 119q23 41 29 63v2l-29 29q-31 29 -100 86l-109 92q-57 51 -71 70q-8 14 -6 28.5z" />
<glyph unicode="&#xbc;" horiz-adv-x="1357" d="M87 -23.5q-3 15.5 5 27.5l885 1313q8 12 22.5 15t27.5 -5t16.5 -22.5t-5.5 -28.5l-884 -1313q-8 -12 -23.5 -15t-28 5t-15.5 23.5zM117 717q0 436 6 657q0 16 11 26.5t26.5 10.5t26 -11.5t10.5 -25.5q-6 -221 -7 -657q0 -14 -11 -25.5t-25.5 -11.5t-25.5 11t-11 26z M717 283q0 4 2 8t6 8q2 2 8 10l21 25l34 37q6 4 46 45l47 51l45 45q37 37 49 52.5t42 48t44 55.5l37 49q23 29 39 55.5t30 52.5q2 16 12.5 25.5t26.5 9.5q14 0 24.5 -11.5t10.5 -27.5q-2 -55 -9 -170.5t-10 -205t1 -169.5q84 -2 106 -4q14 -2 24.5 -13t8.5 -26.5 t-13.5 -25.5t-27.5 -8q-20 2 -96 4q8 -94 24 -174q2 -16 -6 -28.5t-23.5 -15.5t-27.5 5t-16 22q-16 90 -25 193q-78 2 -137 4q-121 4 -180 10q-39 4 -62 8q-14 2 -24 6q-18 6 -27.5 20.5t-3.5 29.5zM819 295q8 -2 21 -2q59 -6 176 -10q57 -2 133 -4q-4 129 10 397 q-18 -29 -41 -55l-45 -56l-45 -51q-16 -20 -49 -53l-45 -47l-49 -52l-43 -45z" />
<glyph unicode="&#xbd;" horiz-adv-x="1292" d="M75 -23.5q-3 15.5 5 27.5l885 1313q8 12 22 15t27.5 -5t16.5 -22.5t-5 -28.5l-885 -1313q-8 -12 -23.5 -15t-27.5 5t-15 23.5zM104 717q0 436 7 657q0 16 11 26.5t26.5 10.5t25.5 -11.5t10 -25.5q-6 -221 -6 -657q0 -14 -11 -25.5t-25.5 -11.5t-26 11t-11.5 26zM803 39 q0 6 2 10t4 6q0 2 2 4q0 2 2 4l4 5l14 16l46 47q66 70 71 78q154 184 185 321q18 76 0 117q-14 27 -46 31q-35 2 -77.5 -27.5t-71.5 -87.5q-6 -14 -20.5 -18t-29 2t-18.5 20.5t2 28.5q35 74 98.5 117t125.5 37q72 -6 102 -72q31 -63 8 -164q-37 -156 -200 -354 q-8 -8 -76 -80l-2 -2q25 2 141.5 0t140.5 -2q14 0 25.5 -11.5t11.5 -25.5t-11 -25.5t-26 -11.5q-2 0 -158.5 3t-158.5 -3q-2 0 -6 -2q-6 -2 -17 -4q-39 -8 -59 16q-8 12 -8 27z" />
<glyph unicode="&#xbe;" horiz-adv-x="1486" d="M41 667.5q-4 14.5 2 29t20.5 18.5t28.5 -2q41 -23 127 -13q84 8 164 45t113 86q29 47 0 99q-66 119 -234 88l-29 -10q-31 -10 -55 -2q-25 6 -31 26q-8 27 13 45q10 8 33 21q10 4 24 9t23 9l12 6q6 4 52 31t69 45q55 43 45 84q-8 37 -35 47t-74 2q-70 -14 -166 -69 q-14 -6 -28.5 -2t-21.5 17t-3 27.5t16 22.5q106 59 189 76q70 14 117 -6q61 -25 80 -99q18 -86 -72 -159q-25 -18 -66 -43q139 -12 207 -129q49 -90 -4 -176q-43 -66 -143 -113q-88 -41 -186.5 -51.5t-168.5 20.5q-14 6 -18 20.5zM218 -23.5q-3 15.5 5 27.5l885 1313 q8 12 22.5 15t27.5 -5t16.5 -22.5t-5.5 -28.5l-884 -1313q-8 -12 -23.5 -15t-28 5t-15.5 23.5zM848 283q0 4 2 8t6 8q2 2 8 10l21 25l35 37q6 4 45 45l47 51l45 45q37 37 49 52.5t42 48t44 55.5l37 49q23 29 39 55.5t30 52.5q2 16 12.5 25.5t26.5 9.5q14 0 24.5 -11.5 t10.5 -27.5q-2 -55 -9 -170.5t-10 -205t1 -169.5q84 -2 106 -4q14 -2 24.5 -13t8.5 -26.5t-13.5 -25.5t-27.5 -8q-20 2 -96 4q8 -94 24 -174q2 -16 -6 -28.5t-23.5 -15.5t-27.5 5t-16 22q-16 90 -25 193q-78 2 -137 4q-121 4 -180 10q-39 4 -62 8q-14 2 -24 6 q-18 6 -27.5 20.5t-3.5 29.5zM950 295q8 -2 21 -2q59 -6 176 -10q57 -2 133 -4q-4 129 10 397q-18 -29 -41 -55l-45 -56l-45 -51q-16 -20 -49 -53l-45 -47l-49 -52l-43 -45z" />
<glyph unicode="&#xbf;" horiz-adv-x="690" d="M72 231q10 39 24.5 82t24.5 70t35.5 79t33 64.5t41 75t35.5 66.5q68 123 105 219t41 198q0 14 11 24.5t26.5 10.5t25.5 -11t10 -28q-6 -115 -45 -218t-110 -232q-6 -12 -31 -58l-35 -61l-27.5 -55t-29.5 -61.5t-23.5 -56.5t-22.5 -63.5t-16 -60.5q-16 -70 7 -102 q18 -27 63 -31q49 -4 109.5 14.5t105.5 46.5q117 76 197 203q8 12 22.5 15.5t27.5 -5t16 -23t-5 -28.5q-86 -139 -217 -223q-55 -35 -128 -57.5t-134 -16.5q-80 8 -117 62q-43 59 -20 161zM401 1398.5q0 14.5 11.5 26t26 11.5t25.5 -11.5t11 -26t-11 -25.5t-25.5 -11t-26 11 t-11.5 25.5z" />
<glyph unicode="&#xc0;" d="M54.5 878.5q-5.5 14.5 0.5 28t20.5 18.5t26.5 -1q61 -27 127 -33l17 43q74 172 194 326q80 100 154 147q96 63 182 35q74 -25 94 -90q16 -51 -4 -121q-31 -104 -114 -195q-96 -102 -220 -164q-123 -59 -253 -59q-117 -317 -101 -526q10 -117 62 -181q57 -70 153 -36 q66 23 131 123q59 90 117 239q63 166 141 475l33 129l23 84q4 18 8 29q2 6 2 10q2 2 4 6q0 2 2 6q4 2 6 7q10 8 25 8q23 0 33 -19l4 -12v-10v-15q-2 -16 -7 -45l-22 -149q-35 -252 -45 -391q-14 -207 29 -326q45 -125 139 -151q94 -29 176 69q10 10 25.5 12.5t26.5 -8 t13.5 -26t-8.5 -27.5q-113 -133 -254 -92q-61 18 -111 70.5t-77 128.5q-47 133 -33 354q2 31 6 67q-33 -111 -71 -210q-61 -158 -123 -254q-80 -123 -168 -152q-145 -49 -236 59q-66 82 -78 224q-16 214 99 536q-68 10 -129 39q-14 6 -19.5 20.5zM307 887q106 8 208.5 60 t182.5 138q72 78 99 168q14 47 4 77t-49 42q-51 16 -117 -26q-63 -41 -135 -134q-115 -147 -185 -307zM584 1654.5q-2 14.5 8 27t24.5 14.5t26.5 -8q135 -106 215 -144q14 -6 19.5 -20.5t-1 -27.5t-20.5 -18t-27 1q-90 39 -231 151q-12 10 -14 24.5z" />
<glyph unicode="&#xc1;" d="M54.5 878.5q-5.5 14.5 0.5 28t20.5 18.5t26.5 -1q61 -27 127 -33l17 43q74 172 194 326q80 100 154 147q96 63 182 35q74 -25 94 -90q16 -51 -4 -121q-31 -104 -114 -195q-96 -102 -220 -164q-123 -59 -253 -59q-117 -317 -101 -526q10 -117 62 -181q57 -70 153 -36 q66 23 131 123q59 90 117 239q63 166 141 475l33 129l23 84q4 18 8 29q2 6 2 10q2 2 4 6q0 2 2 6q4 2 6 7q10 8 25 8q23 0 33 -19l4 -12v-10v-15q-2 -16 -7 -45l-22 -149q-35 -252 -45 -391q-14 -207 29 -326q45 -125 139 -151q94 -29 176 69q10 10 25.5 12.5t26.5 -8 t13.5 -26t-8.5 -27.5q-113 -133 -254 -92q-61 18 -111 70.5t-77 128.5q-47 133 -33 354q2 31 6 67q-33 -111 -71 -210q-61 -158 -123 -254q-80 -123 -168 -152q-145 -49 -236 59q-66 82 -78 224q-16 214 99 536q-68 10 -129 39q-14 6 -19.5 20.5zM307 887q106 8 208.5 60 t182.5 138q72 78 99 168q14 47 4 77t-49 42q-51 16 -117 -26q-63 -41 -135 -134q-115 -147 -185 -307zM503 1487q-5 14 1 27.5t20 19.5q66 23 168 78q129 70 174 88q14 6 27.5 1t20 -19.5t1 -28t-19.5 -19.5l-168 -86q-106 -59 -178 -84q-14 -4 -27.5 2.5t-18.5 20.5z" />
<glyph unicode="&#xc2;" d="M54.5 878.5q-5.5 14.5 0.5 28t20.5 18.5t26.5 -1q61 -27 127 -33l17 43q74 172 194 326q80 100 154 147q96 63 182 35q74 -25 94 -90q16 -51 -4 -121q-31 -104 -114 -195q-96 -102 -220 -164q-123 -59 -253 -59q-117 -317 -101 -526q10 -117 62 -181q57 -70 153 -36 q66 23 131 123q59 90 117 239q63 166 141 475l33 129l23 84q4 18 8 29q2 6 2 10q2 2 4 6q0 2 2 6q4 2 6 7q10 8 25 8q23 0 33 -19l4 -12v-10v-15q-2 -16 -7 -45l-22 -149q-35 -252 -45 -391q-14 -207 29 -326q45 -125 139 -151q94 -29 176 69q10 10 25.5 12.5t26.5 -8 t13.5 -26t-8.5 -27.5q-113 -133 -254 -92q-61 18 -111 70.5t-77 128.5q-47 133 -33 354q2 31 6 67q-33 -111 -71 -210q-61 -158 -123 -254q-80 -123 -168 -152q-145 -49 -236 59q-66 82 -78 224q-16 214 99 536q-68 10 -129 39q-14 6 -19.5 20.5zM307 887q106 8 208.5 60 t182.5 138q72 78 99 168q14 47 4 77t-49 42q-51 16 -117 -26q-63 -41 -135 -134q-115 -147 -185 -307zM476.5 1478.5q3.5 14.5 15.5 22.5q8 6 40 41l68 82l64 80l22 25q4 6 8 10l4 4q4 2 7 4q10 4 22 4q29 -4 45 -35q4 -8 6 -14l2 -4q25 -33 158 -197q10 -10 8 -25.5 t-13 -25.5t-26.5 -8t-25.5 14q-133 164 -158 197l-2 2l-64 -76l-69 -84q-39 -45 -56 -55q-14 -8 -28.5 -5t-22.5 16t-4.5 27.5z" />
<glyph unicode="&#xc3;" d="M54.5 878.5q-5.5 14.5 0.5 28t20.5 18.5t26.5 -1q61 -27 127 -33l17 43q74 172 194 326q80 100 154 147q96 63 182 35q74 -25 94 -90q16 -51 -4 -121q-31 -104 -114 -195q-96 -102 -220 -164q-123 -59 -253 -59q-117 -317 -101 -526q10 -117 62 -181q57 -70 153 -36 q66 23 131 123q59 90 117 239q63 166 141 475l33 129l23 84q4 18 8 29q2 6 2 10q2 2 4 6q0 2 2 6q4 2 6 7q10 8 25 8q23 0 33 -19l4 -12v-10v-15q-2 -16 -7 -45l-22 -149q-35 -252 -45 -391q-14 -207 29 -326q45 -125 139 -151q94 -29 176 69q10 10 25.5 12.5t26.5 -8 t13.5 -26t-8.5 -27.5q-113 -133 -254 -92q-61 18 -111 70.5t-77 128.5q-47 133 -33 354q2 31 6 67q-33 -111 -71 -210q-61 -158 -123 -254q-80 -123 -168 -152q-145 -49 -236 59q-66 82 -78 224q-16 214 99 536q-68 10 -129 39q-14 6 -19.5 20.5zM307 887q106 8 208.5 60 t182.5 138q72 78 99 168q14 47 4 77t-49 42q-51 16 -117 -26q-63 -41 -135 -134q-115 -147 -185 -307zM494 1524.5q-2 15.5 8 25.5q76 94 139 103q47 8 107 -35q45 -31 69 -35q43 -4 107 43q12 10 27.5 8t24.5 -14t7 -27.5t-14 -23.5q-88 -68 -162 -58q-41 4 -102 48 q-35 25 -52 22q-37 -6 -94 -76q-10 -12 -25.5 -14t-26.5 8t-13 25.5z" />
<glyph unicode="&#xc4;" d="M54.5 878.5q-5.5 14.5 0.5 28t20.5 18.5t26.5 -1q61 -27 127 -33l17 43q74 172 194 326q80 100 154 147q96 63 182 35q74 -25 94 -90q16 -51 -4 -121q-31 -104 -114 -195q-96 -102 -220 -164q-123 -59 -253 -59q-117 -317 -101 -526q10 -117 62 -181q57 -70 153 -36 q66 23 131 123q59 90 117 239q63 166 141 475l33 129l23 84q4 18 8 29q2 6 2 10q2 2 4 6q0 2 2 6q4 2 6 7q10 8 25 8q23 0 33 -19l4 -12v-10v-15q-2 -16 -7 -45l-22 -149q-35 -252 -45 -391q-14 -207 29 -326q45 -125 139 -151q94 -29 176 69q10 10 25.5 12.5t26.5 -8 t13.5 -26t-8.5 -27.5q-113 -133 -254 -92q-61 18 -111 70.5t-77 128.5q-47 133 -33 354q2 31 6 67q-33 -111 -71 -210q-61 -158 -123 -254q-80 -123 -168 -152q-145 -49 -236 59q-66 82 -78 224q-16 214 99 536q-68 10 -129 39q-14 6 -19.5 20.5zM307 887q106 8 208.5 60 t182.5 138q72 78 99 168q14 47 4 77t-49 42q-51 16 -117 -26q-63 -41 -135 -134q-115 -147 -185 -307zM551 1562.5q0 14.5 11 25.5t25.5 11t26 -11t11.5 -25.5t-11.5 -25.5t-26 -11t-25.5 11t-11 25.5zM782 1558.5q0 14.5 11.5 25.5t26 11t25.5 -11t11 -25.5t-11 -25.5 t-25.5 -11t-26 11t-11.5 25.5z" />
<glyph unicode="&#xc5;" d="M54.5 878.5q-5.5 14.5 0.5 28t20.5 18.5t26.5 -1q61 -27 127 -33l17 43q74 172 194 326q70 86 135 135q-10 2 -18 4q-61 20 -84 65q-18 41 4 88q16 37 54 68t79 41q74 23 160 13.5t131 -46.5q31 -23 37 -55q6 -35 -18 -68q-31 -41 -109 -80q45 -27 59 -73q16 -51 -4 -121 q-31 -104 -114 -195q-96 -102 -220 -164q-123 -59 -253 -59q-117 -317 -101 -526q10 -117 62 -181q57 -70 153 -36q66 23 131 123q59 90 117 239q63 166 141 475l33 129l23 84q4 18 8 29q2 6 2 10q2 2 4 6q0 2 2 6q4 2 6 7q10 8 25 8q23 0 33 -19l4 -12v-10v-15 q-2 -16 -7 -45l-22 -149q-35 -252 -45 -391q-14 -207 29 -326q45 -125 139 -151q94 -29 176 69q10 10 25.5 12.5t26.5 -8t13.5 -26t-8.5 -27.5q-113 -133 -254 -92q-61 18 -111 70.5t-77 128.5q-47 133 -33 354q2 31 6 67q-33 -111 -71 -210q-61 -158 -123 -254 q-80 -123 -168 -152q-145 -49 -236 59q-66 82 -78 224q-16 215 99 536q-68 10 -129 39q-14 6 -19.5 20.5zM307 887q106 8 208.5 60t182.5 138q72 78 99 168q14 47 4 77t-49 42q-51 16 -117 -26q-63 -41 -135 -134q-115 -147 -185 -307zM541 1495q6 -14 41 -27q20 -6 67 -6 q12 0 36 1t26 1t6 2q115 43 143 82l4 13q0 4 -8 10q-29 23 -93.5 30t-131.5 -10q-29 -8 -53.5 -28.5t-34.5 -40.5q-8 -16 -2 -27z" />
<glyph unicode="&#xc6;" horiz-adv-x="1300" d="M54.5 878.5q-5.5 14.5 0.5 28t20.5 18.5t26.5 -1q61 -27 127 -33l17 43q74 172 194 326q80 100 154 147q96 63 182 35q74 -25 94 -90q16 -51 -4 -121q-31 -104 -114 -195q-96 -102 -220 -164q-123 -59 -253 -59q-117 -317 -101 -526q10 -117 62 -181q57 -70 153 -36 q66 23 131 123q59 90 117 239q63 166 141 475l33 129l23 84q4 18 8 29q2 6 2 10q2 2 4 6v2q41 133 207 205q139 59 309 60q14 0 25.5 -11.5t11.5 -26t-11.5 -25.5t-25.5 -11q-154 0 -278 -53q-139 -59 -168 -162v-6q0 -12 -2 -31q-2 -39 -9 -100q-12 -139 -24 -220l-21 -131 q70 8 340 76q16 4 29.5 -3t16.5 -22.5t-4 -28.5t-21 -15q-10 -4 -68 -19l-78 -20q-25 -6 -70.5 -16.5t-82.5 -16.5t-74 -10q-16 -143 -2 -250q27 -205 145.5 -256t286.5 69q12 8 26.5 6t23.5 -15t7 -27.5t-16 -24.5q-201 -143 -356.5 -75.5t-190.5 315.5q-14 111 2 258 q-6 0 -10 4q-31 -96 -61 -178q-59 -156 -123 -254q-80 -123 -168 -152q-145 -49 -236 59q-66 82 -78 224q-16 214 99 536q-68 10 -129 39q-14 6 -19.5 20.5zM307 887q106 8 208.5 60t182.5 138q72 78 99 168q14 47 4 77t-49 42q-51 16 -117 -26q-63 -41 -135 -134 q-115 -147 -185 -307z" />
<glyph unicode="&#xc7;" horiz-adv-x="651" d="M45 606q-8 180 28 357.5t124 316.5q72 117 153 137q78 20 146 -45q53 -51 86.5 -140t35.5 -175q0 -16 -10 -27.5t-25.5 -11.5t-26.5 10.5t-11 24.5q-2 76 -31 151.5t-70 114.5q-39 37 -77 27q-51 -12 -109 -103q-80 -131 -113.5 -297t-25.5 -336q14 -291 112 -448 q80 -129 187 -125q102 4 180 133q88 150 88 393q0 14 11.5 25.5t25.5 11.5t25.5 -11t11.5 -26q0 -264 -98 -430q-98 -164 -242 -170h-29q-14 -63 -41.5 -109.5t-81.5 -84.5q-12 -10 -27.5 -8.5t-24.5 14t-7 28t14 23.5q43 33 63.5 67.5t32.5 88.5q-86 39 -151 141 q-106 172 -123 483z" />
<glyph unicode="&#xc8;" horiz-adv-x="833" d="M84 434.5q8 116.5 60.5 221t138.5 180.5q20 18 43 34q-18 6 -37 17q-84 43 -125 117q-41 72 -31 165q12 121 96 191q82 72 189 76q92 2 164 -45l14 12q12 10 27.5 8t24.5 -14.5t7 -27.5t-14 -23l-4 -5q53 -63 63 -157v-4q14 -119 -59 -152q-37 -14 -70.5 -4t-60.5 37 q-61 59 -47 151q10 63 63 127q-47 25 -106 23q-80 -2 -141 -55q-63 -53 -72 -146q-14 -143 115 -209q63 -33 129 -41h10l10 2h12q18 2 31 -4q16 -6 24.5 -20.5t2.5 -30.5q-4 -18 -19 -24l-10 -5h-8q-4 -2 -14.5 -2t-34.5 2h-37q-12 0 -12 2q-27 -8 -74 -49 q-117 -106 -158 -254.5t23 -287.5q61 -121 185 -175.5t261 -30t238 117.5q10 10 25.5 10t25.5 -11.5t10 -26.5t-12 -26q-115 -106 -272.5 -135t-305 34.5t-221.5 209.5q-55 111 -47 227.5zM294 1616.5q-3 15.5 5 28t23.5 15.5t27.5 -5q66 -45 250 -129q14 -6 19.5 -20.5 t-1 -28t-20.5 -18.5t-27 1q-12 4 -43 19l-47 20q-14 6 -41.5 19.5t-46.5 23.5l-41 23q-23 14 -43 28q-12 8 -15 23.5zM537 1200q-8 -53 26 -88q27 -27 47 -18q23 10 19 69q-2 2 -2 6q-6 74 -43 123q-41 -47 -47 -92z" />
<glyph unicode="&#xc9;" horiz-adv-x="833" d="M84 434.5q8 116.5 60.5 221t138.5 180.5q20 18 43 34q-18 6 -37 17q-84 43 -125 117q-41 72 -31 165q12 121 96 191q82 72 189 76q92 2 164 -45l14 12q12 10 27.5 8t24.5 -14.5t7 -27.5t-14 -23l-4 -5q53 -63 63 -157v-4q14 -119 -59 -152q-37 -14 -70.5 -4t-60.5 37 q-61 59 -47 151q10 63 63 127q-47 25 -106 23q-80 -2 -141 -55q-63 -53 -72 -146q-14 -143 115 -209q63 -33 129 -41h10l10 2h12q18 2 31 -4q16 -6 24.5 -20.5t2.5 -30.5q-4 -18 -19 -24l-10 -5h-8q-4 -2 -14.5 -2t-34.5 2h-37q-12 0 -12 2q-27 -8 -74 -49 q-117 -106 -158 -254.5t23 -287.5q61 -121 185 -175.5t261 -30t238 117.5q10 10 25.5 10t25.5 -11.5t10 -26.5t-12 -26q-115 -106 -272.5 -135t-305 34.5t-221.5 209.5q-55 111 -47 227.5zM238.5 1519.5q5.5 14.5 17.5 20.5q172 82 270 162q10 10 25.5 8t26 -13t8.5 -26.5 t-15 -25.5q-104 -86 -282 -170q-14 -6 -28.5 -1t-21 18t-1 27.5zM537 1200q-8 -53 26 -88q27 -27 47 -18q23 10 19 69q-2 2 -2 6q-6 74 -43 123q-41 -47 -47 -92z" />
<glyph unicode="&#xca;" horiz-adv-x="833" d="M84 434.5q8 116.5 60.5 221t138.5 180.5q20 18 43 34q-18 6 -37 17q-84 43 -125 117q-41 72 -31 165q12 121 96 191q82 72 189 76q92 2 164 -45l14 12q12 10 27.5 8t24.5 -14.5t7 -27.5t-14 -23l-4 -5q53 -63 63 -157v-4q14 -119 -59 -152q-37 -14 -70.5 -4t-60.5 37 q-61 59 -47 151q10 63 63 127q-47 25 -106 23q-80 -2 -141 -55q-63 -53 -72 -146q-14 -143 115 -209q63 -33 129 -41h10l10 2h12q18 2 31 -4q16 -6 24.5 -20.5t2.5 -30.5q-4 -18 -19 -24l-10 -5h-8q-4 -2 -14.5 -2t-34.5 2h-37q-12 0 -12 2q-27 -8 -74 -49 q-117 -106 -158 -254.5t23 -287.5q61 -121 185 -175.5t261 -30t238 117.5q10 10 25.5 10t25.5 -11.5t10 -26.5t-12 -26q-115 -106 -272.5 -135t-305 34.5t-221.5 209.5q-55 111 -47 227.5zM184 1479.5q-2 15.5 6 27.5q18 23 35 47l33 48q14 23 21 32q41 61 75 72 q45 12 101 -41q31 -31 118 -137q10 -10 8.5 -25.5t-13 -26t-27 -8.5t-25.5 15q-90 109 -113 129q-20 20 -30 22q-8 -4 -33 -41q-6 -10 -23 -32l-32 -50l-33 -49q-10 -12 -25.5 -14t-28 7t-14.5 24.5zM537 1200q-8 -53 26 -88q27 -27 47 -18q23 10 19 69q-2 2 -2 6 q-6 74 -43 123q-41 -47 -47 -92z" />
<glyph unicode="&#xcb;" horiz-adv-x="833" d="M84 434.5q8 116.5 60.5 221t138.5 180.5q20 18 43 34q-18 6 -37 17q-84 43 -125 117q-41 72 -31 165q12 121 96 191q82 72 189 76q92 2 164 -45l14 12q12 10 27.5 8t24.5 -14.5t7 -27.5t-14 -23l-4 -5q53 -63 63 -157v-4q14 -119 -59 -152q-37 -14 -70.5 -4t-60.5 37 q-61 59 -47 151q10 63 63 127q-47 25 -106 23q-80 -2 -141 -55q-63 -53 -72 -146q-14 -143 115 -209q63 -33 129 -41h10l10 2h12q18 2 31 -4q16 -6 24.5 -20.5t2.5 -30.5q-4 -18 -19 -24l-10 -5h-8q-4 -2 -14.5 -2t-34.5 2h-37q-12 0 -12 2q-27 -8 -74 -49 q-117 -106 -158 -254.5t23 -287.5q61 -121 185 -175.5t261 -30t238 117.5q10 10 25.5 10t25.5 -11.5t10 -26.5t-12 -26q-115 -106 -272.5 -135t-305 34.5t-221.5 209.5q-55 111 -47 227.5zM262 1544.5q0 14.5 11.5 25.5t25.5 11t25.5 -11t11.5 -25.5t-11.5 -26t-25.5 -11.5 t-25.5 11.5t-11.5 26zM440 1546.5q0 14.5 11.5 25.5t26 11t25.5 -11t11 -25.5t-11 -26t-25.5 -11.5t-26 11.5t-11.5 26zM537 1200q-8 -53 26 -88q27 -27 47 -18q23 10 19 69q-2 2 -2 6q-6 74 -43 123q-41 -47 -47 -92z" />
<glyph unicode="&#xcc;" horiz-adv-x="768" d="M111 266q-8 35 10 58q4 6 22 20l35 27l98 69h3q-23 102 -31 219q-14 178 24 447q12 88 56 192q27 66 53 103q45 57 96 47q100 -20 137 -180q10 -41 25 -201q16 -184 -37 -524q-29 -170 -65 -295q-23 -76 -50 -127q47 -51 101 -62q96 -18 229 88q12 10 26.5 8.5t25 -14 t8 -27t-14.5 -24.5q-158 -127 -287 -104q-70 14 -126 69q-4 -6 -11 -12q-45 -51 -121 -16q-53 23 -108 79q-49 53 -78 107q-16 29 -20 53zM182 281q2 -12 13 -33q25 -45 67 -90q45 -47 84 -64q29 -12 39 -2q6 8 14 21q-8 12 -16 26q-51 90 -88 223l-74 -51l-33 -24z M299 1591.5q-4 14.5 2 28.5t20.5 18t28.5 -2q190 -94 262 -118q14 -4 20.5 -18.5t2.5 -29t-18.5 -20.5t-28.5 -2q-76 25 -271 123q-14 6 -18 20.5zM322 664q6 -92 22 -179l105 70q12 6 27.5 2t22.5 -16.5t3 -27.5t-17 -24q-27 -14 -125 -81q31 -132 78 -218q14 37 29 80 q35 119 61 283q53 332 37 506q-14 158 -22 192q-27 113 -78 123q-8 2 -25 -18q-23 -29 -45 -84q-39 -98 -49 -178q-37 -256 -24 -430z" />
<glyph unicode="&#xcd;" horiz-adv-x="768" d="M111 266q-8 35 10 58q4 6 22 20l35 27l98 69h3q-23 102 -31 219q-14 178 24 447q12 88 56 192q27 66 53 103q45 57 96 47q100 -20 137 -180q10 -41 25 -201q16 -184 -37 -524q-29 -170 -65 -295q-23 -76 -50 -127q47 -51 101 -62q96 -18 229 88q12 10 26.5 8.5t25 -14 t8 -27t-14.5 -24.5q-158 -127 -287 -104q-70 14 -126 69q-4 -6 -11 -12q-45 -51 -121 -16q-53 23 -108 79q-49 53 -78 107q-16 29 -20 53zM182 281q2 -12 13 -33q25 -45 67 -90q45 -47 84 -64q29 -12 39 -2q6 8 14 21q-8 12 -16 26q-51 90 -88 223l-74 -51l-33 -24z M296 1513.5q5 14.5 17 20.5q18 8 37 19.5t31 19.5t33 26l28 25l35 29q27 23 31 28q12 8 27.5 7.5t24.5 -12t8 -27t-11 -25.5q-6 -4 -33 -27l-32 -28q-8 -8 -32 -26.5t-38 -29t-34.5 -23.5t-41.5 -22q-14 -6 -28.5 -0.5t-20.5 18.5t-1 27.5zM322 664q6 -92 22 -179l105 70 q12 6 27.5 2t22.5 -16.5t3 -27.5t-17 -24q-27 -14 -125 -81q31 -132 78 -218q14 37 29 80q35 119 61 283q53 332 37 506q-14 158 -22 192q-27 113 -78 123q-8 2 -25 -18q-23 -29 -45 -84q-39 -98 -49 -178q-37 -256 -24 -430z" />
<glyph unicode="&#xce;" horiz-adv-x="768" d="M111 266q-8 35 10 58q4 6 22 20l35 27l98 69h3q-23 102 -31 219q-14 178 24 447q12 88 56 192q27 66 53 103q45 57 96 47q100 -20 137 -180q10 -41 25 -201q16 -184 -37 -524q-29 -170 -65 -295q-23 -76 -50 -127q47 -51 101 -62q96 -18 229 88q12 10 26.5 8.5t25 -14 t8 -27t-14.5 -24.5q-158 -127 -287 -104q-70 14 -126 69q-4 -6 -11 -12q-45 -51 -121 -16q-53 23 -108 79q-49 53 -78 107q-16 29 -20 53zM182 281q2 -12 13 -33q25 -45 67 -90q45 -47 84 -64q29 -12 39 -2q6 8 14 21q-8 12 -16 26q-51 90 -88 223l-74 -51l-33 -24z M304 1485.5q-3 15.5 5 27.5q92 141 125 181q25 29 47 37q35 12 62 -15q12 -12 26 -43l25 -53q39 -84 86 -141q10 -10 8 -25.5t-13 -26t-26.5 -8.5t-25.5 15q-53 66 -97 155l-22 53q-4 6 -6 11l-9 -8q-29 -33 -118 -172q-8 -12 -23.5 -15.5t-28 4.5t-15.5 23.5zM322 664 q6 -92 22 -179l105 70q12 6 27.5 2t22.5 -16.5t3 -27.5t-17 -24q-27 -14 -125 -81q31 -132 78 -218q14 37 29 80q35 119 61 283q53 332 37 506q-14 158 -22 192q-27 113 -78 123q-8 2 -25 -18q-23 -29 -45 -84q-39 -98 -49 -178q-37 -256 -24 -430z" />
<glyph unicode="&#xcf;" horiz-adv-x="768" d="M111 266q-8 35 10 58q4 6 22 20l35 27l98 69h3q-23 102 -31 219q-14 178 24 447q12 88 56 192q27 66 53 103q45 57 96 47q100 -20 137 -180q10 -41 25 -201q16 -184 -37 -524q-29 -170 -65 -295q-23 -76 -50 -127q47 -51 101 -62q96 -18 229 88q12 10 26.5 8.5t25 -14 t8 -27t-14.5 -24.5q-158 -127 -287 -104q-70 14 -126 69q-4 -6 -11 -12q-45 -51 -121 -16q-53 23 -108 79q-49 53 -78 107q-16 29 -20 53zM182 281q2 -12 13 -33q25 -45 67 -90q45 -47 84 -64q29 -12 39 -2q6 8 14 21q-8 12 -16 26q-51 90 -88 223l-74 -51l-33 -24zM322 664 q6 -92 22 -179l105 70q12 6 27.5 2t22.5 -16.5t3 -27.5t-17 -24q-27 -14 -125 -81q31 -132 78 -218q14 37 29 80q35 119 61 283q53 332 37 506q-14 158 -22 192q-27 113 -78 123q-8 2 -25 -18q-23 -29 -45 -84q-39 -98 -49 -178q-37 -256 -24 -430zM338 1544.5 q0 14.5 11 25.5t25.5 11t26 -11t11.5 -25.5t-11.5 -26t-26 -11.5t-25.5 11.5t-11 26zM502 1544.5q0 14.5 11 25.5t25.5 11t25.5 -11t11 -25.5t-11 -26t-25.5 -11.5t-25.5 11.5t-11 26z" />
<glyph unicode="&#xd0;" horiz-adv-x="1177" d="M-51 843.5q0 14.5 10 27t25 12.5q55 2 166 12q-6 248 -15 446q-14 0 -24.5 11.5t-10.5 26t11.5 25.5t25.5 11q180 0 392 -147.5t366 -360.5q162 -227 188 -434q31 -242 -139 -385q-27 -20 -53 -39q63 -14 117 -16q137 -2 202 102q8 12 22.5 15.5t28 -5t16.5 -22.5t-5 -29 q-88 -139 -266 -135q-90 2 -218 43q-195 -68 -423 -4q-78 20 -117 39q-10 4 -19 10q0 -12 -2 -24q-2 -16 -14 -25.5t-27.5 -7.5t-24.5 14t-7 27q12 96 13 197.5t-6 249t-7 202.5q-2 76 -2 141l-164 -12q-14 0 -26.5 10t-12.5 24.5zM209 1333q8 -193 14 -432q117 10 195 10 q14 0 25.5 -11t11.5 -25.5t-11.5 -25.5t-25.5 -11q-78 0 -193 -11q0 -68 2 -147q0 -41 7.5 -207t5.5 -256q63 29 178 -2q39 -10 86 -27l117 -45q72 -27 92 -37l73 -26q61 25 109 65q141 117 115 320q-23 186 -174 399q-129 178 -302.5 309.5t-324.5 159.5zM244 127 q8 -10 37 -23q33 -16 104 -36q142 -37 277 -21q-213 84 -263 96q-121 31 -155 -14v-2z" />
<glyph unicode="&#xd1;" d="M180 25q2 45 8 188l7 201q2 57 5 182t3 201v182q0 106 -4 200.5t-11 186.5q0 14 9.5 25.5t25 12.5t26.5 -8.5t13 -25.5q6 -94 10 -194q80 131 195 198q109 61 207 39q113 -25 188 -153q90 -158 90 -435q0 -68 -10 -225.5t-12 -208.5q0 -14 -3 -69.5t-3 -80t4 -63.5 t14 -67q20 -59 53 -80q25 -18 58 -11q35 6 70.5 36t62.5 73q8 14 22.5 17.5t27.5 -5t16 -23t-5 -26.5q-33 -53 -80 -93t-98 -52q-63 -12 -114.5 22.5t-82.5 116.5q-12 33 -17 80t-5 75.5t3 86t3 67.5q2 51 12 211q10 137 11 219q0 258 -82 398q-57 102 -140 118 q-72 16 -153 -30q-80 -47 -143.5 -135.5t-81.5 -178.5q-3 -2 -3 -4q0 -309 -22 -973q0 -14 -11.5 -24t-26.5 -10t-25.5 11t-10.5 28zM331 1526.5q3 15.5 15 23.5q10 6 53 41q37 31 66 43q66 31 117 0q10 -6 22 -16l25 -25q12 -12 14 -16q25 -23 51 -21q45 2 129 58 q12 8 27.5 5t24 -15.5t5.5 -27.5t-16 -24q-98 -68 -166 -69q-57 -2 -104 41l-25 24q-16 16 -26 23q-16 10 -45 -2q-20 -10 -52 -35q-47 -37 -59 -45t-27.5 -5t-23.5 15t-5 27.5z" />
<glyph unicode="&#xd2;" horiz-adv-x="1019" d="M55 666q6 250 78 462q78 231 199 299q14 6 24.5 12.5t18.5 9.5t16 7t13.5 6t15.5 4t14 3t17.5 4.5t19.5 5.5h14q102 12 189 -97q70 -90 110 -229q55 -188 58 -369q2 -106 -21 -237q-20 -133 -63 -250q-49 -129 -121 -205q45 -27 90 -43q203 -72 334 86q10 10 25.5 12.5 t26.5 -8t13 -26t-8 -27.5q-59 -68 -131 -101.5t-141.5 -32.5t-143.5 28q-61 23 -124 63q-84 -57 -187 -49q-180 14 -268 227q-74 178 -68 445zM129 664q-6 -252 61 -414q72 -172 205 -182q64 -7 117 22q-92 72 -162 166q-94 129 -130 307t-19 346q16 168 71 324q12 35 29 67 q-55 -72 -98 -196q-68 -201 -74 -440zM273.5 903q-15.5 -160 19.5 -321q33 -162 119 -281q71 -98 161 -166q68 63 115 189q41 109 60.5 235.5t19.5 224.5q-2 170 -53 349q-37 125 -101 202q-76 98 -159 58q-29 -14 -64 -78q-29 -47 -49 -107q-53 -145 -68.5 -305z M308.5 1643.5q-3.5 15.5 5 27.5t24 15t27.5 -5q154 -100 262 -149q14 -6 19 -19.5t-1 -28t-19.5 -19.5t-27.5 1q-115 49 -274 154q-12 8 -15.5 23.5z" />
<glyph unicode="&#xd3;" horiz-adv-x="1019" d="M55 666q6 250 78 462q78 231 199 299q14 6 24.5 12.5t18.5 9.5t16 7t13.5 6t15.5 4t14 3t17.5 4.5t19.5 5.5h14q102 12 189 -97q70 -90 110 -229q55 -188 58 -369q2 -106 -21 -237q-20 -133 -63 -250q-49 -129 -121 -205q45 -27 90 -43q203 -72 334 86q10 10 25.5 12.5 t26.5 -8t13 -26t-8 -27.5q-59 -68 -131 -101.5t-141.5 -32.5t-143.5 28q-61 23 -124 63q-84 -57 -187 -49q-180 14 -268 227q-74 178 -68 445zM129 664q-6 -252 61 -414q72 -172 205 -182q64 -7 117 22q-92 72 -162 166q-94 129 -130 307t-19 346q16 168 71 324q12 35 29 67 q-55 -72 -98 -196q-68 -201 -74 -440zM273.5 903q-15.5 -160 19.5 -321q33 -162 119 -281q71 -98 161 -166q68 63 115 189q41 109 60.5 235.5t19.5 224.5q-2 170 -53 349q-37 125 -101 202q-76 98 -159 58q-29 -14 -64 -78q-29 -47 -49 -107q-53 -145 -68.5 -305zM292 1491 q-5 14 0 28.5t19 20.5q59 25 144 92q109 88 149 111q14 6 28.5 2t22 -17.5t3 -27.5t-16.5 -23q-41 -23 -141 -102q-94 -74 -160 -105q-14 -4 -28.5 1.5t-19.5 19.5z" />
<glyph unicode="&#xd4;" horiz-adv-x="1019" d="M55 666q6 250 78 462q78 231 199 299q14 6 24.5 12.5t18.5 9.5t16 7t13.5 6t15.5 4t14 3t17.5 4.5t19.5 5.5h14q102 12 189 -97q70 -90 110 -229q55 -188 58 -369q2 -106 -21 -237q-20 -133 -63 -250q-49 -129 -121 -205q45 -27 90 -43q203 -72 334 86q10 10 25.5 12.5 t26.5 -8t13 -26t-8 -27.5q-59 -68 -131 -101.5t-141.5 -32.5t-143.5 28q-61 23 -124 63q-84 -57 -187 -49q-180 14 -268 227q-74 178 -68 445zM129 664q-6 -252 61 -414q72 -172 205 -182q64 -7 117 22q-92 72 -162 166q-94 129 -130 307t-19 346q16 168 71 324q12 35 29 67 q-55 -72 -98 -196q-68 -201 -74 -440zM254 1500.5q0 15.5 12 25.5q55 51 119 133q29 39 39 51q25 27 45 35q55 27 115 -45q39 -47 127 -199q6 -12 2 -27.5t-16.5 -22.5t-28 -3t-23.5 16q-84 145 -119 189q-18 23 -26 26q-8 -4 -21 -18l-37 -47q-70 -90 -127 -141 q-10 -10 -25.5 -10.5t-25.5 11t-10 27zM273.5 903q-15.5 -160 19.5 -321q33 -162 119 -281q71 -98 161 -166q68 63 115 189q41 109 60.5 235.5t19.5 224.5q-2 170 -53 349q-37 125 -101 202q-76 98 -159 58q-29 -14 -64 -78q-29 -47 -49 -107q-53 -145 -68.5 -305z" />
<glyph unicode="&#xd5;" horiz-adv-x="1019" d="M55 666q6 250 78 462q78 231 199 299q14 6 24.5 12.5t18.5 9.5t16 7t13.5 6t15.5 4t14 3t17.5 4.5t19.5 5.5h14q102 12 189 -97q70 -90 110 -229q55 -188 58 -369q2 -106 -21 -237q-20 -133 -63 -250q-49 -129 -121 -205q45 -27 90 -43q203 -72 334 86q10 10 25.5 12.5 t26.5 -8t13 -26t-8 -27.5q-59 -68 -131 -101.5t-141.5 -32.5t-143.5 28q-61 23 -124 63q-84 -57 -187 -49q-180 14 -268 227q-74 178 -68 445zM129 664q-6 -252 61 -414q72 -172 205 -182q64 -7 117 22q-92 72 -162 166q-94 129 -130 307t-19 346q16 168 71 324q12 35 29 67 q-55 -72 -98 -196q-68 -201 -74 -440zM225 1506.5q-2 15.5 8 27.5q113 147 189 166q63 16 123 -47q39 -43 55 -45q41 -2 125 86q10 12 25.5 12t26.5 -10t11 -25.5t-10 -25.5q-106 -117 -184 -111l-21 4q-10 2 -19 8t-16.5 10.5t-15.5 12.5l-12 12q-4 4 -11 12.5t-10 8.5 q-29 33 -49 28q-51 -14 -149 -141q-8 -12 -23.5 -14t-28 7t-14.5 24.5zM273.5 903q-15.5 -160 19.5 -321q33 -162 119 -281q71 -98 161 -166q68 63 115 189q41 109 60.5 235.5t19.5 224.5q-2 170 -53 349q-37 125 -101 202q-76 98 -159 58q-29 -14 -64 -78q-29 -47 -49 -107 q-53 -145 -68.5 -305z" />
<glyph unicode="&#xd6;" horiz-adv-x="1019" d="M55 666q6 250 78 462q78 231 199 299q14 6 24.5 12.5t18.5 9.5t16 7t13.5 6t15.5 4t14 3t17.5 4.5t19.5 5.5h14q102 12 189 -97q70 -90 110 -229q55 -188 58 -369q2 -106 -21 -237q-20 -133 -63 -250q-49 -129 -121 -205q45 -27 90 -43q203 -72 334 86q10 10 25.5 12.5 t26.5 -8t13 -26t-8 -27.5q-59 -68 -131 -101.5t-141.5 -32.5t-143.5 28q-61 23 -124 63q-84 -57 -187 -49q-180 14 -268 227q-74 178 -68 445zM129 664q-6 -252 61 -414q72 -172 205 -182q64 -7 117 22q-92 72 -162 166q-94 129 -130 307t-19 346q16 168 71 324q12 35 29 67 q-55 -72 -98 -196q-68 -201 -74 -440zM273.5 903q-15.5 -160 19.5 -321q33 -162 119 -281q71 -98 161 -166q68 63 115 189q41 109 60.5 235.5t19.5 224.5q-2 170 -53 349q-37 125 -101 202q-76 98 -159 58q-29 -14 -64 -78q-29 -47 -49 -107q-53 -145 -68.5 -305z M340 1603.5q0 14.5 11 25.5t25.5 11t26 -11t11.5 -25.5t-11.5 -25.5t-26 -11t-25.5 11t-11 25.5zM551 1603.5q0 14.5 11 25.5t25.5 11t26 -11t11.5 -25.5t-11.5 -25.5t-26 -11t-25.5 11t-11 25.5z" />
<glyph unicode="&#xd7;" horiz-adv-x="1024" d="M43 1167l53 50l414 -441l436 445l53 -54l-438 -444l416 -444l-53 -50l-414 441l-408 -414l-53 53l410 414z" />
<glyph unicode="&#xd8;" horiz-adv-x="1019" d="M55 666q6 250 78 462q78 231 199 299q14 6 24.5 12.5t18.5 9.5t16 7t13.5 6t15.5 4t14 3t17.5 4.5t19.5 5.5h14q102 12 189 -97q70 -90 110 -229q55 -188 58 -369q2 -106 -21 -237q-20 -133 -63 -250q-49 -129 -121 -205q45 -27 90 -43q203 -72 334 86q10 10 25.5 12.5 t26.5 -8t13 -26t-8 -27.5q-59 -68 -131 -101.5t-141.5 -32.5t-143.5 28q-61 23 -124 63q-84 -57 -187 -49q-180 14 -268 227q-74 178 -68 445zM129 664q-4 -168 27 -304l90 101q-57 197 -48 395.5t74 376.5q12 35 29 67q-55 -72 -98 -196q-68 -201 -74 -440zM180 276 q6 -14 10 -26q72 -172 205 -182q63 -6 117 22q-92 72 -162 166q-41 59 -74 129zM271.5 872q-11.5 -176 31.5 -346l440 492q-12 55 -28 115q-37 125 -101 202q-76 98 -159 58q-29 -14 -64 -78q-29 -47 -49 -107q-59 -160 -70.5 -336zM332 444q31 -80 80 -143q70 -96 161 -166 q68 63 115 189q41 109 60.5 235.5t19.5 224.5q0 70 -10 140z" />
<glyph unicode="&#xd9;" horiz-adv-x="1056" d="M68 588q-12 215 7 447.5t46 363.5q4 14 16.5 22.5t27.5 5t23.5 -16t6.5 -28.5q-27 -125 -46.5 -353t-7.5 -437q16 -262 80 -406q72 -158 201 -155q68 2 133 108q57 94 109 275q61 221 102 540q6 39 10 90q4 70 12 140q6 78 9 94q2 18 8 57q4 14 4 23l2 2v6q2 2 4 6 q2 2 4 6q10 8 23 11q18 4 32 -13q4 -6 7 -12q2 -4 2 -8v-8v-7q-12 -80 -21 -165q-2 -10 -2 -21l-10 -115q-25 -326 -10 -706q8 -193 69 -252q29 -27 68 -19q55 12 131 80q10 10 25.5 10.5t25.5 -11t10 -27t-12 -25.5q-90 -82 -166 -98q-78 -16 -133 37q-84 80 -92 301 q-4 84 -4 166q-12 -53 -27 -101q-51 -186 -117 -295q-86 -141 -196 -143q-176 -2 -266 199q-72 160 -88 432zM325 1601.5q-3 14.5 6 26.5t23.5 15t26.5 -5l121 -90q104 -76 164 -112q12 -8 15 -22.5t-5 -28t-22.5 -16.5t-28.5 5q-57 37 -165 116t-120 87q-12 10 -15 24.5z " />
<glyph unicode="&#xda;" horiz-adv-x="1056" d="M68 588q-12 215 7 447.5t46 363.5q4 14 16.5 22.5t27.5 5t23.5 -16t6.5 -28.5q-27 -125 -46.5 -353t-7.5 -437q16 -262 80 -406q72 -158 201 -155q68 2 133 108q57 94 109 275q61 221 102 540q6 39 10 90q4 70 12 140q6 78 9 94q2 18 8 57q4 14 4 23l2 2v6q2 2 4 6 q2 2 4 6q10 8 23 11q18 4 32 -13q4 -6 7 -12q2 -4 2 -8v-8v-7q-12 -80 -21 -165q-2 -10 -2 -21l-10 -115q-25 -326 -10 -706q8 -193 69 -252q29 -27 68 -19q55 12 131 80q10 10 25.5 10.5t25.5 -11t10 -27t-12 -25.5q-90 -82 -166 -98q-78 -16 -133 37q-84 80 -92 301 q-4 84 -4 166q-12 -53 -27 -101q-51 -186 -117 -295q-86 -141 -196 -143q-176 -2 -266 199q-72 160 -88 432zM312.5 1452.5q3.5 14.5 17.5 22.5q41 27 133 94q86 66 141 96q14 6 28.5 2t22 -17.5t3 -27.5t-16.5 -23q-51 -29 -135 -90q-98 -72 -139 -96q-12 -8 -26.5 -5 t-23 16.5t-5 28z" />
<glyph unicode="&#xdb;" horiz-adv-x="1056" d="M68 588q-12 215 7 447.5t46 363.5q4 14 16.5 22.5t27.5 5t23.5 -16t6.5 -28.5q-27 -125 -46.5 -353t-7.5 -437q16 -262 80 -406q72 -158 201 -155q68 2 133 108q57 94 109 275q61 221 102 540q6 39 10 90q4 70 12 140q6 78 9 94q2 18 8 57q4 14 4 23l2 2v6q2 2 4 6 q2 2 4 6q10 8 23 11q18 4 32 -13q4 -6 7 -12q2 -4 2 -8v-8v-7q-12 -80 -21 -165q-2 -10 -2 -21l-10 -115q-25 -326 -10 -706q8 -193 69 -252q29 -27 68 -19q55 12 131 80q10 10 25.5 10.5t25.5 -11t10 -27t-12 -25.5q-90 -82 -166 -98q-78 -16 -133 37q-84 80 -92 301 q-4 84 -4 166q-12 -53 -27 -101q-51 -186 -117 -295q-86 -141 -196 -143q-176 -2 -266 199q-72 160 -88 432zM266 1494.5q-2 15.5 6 27.5q84 111 121 151q57 59 108.5 59.5t102.5 -65.5q35 -43 103 -160q6 -12 2 -27.5t-16.5 -22.5t-28 -3t-23.5 16q-63 113 -94 150 q-31 39 -47.5 39t-53.5 -37q-35 -37 -112 -145q-10 -12 -25.5 -14.5t-28 7t-14.5 25z" />
<glyph unicode="&#xdc;" horiz-adv-x="1056" d="M68 588q-12 215 7 447.5t46 363.5q4 14 16.5 22.5t27.5 5t23.5 -16t6.5 -28.5q-27 -125 -46.5 -353t-7.5 -437q16 -262 80 -406q72 -158 201 -155q68 2 133 108q57 94 109 275q61 221 102 540q6 39 10 90q4 70 12 140q6 78 9 94q2 18 8 57q4 14 4 23l2 2v6q2 2 4 6 q2 2 4 6q10 8 23 11q18 4 32 -13q4 -6 7 -12q2 -4 2 -8v-8v-7q-12 -80 -21 -165q-2 -10 -2 -21l-10 -115q-25 -326 -10 -706q8 -193 69 -252q29 -27 68 -19q55 12 131 80q10 10 25.5 10.5t25.5 -11t10 -27t-12 -25.5q-90 -82 -166 -98q-78 -16 -133 37q-84 80 -92 301 q-4 84 -4 166q-12 -53 -27 -101q-51 -186 -117 -295q-86 -141 -196 -143q-176 -2 -266 199q-72 160 -88 432zM358 1527.5q0 14.5 11.5 26t26 11.5t25.5 -11.5t11 -26t-11 -25.5t-25.5 -11t-26 11t-11.5 25.5zM563 1527.5q0 14.5 11.5 26t25.5 11.5t25.5 -11.5t11.5 -26 t-11.5 -25.5t-25.5 -11t-25.5 11t-11.5 25.5z" />
<glyph unicode="&#xdd;" horiz-adv-x="929" d="M43 684q-27 215 20 690q2 14 13.5 24.5t27 8.5t25.5 -13.5t8 -27.5q-47 -465 -20 -674q20 -160 82 -270q39 -66 84 -90q49 -27 110.5 -5.5t110.5 150.5q45 119 71 314q16 121 27 262q6 152 6 282v8v35q0 16 10.5 27.5t25.5 11.5t26.5 -10t11.5 -25q4 -145 -8 -340 q-6 -125 -19 -307q-33 -473 -37 -585h3q109 0 401 -21q16 -2 25.5 -13.5t8.5 -26.5t-12.5 -24.5t-25.5 -9.5q-291 20 -397 21h-3v-51q0 -86 -4 -144q-16 -190 -104 -264q-66 -53 -152 -4q-68 37 -122 121q-55 86 -68 172q-14 104 45 170q41 45 166 63q70 8 166 11 q4 117 14 268q-57 -133 -141 -162q-92 -33 -172 10q-63 37 -111 121q-70 121 -92 297zM242 -84q8 -70 55 -141q45 -70 96 -99q43 -25 68 -2q66 53 80 213q4 55 4 138v51q-90 -2 -156 -10q-98 -12 -123 -39q-35 -39 -24 -111zM251 1473.5q5 13.5 19 19.5q78 35 181 115 q12 10 27.5 8t24.5 -14.5t7 -27.5t-14 -24q-111 -86 -197 -123q-14 -6 -27.5 -0.5t-19.5 19.5t-1 27.5z" />
<glyph unicode="&#xde;" horiz-adv-x="606" d="M37 1393q-2 16 7 28.5t24.5 14.5t28 -7.5t14.5 -23.5q25 -176 36 -383q102 106 254 131q106 16 185 -25q92 -47 119 -159q37 -164 -177 -432q-84 -102 -181 -191.5t-171 -134.5q-2 0 -6 -2q2 -27 2 -51q2 -49 8 -174q8 -113 8 -179q0 -14 -11 -25t-25.5 -11t-25.5 11 t-11 25q0 63 -6 175q-8 125 -11 178q-2 63 -5 296.5t-7 338t-16.5 280.5t-32.5 320zM156 905q6 -150 14 -610q152 102 299 289q193 242 162 368q-16 80 -78 111q-57 31 -139 16q-82 -12 -153 -58t-99 -106q-2 -6 -6 -10z" />
<glyph unicode="&#xdf;" horiz-adv-x="700" d="M47 895q-37 330 170 475q66 45 146.5 55.5t146.5 -20.5q74 -31 111.5 -98.5t23.5 -161.5q-23 -127 -160 -260q166 4 274.5 -129t71.5 -324q-12 -57 -45.5 -116.5t-74.5 -96.5q-74 -66 -185 -88q-143 -27 -200 66q-37 59 -9 116q29 49 91 60q57 10 110 -25t84 -112 q37 18 60 36q33 31 60.5 80t35.5 92q16 78 0.5 148t-54 116t-93 75.5t-118 27.5t-128.5 -31q-14 -8 -46 -28l-24 -17q-8 -4 -10 -6q-4 -2 -6 -2q-6 -4 -13 -4q-18 0 -28 12q-14 16 -9 37l9 12q0 2 2 3t4 4q41 33 84 55q18 12 32 26q63 55 97.5 88t70 88.5t43.5 108.5 q23 133 -90 180q-47 23 -109.5 16t-113.5 -44q-94 -66 -124 -167.5t-15 -238.5q10 -88 49 -254q37 -170 45 -237q14 -137 6 -234q-4 -80 -26 -127q-33 -72 -101 -67q-14 0 -24.5 12t-10.5 26.5t12.5 24.5t26.5 10q16 0 29 25q16 35 22 102q6 90 -8 219q-6 63 -45 230 q-37 170 -47 262zM383 278.5q-10 -18.5 4 -40.5q33 -51 125 -33l20 4q-23 55 -54.5 75.5t-58 16.5t-36.5 -22.5z" />
<glyph unicode="&#xe0;" horiz-adv-x="808" d="M72 238q-31 170 8 376q39 209 127 320q51 63 112 82q70 18 140 -25q103 -62 123 -246q14 -4 20 -18l4 -10q2 -4 2 -8v-27q0 -43 -2 -68q-6 -90 -10 -129l-4 -32q0 -66 4 -119q23 -225 135 -266q33 -12 74 12q41 23 67 61q8 12 23.5 15.5t28 -5t15.5 -23.5t-5 -28 q-37 -53 -92 -84q-72 -43 -135 -18q-127 47 -170 235q-12 -39 -27 -73q-47 -100 -107 -148q-80 -61 -174 -24q-121 49 -157 250zM145 252q29 -162 113 -195q53 -23 100 13q45 37 84 120q51 113 76 269q0 90 12 231q-18 9 -20 29q-14 166 -88 211q-43 25 -82 14.5t-76 -55.5 q-76 -98 -112.5 -288.5t-6.5 -348.5zM195 1222.5q-2 14.5 8 27t24.5 14t26.5 -8.5q57 -45 205 -114q12 -6 17 -20.5t-1 -28t-20.5 -18.5t-28.5 1q-156 72 -217 123q-12 10 -14 24.5z" />
<glyph unicode="&#xe1;" horiz-adv-x="808" d="M72 238q-31 170 8 376q39 209 127 320q51 63 112 82q70 18 140 -25q103 -62 123 -246q14 -4 20 -18l4 -10q2 -4 2 -8v-27q0 -43 -2 -68q-6 -90 -10 -129l-4 -32q0 -66 4 -119q23 -225 135 -266q33 -12 74 12q41 23 67 61q8 12 23.5 15.5t28 -5t15.5 -23.5t-5 -28 q-37 -53 -92 -84q-72 -43 -135 -18q-127 47 -170 235q-12 -39 -27 -73q-47 -100 -107 -148q-80 -61 -174 -24q-121 49 -157 250zM145 252q29 -162 113 -195q53 -23 100 13q45 37 84 120q51 113 76 269q0 90 12 231q-18 9 -20 29q-14 166 -88 211q-43 25 -82 14.5t-76 -55.5 q-76 -98 -112.5 -288.5t-6.5 -348.5zM208 1114.5q3 14.5 15 22.5q43 27 115 90q82 72 117 98q12 8 27.5 6t24.5 -14t7 -27.5t-14 -25.5q-29 -18 -113 -93q-74 -63 -123 -96q-14 -8 -28.5 -5t-22.5 16.5t-5 28z" />
<glyph unicode="&#xe2;" horiz-adv-x="808" d="M72 238q-31 170 8 376q39 209 127 320q51 63 112 82q70 18 140 -25q103 -62 123 -246q14 -4 20 -18l4 -10q2 -4 2 -8v-27q0 -43 -2 -68q-6 -90 -10 -129l-4 -32q0 -66 4 -119q23 -225 135 -266q33 -12 74 12q41 23 67 61q8 12 23.5 15.5t28 -5t15.5 -23.5t-5 -28 q-37 -53 -92 -84q-72 -43 -135 -18q-127 47 -170 235q-12 -39 -27 -73q-47 -100 -107 -148q-80 -61 -174 -24q-121 49 -157 250zM145 252q29 -162 113 -195q53 -23 100 13q45 37 84 120q51 113 76 269q0 90 12 231q-18 9 -20 29q-14 166 -88 211q-43 25 -82 14.5t-76 -55.5 q-76 -98 -112.5 -288.5t-6.5 -348.5zM161 1111.5q-3 15.5 5 27.5l57 86q31 49 37 55q18 31 33 45q23 23 47 25q29 4 53 -17q18 -12 41 -41l109 -157q8 -12 5 -27.5t-15.5 -24t-28 -5.5t-23.5 16q-92 133 -106 151q-16 23 -27 29l-2 -2q-10 -8 -27 -33l-34 -55 q-33 -51 -58 -86q-8 -12 -23.5 -15.5t-27.5 5t-15 24z" />
<glyph unicode="&#xe3;" horiz-adv-x="808" d="M72 238q-31 170 8 376q39 209 127 320q51 63 112 82q70 18 140 -25q103 -62 123 -246q14 -4 20 -18l4 -10q2 -4 2 -8v-27q0 -43 -2 -68q-6 -90 -10 -129l-4 -32q0 -66 4 -119q23 -225 135 -266q33 -12 74 12q41 23 67 61q8 12 23.5 15.5t28 -5t15.5 -23.5t-5 -28 q-37 -53 -92 -84q-72 -43 -135 -18q-127 47 -170 235q-12 -39 -27 -73q-47 -100 -107 -148q-80 -61 -174 -24q-121 49 -157 250zM145 252q29 -162 113 -195q53 -23 100 13q45 37 84 120q51 113 76 269q0 90 12 231q-18 9 -20 29q-14 166 -88 211q-43 25 -82 14.5t-76 -55.5 q-76 -98 -112.5 -288.5t-6.5 -348.5zM156 1155q33 76 96 121q68 47 127 6q12 -8 24.5 -21.5t26.5 -31t16 -21.5q23 -25 37 -22q31 4 90 82q8 12 23.5 14t28 -7t14.5 -24.5t-8 -27.5q-76 -100 -137 -111q-55 -8 -105 49l-18 25q-12 14 -19.5 22.5t-15.5 12.5q-16 12 -43 -7 q-45 -31 -68 -88q-6 -14 -20.5 -19t-28.5 0t-19 19.5t-1 28.5z" />
<glyph unicode="&#xe4;" horiz-adv-x="808" d="M72 238q-31 170 8 376q39 209 127 320q51 63 112 82q70 18 140 -25q103 -62 123 -246q14 -4 20 -18l4 -10q2 -4 2 -8v-27q0 -43 -2 -68q-6 -90 -10 -129l-4 -32q0 -66 4 -119q23 -225 135 -266q33 -12 74 12q41 23 67 61q8 12 23.5 15.5t28 -5t15.5 -23.5t-5 -28 q-37 -53 -92 -84q-72 -43 -135 -18q-127 47 -170 235q-12 -39 -27 -73q-47 -100 -107 -148q-80 -61 -174 -24q-121 49 -157 250zM145 252q29 -162 113 -195q53 -23 100 13q45 37 84 120q51 113 76 269q0 90 12 231q-18 9 -20 29q-14 166 -88 211q-43 25 -82 14.5t-76 -55.5 q-76 -98 -112.5 -288.5t-6.5 -348.5zM233 1153q0 14 11.5 25.5t26 11.5t25.5 -11.5t11 -25.5t-11 -25.5t-25.5 -11.5t-26 11.5t-11.5 25.5zM403 1153q0 14 11.5 25.5t26 11.5t25.5 -11.5t11 -25.5t-11 -25.5t-25.5 -11.5t-26 11.5t-11.5 25.5z" />
<glyph unicode="&#xe5;" horiz-adv-x="808" d="M72 238q-31 170 8 376q39 209 127 320q51 63 112 82q70 18 140 -25q103 -62 123 -246q14 -4 20 -18l4 -10q2 -4 2 -8v-27q0 -43 -2 -68q-6 -90 -10 -129l-4 -32q0 -66 4 -119q23 -225 135 -266q33 -12 74 12q41 23 67 61q8 12 23.5 15.5t28 -5t15.5 -23.5t-5 -28 q-37 -53 -92 -84q-72 -43 -135 -18q-127 47 -170 235q-12 -39 -27 -73q-47 -100 -107 -148q-80 -61 -174 -24q-121 49 -157 250zM145 252q29 -162 113 -195q53 -23 100 13q45 37 84 120q51 113 76 269q0 90 12 231q-18 9 -20 29q-14 166 -88 211q-43 25 -82 14.5t-76 -55.5 q-76 -98 -112.5 -288.5t-6.5 -348.5zM170 1163q4 66 60.5 129.5t140.5 85.5q102 27 151 -10q53 -39 31 -115q-16 -61 -73.5 -117.5t-135.5 -78.5q-10 -4 -18 0q-51 -12 -88 0q-72 23 -68 106zM244 1159q-2 -27 16 -33q39 -12 121 29l8 4q76 49 94 113q6 29 -4 37 q-23 16 -88 0q-66 -18 -105.5 -64.5t-41.5 -85.5z" />
<glyph unicode="&#xe6;" horiz-adv-x="1003" d="M72 238q-31 170 8 376q39 209 127 320q51 63 112 82q70 18 140 -25q77 -45 106 -160q14 39 31 64q90 152 207 170q55 10 103 -12.5t79 -67.5q41 -61 44 -144t-45 -181.5t-146 -186.5q-66 -57 -117 -86q-68 -39 -125 -39q8 -117 43 -186q43 -88 133 -99q115 -10 307 97 q14 6 28.5 2t22 -17.5t3 -28t-16.5 -22.5q-213 -117 -350 -104q-131 14 -193 141q-23 43 -34 102q-14 -39 -29 -73q-47 -100 -107 -148q-80 -61 -174 -24q-121 49 -157 250zM145 252q29 -162 113 -195q53 -23 100 13q45 37 84 120q51 117 76 275q2 92 12 225q-18 9 -20 29 q-14 166 -88 211q-43 25 -82 14.5t-76 -55.5q-76 -98 -112.5 -288.5t-6.5 -348.5zM592 422q41 0 92 29q45 27 104 79q88 76 129 162t38 147.5t-31 102.5q-41 61 -109 51q-84 -14 -158 -135q-10 -18 -17 -38.5t-16.5 -51.5t-15.5 -47q0 -2 -2 -4q2 -4 2 -8v-27q0 -43 -2 -68 q-6 -90 -10 -129l-4 -24v-39z" />
<glyph unicode="&#xe7;" horiz-adv-x="659" d="M52.5 268.5q-52.5 184.5 17.5 433.5q23 74 70.5 153t105.5 124q78 59 149 33q76 -27 125 -152q4 -12 -2 -26.5t-19.5 -19.5t-27.5 1.5t-20 20.5q-35 92 -80 106q-33 12 -80 -22.5t-89 -104.5t-63 -133q-47 -156 -35.5 -281t58.5 -207.5t119 -123.5q51 -29 108 -30 t118.5 26.5t123 98.5t110.5 177q6 14 20.5 19.5t28 -1t18.5 -20.5t-1 -27q-76 -172 -185.5 -260t-226.5 -88q-6 -147 -172 -231q-14 -6 -28.5 -2t-20.5 18t-2 28.5t18 20.5q68 33 100 74t32 102q-39 10 -78 31q-139 78 -191.5 262.5z" />
<glyph unicode="&#xe8;" horiz-adv-x="591" d="M9.5 527q13.5 173 78.5 309q37 76 86 122q53 49 105 50q63 0 94 -68q25 -59 18 -164q-18 -278 -215 -645q66 -66 172 -80q80 -10 160 14.5t137 77.5q10 10 25.5 10.5t26 -11t10.5 -27t-13 -25.5q-68 -66 -164 -94.5t-192 -15.5q-100 12 -180 69q-80 59 -115 160 q-47 145 -33.5 318zM82.5 521q-12.5 -159 30.5 -288q6 -18 14 -34q174 328 190 581q6 88 -12 129q-12 25 -26 25q-23 0 -56 -29q-39 -37 -69 -102q-59 -123 -71.5 -282zM127 1233.5q2 15.5 14.5 25t28 7t23.5 -14.5q33 -43 68.5 -66.5t90.5 -43.5q14 -6 20.5 -19.5t1.5 -28 t-18.5 -20.5t-27.5 -2q-66 25 -109 54.5t-84 80.5q-10 12 -8 27.5z" />
<glyph unicode="&#xe9;" horiz-adv-x="591" d="M9.5 527q13.5 173 78.5 309q37 76 86 122q53 49 105 50q63 0 94 -68q25 -59 18 -164q-18 -278 -215 -645q66 -66 172 -80q80 -10 160 14.5t137 77.5q10 10 25.5 10.5t26 -11t10.5 -27t-13 -25.5q-68 -66 -164 -94.5t-192 -15.5q-100 12 -180 69q-80 59 -115 160 q-47 145 -33.5 318zM82.5 521q-12.5 -159 30.5 -288q6 -18 14 -34q174 328 190 581q6 88 -12 129q-12 25 -26 25q-23 0 -56 -29q-39 -37 -69 -102q-59 -123 -71.5 -282zM139 1102.5q-2 15.5 7.5 28t23.5 14.5q92 14 180 137q10 12 25.5 14t28 -7t14.5 -24.5t-6 -27.5 q-109 -145 -230 -166q-16 -2 -28.5 7t-14.5 24.5z" />
<glyph unicode="&#xea;" horiz-adv-x="591" d="M9.5 527q13.5 173 78.5 309q37 76 86 122q53 49 105 50q63 0 94 -68q25 -59 18 -164q-18 -278 -215 -645q66 -66 172 -80q80 -10 160 14.5t137 77.5q10 10 25.5 10.5t26 -11t10.5 -27t-13 -25.5q-68 -66 -164 -94.5t-192 -15.5q-100 12 -180 69q-80 59 -115 160 q-47 145 -33.5 318zM76 1080.5q-2 15.5 8 27.5q39 43 84 113q18 31 27 43q18 23 34 30q27 16 56 0q18 -8 37 -34q25 -33 84 -146q6 -12 1.5 -26.5t-17.5 -21.5t-27.5 -3t-22.5 18q-55 106 -78 136q-2 4 -4 6l-4 -4q-6 -8 -25 -37q-49 -76 -88 -123q-10 -10 -25.5 -12.5 t-26.5 8t-13 26zM82.5 521q-12.5 -159 30.5 -288q6 -18 14 -34q174 328 190 581q6 88 -12 129q-12 25 -26 25q-23 0 -56 -29q-39 -37 -69 -102q-59 -123 -71.5 -282z" />
<glyph unicode="&#xeb;" horiz-adv-x="591" d="M9.5 527q13.5 173 78.5 309q37 76 86 122q53 49 105 50q63 0 94 -68q25 -59 18 -164q-18 -278 -215 -645q66 -66 172 -80q80 -10 160 14.5t137 77.5q10 10 25.5 10.5t26 -11t10.5 -27t-13 -25.5q-68 -66 -164 -94.5t-192 -15.5q-100 12 -180 69q-80 59 -115 160 q-47 145 -33.5 318zM82.5 521q-12.5 -159 30.5 -288q6 -18 14 -34q174 328 190 581q6 88 -12 129q-12 25 -26 25q-23 0 -56 -29q-39 -37 -69 -102q-59 -123 -71.5 -282zM131 1118.5q0 14.5 11.5 25.5t25.5 11t25.5 -11t11.5 -25.5t-11.5 -26t-25.5 -11.5t-25.5 11.5 t-11.5 26zM315 1120.5q0 14.5 11.5 25.5t26 11t25.5 -11t11 -25.5t-11 -26t-25.5 -11.5t-26 11.5t-11.5 26z" />
<glyph unicode="&#xec;" horiz-adv-x="352" d="M-19 1225.5q-1 15.5 8 27t24.5 12t27.5 -7.5q109 -96 201 -145q14 -8 18 -22.5t-3 -27.5t-21.5 -17.5t-26.5 2.5q-100 53 -217 153q-10 10 -11 25.5zM23 472.5q4 119.5 9 198.5t14 173t11 117q0 16 12.5 25t28 9t24.5 -12.5t9 -26.5q-2 -27 -11 -121t-14.5 -169.5 t-9.5 -192.5t6 -188q16 -186 82 -232q72 -49 232 90q12 10 27.5 8.5t25.5 -13t8 -27t-12 -25.5q-205 -174 -324 -92q-92 63 -112 285q-10 74 -6 193.5z" />
<glyph unicode="&#xed;" horiz-adv-x="346" d="M-28.5 1113.5q2.5 15.5 14.5 23.5q145 111 211 209q8 12 23.5 15t27.5 -5t15 -23.5t-5 -27.5q-72 -109 -227 -226q-12 -10 -27.5 -8t-25 14.5t-7 28zM23 472.5q4 119.5 9 198.5t14 173t11 117q0 16 12.5 25t28 9t24.5 -12.5t9 -26.5q-2 -27 -11 -121t-14.5 -169.5 t-9.5 -192.5t6 -188q16 -186 82 -232q72 -49 232 90q12 10 27.5 8.5t25.5 -13t8 -27t-12 -25.5q-205 -174 -324 -92q-92 63 -112 285q-10 74 -6 193.5z" />
<glyph unicode="&#xee;" horiz-adv-x="352" d="M-51 1149q31 84 98 168q27 33 45 53l25 21l16 8q20 4 37 -8q10 -8 20 -25q4 -12 13 -31l33 -78q45 -111 69 -137q10 -10 10 -25.5t-11 -25.5t-26.5 -10t-25.5 12q-33 33 -84 158l-33 78q-14 -14 -31 -35q-59 -76 -86 -148q-6 -14 -19 -20t-27.5 -1t-20.5 18.5t-2 27.5z M25 472.5q4 119.5 9 198.5t14 173t11 117q0 16 12.5 25t28 9t24.5 -12.5t9 -26.5q-2 -27 -11 -121t-14.5 -169.5t-9.5 -192.5t6 -188q16 -186 82 -232q72 -49 232 90q12 10 27.5 8.5t25.5 -13t8 -27t-12 -25.5q-205 -174 -324 -92q-92 63 -112 285q-10 74 -6 193.5z" />
<glyph unicode="&#xef;" horiz-adv-x="346" d="M14 1136.5q0 14.5 11.5 26t26 11.5t25.5 -11.5t11 -26t-11 -25.5t-25.5 -11t-26 11t-11.5 25.5zM21 472.5q4 119.5 9 198.5t14 173t11 117q0 16 12.5 25t28 9t24.5 -12.5t9 -26.5q-2 -27 -11 -121t-14.5 -169.5t-9.5 -192.5t6 -188q16 -186 82 -232q72 -49 232 90 q12 10 27.5 8.5t25.5 -13t8 -27t-12 -25.5q-205 -174 -324 -92q-92 63 -112 285q-10 74 -6 193.5zM141 1136.5q0 14.5 11.5 26t26 11.5t25.5 -11.5t11 -26t-11 -25.5t-25.5 -11t-26 11t-11.5 25.5z" />
<glyph unicode="&#xf0;" horiz-adv-x="538" d="M40 1130.5q-5 14.5 0 29t19.5 19.5t28.5 1q106 -43 211 -129l141 129q10 10 25.5 10t26 -11.5t10.5 -26.5t-13 -26l-135 -127q102 -98 172 -217l64 31q14 6 28.5 1t20.5 -18.5t1 -27.5t-17 -20q-31 -14 -60 -31q43 -92 61.5 -182.5t5 -186.5t-66.5 -180 q-92 -145 -225 -168q-82 -12 -139.5 21.5t-85.5 99.5q-25 59 -23 128.5t27 129.5q92 211 346 366q-66 113 -164 205l-172 -159q-10 -10 -25.5 -10.5t-25.5 11t-10 27t12 25.5l166 155q-92 76 -185 111q-14 6 -19 20.5zM180 150q41 -94 146 -76q100 16 176 135 q127 201 -4 471q-231 -143 -312 -330q-47 -104 -6 -200z" />
<glyph unicode="&#xf1;" horiz-adv-x="882" d="M31 294q0 71 6 120q0 76 -2 262t-2 289q0 14 11 25t25.5 11t25.5 -11t11 -25q0 -102 3 -293q18 49 38 90q53 111 117 166q82 74 170 51q123 -29 158 -203q20 -92 18 -325q-2 -227 11 -301q18 -113 73 -117q131 -12 224 98q10 12 25 14t26.5 -8t13.5 -25.5t-8 -25.5 q-117 -143 -289 -127q-113 10 -139 178q-12 80 -10 316q4 215 -17 307q-27 129 -102 149q-51 12 -105 -37q-51 -45 -100 -143q-39 -80 -66.5 -172t-35.5 -149v-66q0 -23 1 -88.5t1 -101.5q0 -14 -2 -80v-31v-4v-4v-4q-2 -2 -2 -4q-4 -12 -19 -21q-16 -8 -33 0q-8 4 -14 12 q-2 6 -4 10.5t-2 6.5v12q0 10 -3 94t-3 155zM112 1063.5q-5 14.5 1 26.5q61 139 129 155q49 12 116 -47q49 -43 72 -45q37 -6 94 68q8 12 23.5 14t28 -7t14.5 -24.5t-8 -27.5q-80 -106 -162 -97q-43 4 -111 64q-39 33 -51 31q-31 -8 -80 -113q-6 -14 -20.5 -19.5t-27.5 1 t-18 21z" />
<glyph unicode="&#xf2;" horiz-adv-x="788" d="M49.5 558.5q26.5 184.5 106.5 307.5q94 143 227 144q6 0 12 -2q6 0 13 -2q14 4 26 -2q195 -90 254 -351q98 27 170 74q12 8 27.5 5t24 -15t5 -27.5t-15.5 -23.5q-84 -55 -199 -86q14 -109 -2 -213q-27 -199 -135 -306q-125 -123 -299 -57q-137 53 -192 223 q-49 147 -22.5 331.5zM121 549q-23 -168 20 -299q45 -137 148 -176q131 -49 223 41q90 88 115 262q12 94 2 188q-170 -25 -279 41q-63 37 -96 94.5t-31 118.5q2 10 2 19l-8 -13q-74 -111 -96 -276zM219 1261.5q0 14.5 11.5 25.5t26 11t26.5 -10q92 -94 217 -135 q14 -4 20 -18.5t2 -28.5t-18.5 -20.5t-28.5 -2.5q-139 47 -246 152q-10 12 -10 26.5zM297 815q-2 -39 21.5 -79t68.5 -68q86 -51 229 -31q-51 221 -208 299q-106 -31 -111 -121z" />
<glyph unicode="&#xf3;" horiz-adv-x="788" d="M49.5 558.5q26.5 184.5 106.5 307.5q94 143 227 144q6 0 12 -2q6 0 13 -2q14 4 26 -2q195 -90 254 -351q98 27 170 74q12 8 27.5 5t24 -15t5 -27.5t-15.5 -23.5q-84 -55 -199 -86q14 -109 -2 -213q-27 -199 -135 -306q-125 -123 -299 -57q-137 53 -192 223 q-49 147 -22.5 331.5zM121 549q-23 -168 20 -299q45 -137 148 -176q131 -49 223 41q90 88 115 262q12 94 2 188q-170 -25 -279 41q-63 37 -96 94.5t-31 118.5q2 10 2 19l-8 -13q-74 -111 -96 -276zM254 1091.5q0 14.5 10 26.5q35 33 70 72l74 88q43 51 63 78q10 10 25.5 11 t27 -8t12.5 -24.5t-8 -27.5q-23 -25 -65 -76l-78 -92l-68 -74q-12 -10 -26.5 -10t-25.5 11t-11 25.5zM297 815q-2 -39 21.5 -79t68.5 -68q86 -51 229 -31q-51 221 -208 299q-106 -31 -111 -121z" />
<glyph unicode="&#xf4;" horiz-adv-x="788" d="M49.5 558.5q26.5 184.5 106.5 307.5q94 143 227 144q6 0 12 -2q6 0 13 -2q14 4 26 -2q195 -90 254 -351q98 27 170 74q12 8 27.5 5t24 -15t5 -27.5t-15.5 -23.5q-84 -55 -199 -86q14 -109 -2 -213q-27 -199 -135 -306q-125 -123 -299 -57q-137 53 -192 223 q-49 147 -22.5 331.5zM121 549q-23 -168 20 -299q45 -137 148 -176q131 -49 223 41q90 88 115 262q12 94 2 188q-170 -25 -279 41q-63 37 -96 94.5t-31 118.5q2 10 2 19l-8 -13q-74 -111 -96 -276zM173 1068.5q-3 15.5 5 27.5l109 172q20 33 35 47q25 25 53 22q27 -2 49 -28 q12 -14 35 -49q88 -135 112 -170q8 -12 5 -26.5t-15 -24t-26.5 -6.5t-24.5 16q-27 37 -113 172q-18 27 -26 36q-8 -10 -23 -30l-108 -172q-8 -12 -23.5 -15.5t-28 5t-15.5 24zM297 815q-2 -39 21.5 -79t68.5 -68q86 -51 229 -31q-51 221 -208 299q-106 -31 -111 -121z" />
<glyph unicode="&#xf5;" horiz-adv-x="788" d="M49.5 558.5q26.5 184.5 106.5 307.5q94 143 227 144q6 0 12 -2q6 0 13 -2q14 4 26 -2q195 -90 254 -351q98 27 170 74q12 8 27.5 5t24 -15t5 -27.5t-15.5 -23.5q-84 -55 -199 -86q14 -109 -2 -213q-27 -199 -135 -306q-125 -123 -299 -57q-137 53 -192 223 q-49 147 -22.5 331.5zM121 549q-23 -168 20 -299q45 -137 148 -176q131 -49 223 41q90 88 115 262q12 94 2 188q-170 -25 -279 41q-63 37 -96 94.5t-31 118.5q2 10 2 19l-8 -13q-74 -111 -96 -276zM140 1098.5q-3 15.5 5 27.5q80 113 134 134q33 12 63 -3q20 -10 39 -34 l18 -25l21 -22q6 -10 16 -19q27 -23 70 -8q18 6 35.5 16.5t44 31t41.5 28.5q12 8 27.5 5t23.5 -15.5t5 -28t-15 -23.5q-4 -2 -35 -24.5t-55.5 -37t-47.5 -22.5q-82 -27 -141 21q-12 10 -24.5 24.5t-25.5 32t-13 19.5q-10 12 -17 16q-2 0 -6 -2q-31 -10 -96 -105 q-8 -12 -23.5 -15t-28 5t-15.5 23.5zM297 815q-2 -39 21.5 -79t68.5 -68q86 -51 229 -31q-51 221 -208 299q-106 -31 -111 -121z" />
<glyph unicode="&#xf6;" horiz-adv-x="788" d="M49.5 558.5q26.5 184.5 106.5 307.5q94 143 227 144q6 0 12 -2q6 0 13 -2q14 4 26 -2q195 -90 254 -351q98 27 170 74q12 8 27.5 5t24 -15t5 -27.5t-15.5 -23.5q-84 -55 -199 -86q14 -109 -2 -213q-27 -199 -135 -306q-125 -123 -299 -57q-137 53 -192 223 q-49 147 -22.5 331.5zM121 549q-23 -168 20 -299q45 -137 148 -176q131 -49 223 41q90 88 115 262q12 94 2 188q-170 -25 -279 41q-63 37 -96 94.5t-31 118.5q2 10 2 19l-8 -13q-74 -111 -96 -276zM242 1124.5q0 14.5 11 25.5t25.5 11t25.5 -11t11 -25.5t-11 -26 t-25.5 -11.5t-25.5 11.5t-11 26zM297 815q-2 -39 21.5 -79t68.5 -68q86 -51 229 -31q-51 221 -208 299q-106 -31 -111 -121zM475 1126.5q0 14.5 11.5 25.5t25.5 11t25.5 -11t11.5 -25.5t-11.5 -25.5t-25.5 -11t-25.5 11t-11.5 25.5z" />
<glyph unicode="&#xf7;" horiz-adv-x="614" d="M68 679q0 15 10 26.5t24 11.5q76 4 159 4t191.5 -1t157.5 -1q14 0 25.5 -11.5t11.5 -25.5t-11 -25.5t-26 -11.5q-49 0 -156.5 1t-189.5 1t-158 -4q-16 0 -27 10.5t-11 25.5zM307 520.5q0 14.5 11.5 25.5t25.5 11t25.5 -11t11.5 -25.5t-11.5 -26t-25.5 -11.5t-25.5 11.5 t-11.5 26zM311 891q0 14 11.5 25.5t25.5 11.5t25.5 -11.5t11.5 -25.5t-11.5 -25.5t-25.5 -11.5t-25.5 11.5t-11.5 25.5z" />
<glyph unicode="&#xf8;" horiz-adv-x="788" d="M49.5 558.5q26.5 184.5 106.5 307.5q94 143 227 144q6 0 12 -2q6 0 13 -2q14 4 26 -2q195 -90 254 -351q98 27 170 74q12 8 27.5 5t24 -15t5 -27.5t-15.5 -23.5q-84 -55 -199 -86q14 -109 -2 -213q-27 -199 -135 -306q-125 -123 -299 -57q-137 53 -192 223 q-49 147 -22.5 331.5zM121 549q-23 -168 20 -299q12 -39 33 -72l344 381q-98 4 -168 47q-63 37 -96 94.5t-31 118.5q2 10 2 19l-8 -13q-74 -111 -96 -276zM219 119q31 -31 70 -45q131 -49 223 41q90 88 115 262q12 94 2 188h-4zM297 815q-2 -39 21.5 -79t68.5 -68 q78 -45 203 -33l16 16q2 2 6 4q-55 207 -204 281q-106 -31 -111 -121z" />
<glyph unicode="&#xf9;" horiz-adv-x="821" d="M29 420q-14 279 22 563q2 16 14.5 25.5t28 7.5t24.5 -14.5t7 -26.5q-37 -266 -23 -551q8 -195 48 -289q18 -51 45 -69q23 -16 53 -9q41 12 80 80q37 66 65 172q47 174 58 340q4 70 6 113q0 51 2 123.5t2 89.5v2v2v4v4q2 4 4 10q10 23 35 21q12 0 19 -6t9 -11l2 -4l5 -12 v-2v-2v-2v-4v-6v-8v-9v-69q0 -55 -5 -123q-2 -266 27 -432q33 -190 102 -246q74 -59 218 57q10 10 25.5 8t25.5 -13t8 -26.5t-14 -25.5q-186 -154 -310 -57q-90 72 -129 290q-2 14 -4 31q-6 -29 -14 -55q-33 -117 -74 -189q-53 -96 -123 -114q-66 -20 -118 18 q-41 31 -70 100q-41 109 -51 314zM124 1203.5q1 15.5 12 24.5t26.5 8t25.5 -11q63 -76 156 -111q14 -6 19.5 -20.5t0 -28.5t-19.5 -19.5t-29 -1.5q-106 43 -184 132q-8 12 -7 27.5z" />
<glyph unicode="&#xfa;" horiz-adv-x="821" d="M29 420q-14 279 22 563q2 16 14.5 25.5t28 7.5t24.5 -14.5t7 -26.5q-37 -266 -23 -551q8 -195 48 -289q18 -51 45 -69q23 -16 53 -9q41 12 80 80q37 66 65 172q47 174 58 340q4 70 6 113q0 51 2 123.5t2 89.5v2v2v4v4q2 4 4 10q10 23 35 21q12 0 19 -6t9 -11l2 -4l5 -12 v-2v-2v-2v-4v-6v-8v-9v-69q0 -55 -5 -123q-2 -266 27 -432q33 -190 102 -246q74 -59 218 57q10 10 25.5 8t25.5 -13t8 -26.5t-14 -25.5q-186 -154 -310 -57q-90 72 -129 290q-2 14 -4 31q-6 -29 -14 -55q-33 -117 -74 -189q-53 -96 -123 -114q-66 -20 -118 18 q-41 31 -70 100q-41 109 -51 314zM168 1079.5q2 14.5 14 24.5q29 18 60 43l51 45q23 18 58.5 52t54.5 48q12 10 26 10.5t24.5 -12t10.5 -27t-12 -24.5q-16 -16 -54 -49l-59 -51q-20 -20 -53 -47l-62 -50q-14 -8 -28.5 -6t-23.5 15.5t-7 28z" />
<glyph unicode="&#xfb;" horiz-adv-x="821" d="M29 420q-14 279 22 563q2 16 14.5 25.5t28 7.5t24.5 -14.5t7 -26.5q-37 -266 -23 -551q8 -195 48 -289q18 -51 45 -69q23 -16 53 -9q41 12 80 80q37 66 65 172q47 174 58 340q4 70 6 113q0 51 2 123.5t2 89.5v2v2v4v4q2 4 4 10q10 23 35 21q12 0 19 -6t9 -11l2 -4l5 -12 v-2v-2v-2v-4v-6v-8v-9v-69q0 -55 -5 -123q-2 -266 27 -432q33 -190 102 -246q74 -59 218 57q10 10 25.5 8t25.5 -13t8 -26.5t-14 -25.5q-186 -154 -310 -57q-90 72 -129 290q-2 14 -4 31q-6 -29 -14 -55q-33 -117 -74 -189q-53 -96 -123 -114q-66 -20 -118 18 q-41 31 -70 100q-41 109 -51 314zM116 1116.5q-3 14.5 5 28.5q92 143 96 151q20 27 33 39q27 23 53 17q23 -6 41 -29q8 -10 25 -41q47 -82 75 -125q8 -12 5 -27.5t-15 -23.5t-27.5 -5t-23.5 15q-31 45 -78 129q-10 16 -14 25q-6 -6 -12 -17l-97 -149q-8 -12 -22.5 -15.5 t-27.5 5t-16 23z" />
<glyph unicode="&#xfc;" horiz-adv-x="821" d="M29 420q-14 279 22 563q2 16 14.5 25.5t28 7.5t24.5 -14.5t7 -26.5q-37 -266 -23 -551q8 -195 48 -289q18 -51 45 -69q23 -16 53 -9q41 12 80 80q37 66 65 172q47 174 58 340q4 70 6 113q0 51 2 123.5t2 89.5v2v2v4v4q2 4 4 10q10 23 35 21q12 0 19 -6t9 -11l2 -4l5 -12 v-2v-2v-2v-4v-6v-8v-9v-69q0 -55 -5 -123q-2 -266 27 -432q33 -190 102 -246q74 -59 218 57q10 10 25.5 8t25.5 -13t8 -26.5t-14 -25.5q-186 -154 -310 -57q-90 72 -129 290q-2 14 -4 31q-6 -29 -14 -55q-33 -117 -74 -189q-53 -96 -123 -114q-66 -20 -118 18 q-41 31 -70 100q-41 109 -51 314zM178 1134.5q0 14.5 11.5 25.5t25.5 11t25.5 -11t11.5 -25.5t-11.5 -25.5t-25.5 -11t-25.5 11t-11.5 25.5zM328 1134.5q0 14.5 11 25.5t25.5 11t25.5 -11t11 -25.5t-11 -25.5t-25.5 -11t-25.5 11t-11 25.5z" />
<glyph unicode="&#xfd;" horiz-adv-x="753" d="M39 424q2 123 29 340q20 186 18 217q0 14 9 25.5t24.5 12.5t27 -8.5t13.5 -25.5q2 -35 -21 -229q-25 -213 -26 -334q-6 -193 26 -285q16 -49 44 -67.5t71 -10.5q53 10 98 80q43 66 76 180q12 47 24.5 106.5t19.5 99.5t15.5 96.5t10.5 72.5q8 49 22 183q4 51 8 69 q2 16 4 25q4 12 15 20q16 10 35 6q12 -4 20 -16l6 -16v-7v-10v-30q0 -31 -2 -95q-6 -145 -6 -166q0 -12 7 -203.5t9 -320.5q0 -33 -2 -63l66 16q23 4 58.5 18.5t64.5 36.5q12 10 27.5 8t24.5 -14t7 -27.5t-14 -23.5l-29 -18q-12 -10 -28 -17l-25 -12q-12 -6 -28.5 -12.5 t-24.5 -8.5t-27.5 -6t-24 -5t-25 -5t-22.5 -4q-4 -96 -11 -167t-19 -118q-16 -55 -41 -82q-55 -59 -115 -49q-53 10 -86 68q-27 51 -28 115.5t30 125.5q72 127 197 164q2 39 2 80q-2 131 -8 322q-16 -88 -37 -156q-35 -125 -82 -199q-63 -96 -150 -114q-72 -14 -125 24 q-47 31 -71 103q-39 106 -31 311zM211 1078.5q2 15.5 14 25.5q43 35 123 110q84 78 129 115q10 10 25.5 8t26 -13t8.5 -26.5t-15 -25.5q-41 -35 -123 -111q-86 -80 -129 -114q-10 -10 -25.5 -8.5t-25.5 13t-8 27zM388 -235.5q1 -47.5 20 -79.5q14 -29 32 -31q20 -4 49 24 q12 14 23 54q10 41 18 104q7 61 9 139q-78 -31 -129 -122q-23 -41 -22 -88.5z" />
<glyph unicode="&#xfe;" horiz-adv-x="718" d="M106 -293q6 139 7.5 295t-1.5 353.5t-3 295.5q0 76 3 224.5t2 266.5t-8 224q0 14 9.5 25.5t25 12.5t27.5 -8.5t12 -25.5q10 -162 4 -506q76 66 172 90q203 55 334 -49q113 -90 129 -264q8 -106 -22.5 -209.5t-110.5 -187.5t-192 -111q-115 -31 -199 2q-55 20 -109 70 q2 -303 -6 -502q0 -14 -11 -24.5t-26.5 -10.5t-26 11.5t-10.5 27.5zM182 651q0 -94 2 -342q6 -2 9 -6q70 -78 126 -100q63 -23 158 0q135 35 208 160.5t60 271.5q-12 141 -102 213q-100 82 -266 37q-100 -29 -189 -119q-2 -4 -6 -6v-109z" />
<glyph unicode="&#xff;" horiz-adv-x="753" d="M39 424q2 123 29 340q20 186 18 217q0 14 9 25.5t24.5 12.5t27 -8.5t13.5 -25.5q2 -35 -21 -229q-25 -213 -26 -334q-6 -193 26 -285q16 -49 44 -67.5t71 -10.5q53 10 98 80q43 66 76 180q12 47 24.5 106.5t19.5 99.5t15.5 96.5t10.5 72.5q8 49 22 183q4 51 8 69 q2 16 4 25q4 12 15 20q16 10 35 6q12 -4 20 -16l6 -16v-7v-10v-30q0 -31 -2 -95q-6 -145 -6 -166q0 -12 7 -203.5t9 -320.5q0 -33 -2 -63l66 16q23 4 58.5 18.5t64.5 36.5q12 10 27.5 8t24.5 -14t7 -27.5t-14 -23.5l-29 -18q-12 -10 -28 -17l-25 -12q-12 -6 -28.5 -12.5 t-24.5 -8.5t-27.5 -6t-24 -5t-25 -5t-22.5 -4q-4 -96 -11 -167t-19 -118q-16 -55 -41 -82q-55 -59 -115 -49q-53 10 -86 68q-27 51 -28 115.5t30 125.5q72 127 197 164q2 39 2 80q-2 131 -8 322q-16 -88 -37 -156q-35 -125 -82 -199q-63 -96 -150 -114q-72 -14 -125 24 q-47 31 -71 103q-39 106 -31 311zM246 1097.5q0 14.5 11 26t25.5 11.5t25.5 -11.5t11 -26t-11 -25.5t-25.5 -11t-25.5 11t-11 25.5zM388 -235.5q1 -47.5 20 -79.5q14 -29 32 -31q20 -4 49 24q12 14 23 54q10 41 18 104q7 61 9 139q-78 -31 -129 -122q-23 -41 -22 -88.5z M401 1095.5q0 14.5 11.5 26t26 11.5t25.5 -11.5t11 -26t-11 -25.5t-25.5 -11t-26 11t-11.5 25.5z" />
<glyph unicode="&#x152;" horiz-adv-x="1134" d="M63 702q12 244 80 443q78 217 193 282q14 6 24.5 12.5t18.5 9.5t16 7t13.5 6t15.5 4t14 3t17.5 4.5t19.5 5.5h14q55 6 109 -25q6 4 14 4q274 12 529 6q16 0 26.5 -11t10.5 -26.5t-11.5 -25.5t-25.5 -10q-227 6 -467 -5l4 -4q70 -90 110 -229q55 -193 58 -369 q0 -31 -2 -67q55 -2 137 4q150 14 162 14q14 0 26.5 -10t12.5 -24.5t-10.5 -26.5t-24.5 -12q-10 0 -160 -13q-96 -8 -149 -6q-23 -213 -90 -375q-47 -109 -107 -176q121 -82 223 -84q68 -2 158 40t164 97q12 8 27.5 6.5t24.5 -14t7 -28t-14 -25.5q-82 -57 -183.5 -104.5 t-183.5 -45.5q-133 4 -280 107q-111 -82 -250 -37q-152 47 -221 262q-59 182 -50 436zM137 700q-10 -242 45 -411q57 -178 172 -215q94 -29 168 14l-51 45q-86 84 -149.5 183.5t-85.5 189.5q-39 168 -29 401q6 129 55 291q14 47 31 86q-45 -63 -80 -164q-66 -188 -76 -420z M281 903q-10 -219 28 -381q18 -78 75.5 -168t137.5 -168l58 -51q57 59 98 162q49 115 71.5 252t22.5 235q-2 170 -53 349q-37 125 -101 202q-76 98 -159 58q-70 -35 -127 -217q-45 -150 -51 -273z" />
<glyph unicode="&#x153;" horiz-adv-x="1130" d="M49.5 558.5q26.5 184.5 106.5 307.5q94 143 227 144q6 0 12 -2q6 0 13 -2q14 4 26 -2q100 -47 168 -148q31 49 53 72q55 51 125 73.5t131.5 12.5t102.5 -45q76 -66 30 -160q-35 -70 -137 -137q-4 -4 -8 -6q-84 -55 -199 -86q14 -109 -2 -213q-8 -70 -30 -129 q10 -7 12 -19q31 -94 89 -143t132 -58q74 -6 151.5 27t141.5 100q10 12 25.5 12.5t26.5 -10t11 -26t-10 -25.5q-74 -80 -168 -119.5t-186 -31.5q-86 10 -154.5 61t-109.5 141q-29 -49 -66 -86q-125 -123 -299 -57q-137 53 -192 223q-49 147 -22.5 331.5zM121 549 q-23 -168 20 -299q45 -137 148 -176q131 -49 223 41q90 88 115 262q12 94 2 188q-170 -25 -279 41q-63 37 -96 94.5t-31 118.5q2 10 2 19l-8 -13q-74 -111 -96 -276zM297 815q-2 -39 21.5 -79t68.5 -68q86 -51 229 -31q-51 221 -208 299q-106 -31 -111 -121zM645 782 q27 -59 43 -129q57 14 107 39q4 4 10 6q139 74 172 144q23 43 -10 71q-25 20 -68 27.5t-96 -9t-94 -57.5q-12 -10 -21.5 -23t-21.5 -36z" />
<glyph unicode="&#x2000;" horiz-adv-x="876" />
<glyph unicode="&#x2001;" horiz-adv-x="1752" />
<glyph unicode="&#x2002;" horiz-adv-x="876" />
<glyph unicode="&#x2003;" horiz-adv-x="1752" />
<glyph unicode="&#x2004;" horiz-adv-x="584" />
<glyph unicode="&#x2005;" horiz-adv-x="438" />
<glyph unicode="&#x2006;" horiz-adv-x="292" />
<glyph unicode="&#x2007;" horiz-adv-x="292" />
<glyph unicode="&#x2008;" horiz-adv-x="219" />
<glyph unicode="&#x2009;" horiz-adv-x="350" />
<glyph unicode="&#x200a;" horiz-adv-x="97" />
<glyph unicode="&#x2010;" horiz-adv-x="573" d="M51 648.5q2 15.5 13.5 25.5t25.5 8q43 -4 86 -5t96 1l82 2q29 2 98.5 6t88.5 4q14 0 26.5 -10t12.5 -24.5t-10.5 -27t-24.5 -12.5q-16 0 -86 -4t-101 -6l-84 -2q-55 -2 -100 -1t-88 5q-16 2 -26.5 13.5t-8.5 27z" />
<glyph unicode="&#x2011;" horiz-adv-x="573" d="M51 648.5q2 15.5 13.5 25.5t25.5 8q43 -4 86 -5t96 1l82 2q29 2 98.5 6t88.5 4q14 0 26.5 -10t12.5 -24.5t-10.5 -27t-24.5 -12.5q-16 0 -86 -4t-101 -6l-84 -2q-55 -2 -100 -1t-88 5q-16 2 -26.5 13.5t-8.5 27z" />
<glyph unicode="&#x2012;" horiz-adv-x="573" d="M51 648.5q2 15.5 13.5 25.5t25.5 8q43 -4 86 -5t96 1l82 2q29 2 98.5 6t88.5 4q14 0 26.5 -10t12.5 -24.5t-10.5 -27t-24.5 -12.5q-16 0 -86 -4t-101 -6l-84 -2q-55 -2 -100 -1t-88 5q-16 2 -26.5 13.5t-8.5 27z" />
<glyph unicode="&#x2013;" horiz-adv-x="954" d="M75 150.5q-3 15.5 5 27.5q137 213 405 600l377 545q8 12 23.5 15t28 -5t15.5 -23.5t-5 -27.5l-375 -545l-408 -600q-8 -12 -23.5 -15t-27.5 5t-15 23.5zM438 1274q0 14 11.5 25.5t25.5 11.5t25.5 -11.5t11.5 -25.5t-11.5 -25.5t-25.5 -11.5t-25.5 11.5t-11.5 25.5z M621 213q0 14 11 25.5t25.5 11.5t25.5 -11.5t11 -25.5t-11 -25.5t-25.5 -11.5t-25.5 11.5t-11 25.5zM821 202.5q0 14.5 11.5 26t25.5 11.5t25.5 -11.5t11.5 -26t-11.5 -25.5t-25.5 -11t-25.5 11t-11.5 25.5z" />
<glyph unicode="&#x2014;" horiz-adv-x="2091" d="M51.5 648.5q7.5 15.5 52 25.5t98.5 8q167 -4 333 -5t371 1l318 2q112 2 381 6t342 4q54 0 102.5 -10t48.5 -24.5t-40.5 -27t-94.5 -12.5q-62 0 -333 -4t-391 -6l-325 -2q-213 -2 -387 -1t-340 5q-62 2 -102.5 13.5t-33 27z" />
<glyph unicode="&#x2018;" horiz-adv-x="266" d="M25 1229q18 84 52 140t105 132q10 12 25.5 12t27 -10t11.5 -25.5t-10 -25.5q-66 -72 -94.5 -119t-43.5 -121q-4 -14 -16 -22t-27.5 -5t-23.5 15t-6 29z" />
<glyph unicode="&#x2019;" horiz-adv-x="241" d="M8 1203.5q2 15.5 12 25.5q66 55 99 103t26 108q-2 16 8.5 27.5t26 13.5t26.5 -8.5t13 -24.5q8 -86 -34 -149.5t-115 -127.5q-12 -10 -27.5 -8t-26 13.5t-8.5 27z" />
<glyph unicode="&#x201c;" horiz-adv-x="354" d="M12 1233q0 186 127 289q10 10 25.5 8t26 -13.5t8 -27t-14.5 -25.5q-98 -80 -98 -231q0 -14 -11.5 -25.5t-25.5 -11.5t-25.5 11.5t-11.5 25.5zM137 1229q-8 90 28 151.5t114 114.5q12 8 27.5 5t23.5 -15t4.5 -27.5t-15.5 -23.5q-63 -43 -88.5 -87t-19.5 -110 q2 -16 -8 -27.5t-25.5 -13.5t-27 8t-13.5 25z" />
<glyph unicode="&#x201d;" horiz-adv-x="335" d="M31 1287.5q2 15.5 14 23.5q57 45 82 89t14 101q-2 16 7.5 28.5t24.5 14.5t27.5 -7.5t14.5 -23.5q23 -147 -125 -260q-12 -10 -27.5 -8t-24.5 14.5t-7 28zM196 1244.5q1 15.5 11 25.5q51 43 69.5 92t14.5 119q0 14 9 25.5t24.5 12.5t27 -8.5t13.5 -25.5q10 -166 -109 -273 q-12 -8 -27.5 -7t-24.5 12.5t-8 27z" />
<glyph unicode="&#x202f;" horiz-adv-x="350" />
<glyph unicode="&#x205f;" horiz-adv-x="438" />
<glyph unicode="&#x20ac;" horiz-adv-x="999" d="M53 767q2 15 15 24q76 59 186 40q27 266 145 459q72 117 154 137q78 20 145 -45q53 -51 87 -140t36 -175q0 -16 -10 -27.5t-25.5 -11.5t-26.5 10.5t-11 24.5q-2 76 -31 151.5t-70 114.5q-39 37 -78 27q-51 -12 -108 -103q-111 -180 -135 -436q88 -20 133 0q14 4 28.5 -1 t19.5 -19.5t0 -28.5t-20 -20q-68 -27 -165 -7q-4 -59 0 -120q2 -41 6 -78q4 -2 18 -7.5t18.5 -6.5t14.5 -4t17 -2t17.5 3t20.5 6q14 4 28.5 -2t19.5 -19t-1 -27.5t-18 -20.5q-63 -25 -125 -4q29 -178 96 -287q80 -129 187 -125q102 4 180 133q88 150 88 393q0 14 11 25.5 t25.5 11.5t26 -11t11.5 -26q0 -264 -99 -430q-98 -164 -241 -170q-147 -6 -252 160q-82 131 -111 348h-12q-37 -6 -90 -43q-12 -8 -27.5 -5t-24 15.5t-5 28t15.5 23.5q66 45 119 53q8 2 16 2l-4 61q-4 72 0 142q-84 14 -135 -25q-12 -10 -27.5 -8t-25 14.5t-7.5 27.5z" />
<glyph unicode="&#x2122;" horiz-adv-x="1327" d="M39 1300.5q0 14.5 11.5 25.5t25.5 11q39 0 76.5 5.5t85 19.5t69 21.5t84.5 33.5l76 29q14 6 28.5 0t19.5 -19.5t-1 -28t-18 -20.5l-70 -26l-94 -37q47 -367 47 -610q0 -14 -11.5 -25.5t-25.5 -11.5t-25.5 11t-11.5 26q0 236 -45 587q-98 -29 -184 -28q-14 0 -25.5 11 t-11.5 25.5zM606 1382q-2 14 8.5 26.5t24.5 14.5q33 4 41 -28q0 -2 2 -4q20 -53 100 -211q41 -78 68 -123l10 -21l14 25q29 53 72 149l66 152l20 51l6 12l2 5v2h2v2q0 2 2 2q0 2 3 4q20 25 47 10q12 -8 22 -25l14 -28q12 -29 27 -80q25 -80 64 -232l61 -245q33 -129 43 -160 q4 -14 -2 -27.5t-20.5 -18.5t-27.5 1t-20 20q-12 37 -45 166l-61 246q-39 150 -62 227l-10 33l-63 -147q-45 -98 -76 -154q-18 -35 -31 -53q-8 -12 -16 -19q-20 -16 -43 -10q-12 2 -23 14q-6 6 -12 17q-12 16 -29 45q-27 47 -67 127l-10 20q39 -315 38 -487q0 -14 -11 -25.5 t-25.5 -11.5t-25.5 11.5t-11 25.5q0 104 -9.5 215t-30 270.5t-26.5 216.5z" />
<glyph unicode="&#x25fc;" horiz-adv-x="1013" d="M0 0v1014h1014v-1014h-1014z" />
</font>
</defs>
</svg>
